ISO-10303-21;
HEADER;
FILE_DESCRIPTION (( 'STEP AP203' ),
    '1' );
FILE_NAME ('connecting rod1.STEP',
    '2026-08-08T13:17:56',
    ( '' ),
    ( '' ),
    'SwSTEP 2.0',
    'SolidWorks 2025',
    '' );
FILE_SCHEMA (( 'CONFIG_CONTROL_DESIGN' ));
ENDSEC;

DATA;
#1 =( GEOMETRIC_REPRESENTATION_CONTEXT ( 3 ) GLOBAL_UNCERTAINTY_ASSIGNED_CONTEXT ( ( #669 ) ) GLOBAL_UNIT_ASSIGNED_CONTEXT ( ( #190, #610, #851 ) ) REPRESENTATION_CONTEXT ( 'NONE', 'WORKASPACE' ) );
#2 = APPROVAL ( #492, '未' ) ;
#3 = DIRECTION ( 'NONE',  ( -0.000000000000000000, -0.000000000000000000, -1.000000000000000000 ) ) ;
#4 = CARTESIAN_POINT ( 'NONE',  ( -34.00017143907982131, -17.99999999999992895, 25.00000000000000000 ) ) ;
#5 = ORIENTED_EDGE ( 'NONE', *, *, #359, .F. ) ;
#6 = CARTESIAN_POINT ( 'NONE',  ( -34.00017143907982131, -17.99999999999992895, 0.000000000000000000 ) ) ;
#7 = EDGE_CURVE ( 'NONE', #905, #106, #270, .T. ) ;
#8 = DIRECTION ( 'NONE',  ( -0.8660254037844397068, -0.4999999999999982792, 0.000000000000000000 ) ) ;
#9 = FACE_BOUND ( 'NONE', #124, .T. ) ;
#10 = CIRCLE ( 'NONE', #246, 4.000000000000000000 ) ;
#11 = EDGE_LOOP ( 'NONE', ( #225, #854 ) ) ;
#12 = LINE ( 'NONE', #750, #283 ) ;
#13 = ORIENTED_EDGE ( 'NONE', *, *, #487, .T. ) ;
#14 = CIRCLE ( 'NONE', #741, 7.999999999999996447 ) ;
#15 = AXIS2_PLACEMENT_3D ( 'NONE', #254, #761, #26 ) ;
#16 = DIRECTION ( 'NONE',  ( 1.000000000000000000, 0.000000000000000000, 0.000000000000000000 ) ) ;
#17 = ORIENTED_EDGE ( 'NONE', *, *, #813, .T. ) ;
#18 = DIRECTION ( 'NONE',  ( -0.4999999999999981126, 0.8660254037844397068, 0.000000000000000000 ) ) ;
#19 = ORIENTED_EDGE ( 'NONE', *, *, #477, .F. ) ;
#20 = DIRECTION ( 'NONE',  ( -0.000000000000000000, -0.000000000000000000, -1.000000000000000000 ) ) ;
#21 = VECTOR ( 'NONE', #714, 1000.000000000000000 ) ;
#22 = DIRECTION ( 'NONE',  ( 1.000000000000000000, 0.000000000000000000, 0.000000000000000000 ) ) ;
#23 = ORIENTED_EDGE ( 'NONE', *, *, #53, .F. ) ;
#24 = DIRECTION ( 'NONE',  ( -0.000000000000000000, -0.000000000000000000, -1.000000000000000000 ) ) ;
#25 = EDGE_CURVE ( 'NONE', #662, #635, #145, .T. ) ;
#26 = DIRECTION ( 'NONE',  ( 1.000000000000000000, 0.000000000000000000, 0.000000000000000000 ) ) ;
#27 = ORIENTED_EDGE ( 'NONE', *, *, #670, .T. ) ;
#28 = CC_DESIGN_APPROVAL ( #674, ( #844 ) ) ;
#29 = DIRECTION ( 'NONE',  ( -1.000000000000000000, 0.000000000000000000, 0.000000000000000000 ) ) ;
#30 = EDGE_LOOP ( 'NONE', ( #427, #306, #917, #392 ) ) ;
#31 = DIRECTION ( 'NONE',  ( -0.000000000000000000, -0.000000000000000000, -1.000000000000000000 ) ) ;
#32 = VECTOR ( 'NONE', #655, 1000.000000000000000 ) ;
#33 = ORIENTED_EDGE ( 'NONE', *, *, #564, .F. ) ;
#34 = EDGE_CURVE ( 'NONE', #67, #686, #642, .T. ) ;
#35 = LINE ( 'NONE', #483, #785 ) ;
#36 = ORIENTED_EDGE ( 'NONE', *, *, #745, .F. ) ;
#37 = DIRECTION ( 'NONE',  ( 1.000000000000000000, 0.000000000000000000, 0.000000000000000000 ) ) ;
#38 = LINE ( 'NONE', #916, #130 ) ;
#39 = ADVANCED_FACE ( 'NONE', ( #567 ), #50, .T. ) ;
#40 = ORIENTED_EDGE ( 'NONE', *, *, #429, .F. ) ;
#41 = CARTESIAN_POINT ( 'NONE',  ( -11.77525149211984790, -14.40604079293876261, 11.99999999999997158 ) ) ;
#42 = AXIS2_PLACEMENT_3D ( 'NONE', #660, #811, #664 ) ;
#43 = ORIENTED_EDGE ( 'NONE', *, *, #839, .T. ) ;
#44 = EDGE_CURVE ( 'NONE', #896, #108, #377, .T. ) ;
#45 = CARTESIAN_POINT ( 'NONE',  ( -2.823256902839993643, 0.000000000000000000, 25.00000000000000000 ) ) ;
#46 = VERTEX_POINT ( 'NONE', #573 ) ;
#47 = DIRECTION ( 'NONE',  ( -0.8660254037844397068, -0.4999999999999983902, 0.000000000000000000 ) ) ;
#48 = ORIENTED_EDGE ( 'NONE', *, *, #511, .T. ) ;
#49 = PERSON_AND_ORGANIZATION ( #898, #682 ) ;
#50 = CYLINDRICAL_SURFACE ( 'NONE', #790, 7.999999999999992895 ) ;
#51 = CARTESIAN_POINT ( 'NONE',  ( -2.823256902839999416, 50.00000000000000000, 0.000000000000000000 ) ) ;
#52 = ORIENTED_EDGE ( 'NONE', *, *, #827, .T. ) ;
#53 = EDGE_CURVE ( 'NONE', #923, #650, #414, .T. ) ;
#54 = CARTESIAN_POINT ( 'NONE',  ( -38.00017143907982131, -17.99999999999992895, 15.00000000000000533 ) ) ;
#55 = FACE_OUTER_BOUND ( 'NONE', #411, .T. ) ;
#56 = ORIENTED_EDGE ( 'NONE', *, *, #575, .T. ) ;
#57 = PERSON_AND_ORGANIZATION_ROLE ( 'classification_officer' ) ;
#58 = CARTESIAN_POINT ( 'NONE',  ( -21.50730229968868912, -1.549634332387729074, 10.00000000000000178 ) ) ;
#59 = LINE ( 'NONE', #643, #162 ) ;
#60 = VERTEX_POINT ( 'NONE', #704 ) ;
#61 = EDGE_CURVE ( 'NONE', #595, #635, #215, .T. ) ;
#62 = ADVANCED_FACE ( 'NONE', ( #586 ), #711, .F. ) ;
#63 = CALENDAR_DATE ( 2026, 8, 8 ) ;
#64 = CARTESIAN_POINT ( 'NONE',  ( -34.00017143907982131, -17.99999999999992895, 25.00000000000000000 ) ) ;
#65 = CYLINDRICAL_SURFACE ( 'NONE', #318, 7.999999999999992895 ) ;
#66 = AXIS2_PLACEMENT_3D ( 'NONE', #894, #229, #244 ) ;
#67 = VERTEX_POINT ( 'NONE', #706 ) ;
#68 = CARTESIAN_POINT ( 'NONE',  ( -10.82325690283999720, 6.928203230275528313, 25.00000000000000000 ) ) ;
#69 = CC_DESIGN_PERSON_AND_ORGANIZATION_ASSIGNMENT ( #49, #716, ( #803 ) ) ;
#70 = SHAPE_DEFINITION_REPRESENTATION ( #399, #526 ) ;
#71 = CARTESIAN_POINT ( 'NONE',  ( -19.77525149211979283, -0.5496343323877236342, 12.99999999999997513 ) ) ;
#72 = CYLINDRICAL_SURFACE ( 'NONE', #169, 4.000000000000000888 ) ;
#73 = EDGE_CURVE ( 'NONE', #551, #158, #92, .T. ) ;
#74 = ORIENTED_EDGE ( 'NONE', *, *, #753, .F. ) ;
#75 = CARTESIAN_POINT ( 'NONE',  ( -30.00017143907984263, -24.92820323027544660, 10.00000000000000178 ) ) ;
#76 = CC_DESIGN_APPROVAL ( #371, ( #803 ) ) ;
#77 = CARTESIAN_POINT ( 'NONE',  ( -30.00017143907982486, -17.99999999999992895, 10.00000000000000178 ) ) ;
#78 = ORIENTED_EDGE ( 'NONE', *, *, #339, .F. ) ;
#79 = CIRCLE ( 'NONE', #732, 7.999999999999996447 ) ;
#80 = DIRECTION ( 'NONE',  ( -1.000000000000000000, 0.000000000000000000, 0.000000000000000000 ) ) ;
#81 = VECTOR ( 'NONE', #552, 1000.000000000000227 ) ;
#82 = EDGE_LOOP ( 'NONE', ( #769, #890, #947, #928 ) ) ;
#83 = DIRECTION ( 'NONE',  ( -1.000000000000000000, 0.000000000000000000, 0.000000000000000000 ) ) ;
#84 = EDGE_CURVE ( 'NONE', #106, #905, #507, .T. ) ;
#85 = CARTESIAN_POINT ( 'NONE',  ( -34.00017143907982131, -17.99999999999992895, 15.00000000000000533 ) ) ;
#86 = ORIENTED_EDGE ( 'NONE', *, *, #359, .T. ) ;
#87 = VECTOR ( 'NONE', #294, 1000.000000000000000 ) ;
#88 = AXIS2_PLACEMENT_3D ( 'NONE', #840, #904, #396 ) ;
#89 = DIRECTION ( 'NONE',  ( 1.529023964369637738E-16, -1.000000000000000000, 0.000000000000000000 ) ) ;
#90 = ORIENTED_EDGE ( 'NONE', *, *, #53, .T. ) ;
#91 = DIRECTION ( 'NONE',  ( 0.000000000000000000, 0.000000000000000000, -1.000000000000000000 ) ) ;
#92 = CIRCLE ( 'NONE', #455, 3.999999999999996447 ) ;
#93 = DIRECTION ( 'NONE',  ( 1.000000000000000000, 0.000000000000000000, 0.000000000000000000 ) ) ;
#94 = VERTEX_POINT ( 'NONE', #561 ) ;
#95 = DIRECTION ( 'NONE',  ( -1.000000000000000000, 0.000000000000000000, -0.000000000000000000 ) ) ;
#96 = EDGE_CURVE ( 'NONE', #453, #369, #901, .T. ) ;
#97 = CARTESIAN_POINT ( 'NONE',  ( -30.00017143907982486, -17.99999999999992895, 0.000000000000000000 ) ) ;
#98 = ORIENTED_EDGE ( 'NONE', *, *, #213, .T. ) ;
#99 = FACE_OUTER_BOUND ( 'NONE', #826, .T. ) ;
#100 = DIRECTION ( 'NONE',  ( -0.000000000000000000, -0.000000000000000000, -1.000000000000000000 ) ) ;
#101 = VERTEX_POINT ( 'NONE', #58 ) ;
#102 = CARTESIAN_POINT ( 'NONE',  ( -2.823256902839993643, 0.000000000000000000, 25.00000000000000000 ) ) ;
#103 = ORIENTED_EDGE ( 'NONE', *, *, #240, .F. ) ;
#104 = DIRECTION ( 'NONE',  ( -0.000000000000000000, -0.000000000000000000, -1.000000000000000000 ) ) ;
#105 = VECTOR ( 'NONE', #667, 1000.000000000000227 ) ;
#106 = VERTEX_POINT ( 'NONE', #54 ) ;
#107 = CARTESIAN_POINT ( 'NONE',  ( -38.00017143907982131, -17.99999999999992895, 25.00000000000000000 ) ) ;
#108 = VERTEX_POINT ( 'NONE', #871 ) ;
#109 = AXIS2_PLACEMENT_3D ( 'NONE', #547, #626, #557 ) ;
#110 = DIRECTION ( 'NONE',  ( 0.4999999999999981126, -0.8660254037844397068, 0.000000000000000000 ) ) ;
#111 = VERTEX_POINT ( 'NONE', #347 ) ;
#112 = DIRECTION ( 'NONE',  ( -0.000000000000000000, -0.000000000000000000, -1.000000000000000000 ) ) ;
#113 = APPLICATION_CONTEXT ( 'configuration controlled 3d designs of mechanical parts and assemblies' ) ;
#114 = CARTESIAN_POINT ( 'NONE',  ( -10.82325690284000430, 50.00000000000000000, 0.000000000000000000 ) ) ;
#115 = ORIENTED_EDGE ( 'NONE', *, *, #847, .F. ) ;
#116 = DIRECTION ( 'NONE',  ( 1.000000000000000000, 0.000000000000000000, 0.000000000000000000 ) ) ;
#117 = DIRECTION ( 'NONE',  ( -0.000000000000000000, -0.000000000000000000, -1.000000000000000000 ) ) ;
#118 = VERTEX_POINT ( 'NONE', #786 ) ;
#119 = DIRECTION ( 'NONE',  ( 1.000000000000000000, 0.000000000000000000, -0.000000000000000000 ) ) ;
#120 = ORIENTED_EDGE ( 'NONE', *, *, #459, .F. ) ;
#121 = EDGE_CURVE ( 'NONE', #885, #312, #566, .T. ) ;
#122 = CARTESIAN_POINT ( 'NONE',  ( -34.00017143907982131, -17.99999999999992895, 25.00000000000000000 ) ) ;
#123 = DIRECTION ( 'NONE',  ( -1.000000000000000000, 0.000000000000000000, 0.000000000000000000 ) ) ;
#124 = EDGE_LOOP ( 'NONE', ( #40, #676 ) ) ;
#125 = FACE_OUTER_BOUND ( 'NONE', #449, .T. ) ;
#126 = CARTESIAN_POINT ( 'NONE',  ( 5.176743097160003693, 50.00000000000000000, 25.00000000000000000 ) ) ;
#127 = DIRECTION ( 'NONE',  ( -1.000000000000000000, 0.000000000000000000, 0.000000000000000000 ) ) ;
#128 = AXIS2_PLACEMENT_3D ( 'NONE', #892, #241, #368 ) ;
#129 = EDGE_LOOP ( 'NONE', ( #763, #120, #563, #115 ) ) ;
#130 = VECTOR ( 'NONE', #828, 1000.000000000000000 ) ;
#131 = ADVANCED_FACE ( 'NONE', ( #353 ), #139, .T. ) ;
#132 = PERSON_AND_ORGANIZATION_ROLE ( 'creator' ) ;
#133 = DIRECTION ( 'NONE',  ( 1.000000000000000000, 0.000000000000000000, 0.000000000000000000 ) ) ;
#134 = CARTESIAN_POINT ( 'NONE',  ( -30.00017143907984263, -24.92820323027544660, 25.00000000000000000 ) ) ;
#135 = VERTEX_POINT ( 'NONE', #273 ) ;
#136 = CIRCLE ( 'NONE', #230, 4.000000000000000888 ) ;
#137 = APPROVAL_STATUS ( 'not_yet_approved' ) ;
#138 = ADVANCED_FACE ( 'NONE', ( #860 ), #944, .F. ) ;
#139 = CYLINDRICAL_SURFACE ( 'NONE', #612, 7.999999999999992895 ) ;
#140 = DIRECTION ( 'NONE',  ( -0.000000000000000000, -0.000000000000000000, -1.000000000000000000 ) ) ;
#141 = CIRCLE ( 'NONE', #810, 3.999999999999996447 ) ;
#142 = ORIENTED_EDGE ( 'NONE', *, *, #384, .F. ) ;
#143 = EDGE_CURVE ( 'NONE', #541, #358, #723, .T. ) ;
#144 = PERSON_AND_ORGANIZATION ( #898, #682 ) ;
#145 = LINE ( 'NONE', #489, #148 ) ;
#146 = CYLINDRICAL_SURFACE ( 'NONE', #444, 10.00000000000000178 ) ;
#147 = ORIENTED_EDGE ( 'NONE', *, *, #121, .T. ) ;
#148 = VECTOR ( 'NONE', #278, 1000.000000000000000 ) ;
#149 = APPROVAL_PERSON_ORGANIZATION ( #775, #2, #346 ) ;
#150 = EDGE_CURVE ( 'NONE', #700, #293, #79, .T. ) ;
#151 = DIRECTION ( 'NONE',  ( 0.8660254037844395958, 0.4999999999999986122, 0.000000000000000000 ) ) ;
#152 = ORIENTED_EDGE ( 'NONE', *, *, #835, .F. ) ;
#153 = FACE_BOUND ( 'NONE', #194, .T. ) ;
#154 = LINE ( 'NONE', #305, #253 ) ;
#155 = ORIENTED_EDGE ( 'NONE', *, *, #25, .F. ) ;
#156 = CARTESIAN_POINT ( 'NONE',  ( -2.823256902839999416, 50.00000000000000000, 25.00000000000000000 ) ) ;
#157 = CARTESIAN_POINT ( 'NONE',  ( -2.516921242922187663, -30.44193917780098957, 12.50000000000000000 ) ) ;
#158 = VERTEX_POINT ( 'NONE', #223 ) ;
#159 = LINE ( 'NONE', #663, #722 ) ;
#160 = EDGE_CURVE ( 'NONE', #536, #67, #515, .T. ) ;
#161 = EDGE_CURVE ( 'NONE', #369, #760, #800, .T. ) ;
#162 = VECTOR ( 'NONE', #499, 1000.000000000000000 ) ;
#163 = DIRECTION ( 'NONE',  ( 1.000000000000000000, 0.000000000000000000, 8.591118992280613437E-17 ) ) ;
#164 = ORIENTED_EDGE ( 'NONE', *, *, #160, .F. ) ;
#165 = CARTESIAN_POINT ( 'NONE',  ( -19.77525149211980349, -0.5496343323877304066, 12.50000000000000000 ) ) ;
#166 = CC_DESIGN_DATE_AND_TIME_ASSIGNMENT ( #196, #488, ( #272 ) ) ;
#167 = EDGE_CURVE ( 'NONE', #158, #551, #141, .T. ) ;
#168 = CARTESIAN_POINT ( 'NONE',  ( -4.248972050491060415, -31.44193917780097891, 13.00000000000000711 ) ) ;
#169 = AXIS2_PLACEMENT_3D ( 'NONE', #653, #562, #357 ) ;
#170 = ORIENTED_EDGE ( 'NONE', *, *, #503, .T. ) ;
#171 = DIRECTION ( 'NONE',  ( 0.000000000000000000, 0.000000000000000000, 1.000000000000000000 ) ) ;
#172 = CARTESIAN_POINT ( 'NONE',  ( -6.823256902839993643, 0.000000000000000000, 25.00000000000000000 ) ) ;
#173 = ORIENTED_EDGE ( 'NONE', *, *, #395, .T. ) ;
#174 = DIRECTION ( 'NONE',  ( 0.000000000000000000, 0.000000000000000000, 1.000000000000000000 ) ) ;
#175 = VERTEX_POINT ( 'NONE', #360 ) ;
#176 = DIRECTION ( 'NONE',  ( 0.000000000000000000, 0.000000000000000000, 1.000000000000000000 ) ) ;
#177 = ORIENTED_EDGE ( 'NONE', *, *, #226, .T. ) ;
#178 = LINE ( 'NONE', #685, #470 ) ;
#179 = DIRECTION ( 'NONE',  ( -0.000000000000000000, -0.000000000000000000, -1.000000000000000000 ) ) ;
#180 = VECTOR ( 'NONE', #314, 1000.000000000000000 ) ;
#181 = ORIENTED_EDGE ( 'NONE', *, *, #847, .T. ) ;
#182 = LINE ( 'NONE', #770, #888 ) ;
#183 = ORIENTED_EDGE ( 'NONE', *, *, #25, .T. ) ;
#184 = AXIS2_PLACEMENT_3D ( 'NONE', #748, #171, #525 ) ;
#185 = CARTESIAN_POINT ( 'NONE',  ( 5.176743097159997475, 1.154700538379259456, 0.000000000000000000 ) ) ;
#186 = CARTESIAN_POINT ( 'NONE',  ( -34.00017143907982131, -17.99999999999992895, 15.00000000000000533 ) ) ;
#187 = CARTESIAN_POINT ( 'NONE',  ( 1.176743097160006579, 4.898587196589412829E-16, 25.00000000000000000 ) ) ;
#188 = ORIENTED_EDGE ( 'NONE', *, *, #467, .F. ) ;
#189 = DIRECTION ( 'NONE',  ( 1.000000000000000000, 0.000000000000000000, 0.000000000000000000 ) ) ;
#190 =( LENGTH_UNIT ( ) NAMED_UNIT ( * ) SI_UNIT ( .MILLI., .METRE. ) );
#191 = EDGE_CURVE ( 'NONE', #650, #829, #571, .T. ) ;
#192 = EDGE_LOOP ( 'NONE', ( #362, #517 ) ) ;
#193 = CARTESIAN_POINT ( 'NONE',  ( -38.00017143907981421, -11.07179676972441840, 15.00000000000000533 ) ) ;
#194 = EDGE_LOOP ( 'NONE', ( #330, #502 ) ) ;
#195 = CC_DESIGN_SECURITY_CLASSIFICATION ( #272, ( #803 ) ) ;
#196 = DATE_AND_TIME ( #202, #931 ) ;
#197 = DIRECTION ( 'NONE',  ( -0.000000000000000000, -0.000000000000000000, -1.000000000000000000 ) ) ;
#198 = DIRECTION ( 'NONE',  ( 1.000000000000000000, 0.000000000000000000, 0.000000000000000000 ) ) ;
#199 = ORIENTED_EDGE ( 'NONE', *, *, #160, .T. ) ;
#200 = VECTOR ( 'NONE', #356, 1000.000000000000000 ) ;
#201 = AXIS2_PLACEMENT_3D ( 'NONE', #865, #287, #513 ) ;
#202 = CALENDAR_DATE ( 2026, 8, 8 ) ;
#203 = DIRECTION ( 'NONE',  ( -1.000000000000000000, 1.270422204500949276E-16, 0.000000000000000000 ) ) ;
#204 = DIRECTION ( 'NONE',  ( 0.000000000000000000, 0.000000000000000000, -1.000000000000000000 ) ) ;
#205 = ORIENTED_EDGE ( 'NONE', *, *, #61, .F. ) ;
#206 = PERSON_AND_ORGANIZATION ( #898, #682 ) ;
#207 = PRODUCT_RELATED_PRODUCT_CATEGORY ( 'detail', '', ( #469 ) ) ;
#208 = DIRECTION ( 'NONE',  ( -0.8660254037844397068, -0.4999999999999983902, 0.000000000000000000 ) ) ;
#209 = CARTESIAN_POINT ( 'NONE',  ( 1.176743097160006579, 4.898587196589412829E-16, 0.000000000000000000 ) ) ;
#210 = AXIS2_PLACEMENT_3D ( 'NONE', #440, #598, #80 ) ;
#211 = ORIENTED_EDGE ( 'NONE', *, *, #161, .T. ) ;
#212 = DIRECTION ( 'NONE',  ( -0.000000000000000000, -0.000000000000000000, -1.000000000000000000 ) ) ;
#213 = EDGE_CURVE ( 'NONE', #358, #67, #645, .T. ) ;
#214 = PERSON_AND_ORGANIZATION ( #898, #682 ) ;
#215 = LINE ( 'NONE', #281, #919 ) ;
#216 = FACE_OUTER_BOUND ( 'NONE', #833, .T. ) ;
#217 = EDGE_CURVE ( 'NONE', #108, #896, #940, .T. ) ;
#218 = ORIENTED_EDGE ( 'NONE', *, *, #739, .T. ) ;
#219 = LINE ( 'NONE', #794, #522 ) ;
#220 = DIRECTION ( 'NONE',  ( 1.000000000000000000, 0.000000000000000000, 0.000000000000000000 ) ) ;
#221 = LINE ( 'NONE', #939, #534 ) ;
#222 = ORIENTED_EDGE ( 'NONE', *, *, #339, .T. ) ;
#223 = CARTESIAN_POINT ( 'NONE',  ( -38.00017143907982131, -17.99999999999992895, 10.00000000000000178 ) ) ;
#224 = DIRECTION ( 'NONE',  ( -8.591118992280613437E-17, -4.960084862833294339E-17, 1.000000000000000000 ) ) ;
#225 = ORIENTED_EDGE ( 'NONE', *, *, #167, .T. ) ;
#226 = EDGE_CURVE ( 'NONE', #101, #94, #553, .T. ) ;
#227 = PLANE ( 'NONE',  #694 ) ;
#228 = EDGE_LOOP ( 'NONE', ( #188, #295, #319, #845 ) ) ;
#229 = DIRECTION ( 'NONE',  ( 0.000000000000000000, 0.000000000000000000, 1.000000000000000000 ) ) ;
#230 = AXIS2_PLACEMENT_3D ( 'NONE', #825, #174, #116 ) ;
#231 = ADVANCED_FACE ( 'NONE', ( #125 ), #929, .F. ) ;
#232 = DIRECTION ( 'NONE',  ( 1.000000000000000000, 0.000000000000000000, 0.000000000000000000 ) ) ;
#233 = ORIENTED_EDGE ( 'NONE', *, *, #235, .T. ) ;
#234 = FACE_OUTER_BOUND ( 'NONE', #788, .T. ) ;
#235 = EDGE_CURVE ( 'NONE', #312, #256, #867, .T. ) ;
#236 = AXIS2_PLACEMENT_3D ( 'NONE', #6, #726, #721 ) ;
#237 = DIRECTION ( 'NONE',  ( -0.000000000000000000, -0.000000000000000000, -1.000000000000000000 ) ) ;
#238 = ORIENTED_EDGE ( 'NONE', *, *, #264, .F. ) ;
#239 = LINE ( 'NONE', #533, #105 ) ;
#240 = EDGE_CURVE ( 'NONE', #873, #536, #219, .T. ) ;
#241 = DIRECTION ( 'NONE',  ( 0.000000000000000000, -0.000000000000000000, -1.000000000000000000 ) ) ;
#242 = APPROVAL_PERSON_ORGANIZATION ( #214, #371, #632 ) ;
#243 = ORIENTED_EDGE ( 'NONE', *, *, #310, .F. ) ;
#244 = DIRECTION ( 'NONE',  ( 1.000000000000000000, 0.000000000000000000, 0.000000000000000000 ) ) ;
#245 = CARTESIAN_POINT ( 'NONE',  ( -38.00017143907980710, -11.07179676972441484, 25.00000000000000000 ) ) ;
#246 = AXIS2_PLACEMENT_3D ( 'NONE', #349, #274, #568 ) ;
#247 = VERTEX_POINT ( 'NONE', #428 ) ;
#248 = CARTESIAN_POINT ( 'NONE',  ( -30.00017143907984263, -24.92820323027544660, 15.00000000000000533 ) ) ;
#249 = EDGE_CURVE ( 'NONE', #135, #713, #474, .T. ) ;
#250 = LINE ( 'NONE', #478, #622 ) ;
#251 = ORIENTED_EDGE ( 'NONE', *, *, #402, .F. ) ;
#252 = CARTESIAN_POINT ( 'NONE',  ( -11.77525149211984257, -14.40604079293876261, 11.99999999999997158 ) ) ;
#253 = VECTOR ( 'NONE', #448, 1000.000000000000000 ) ;
#254 = CARTESIAN_POINT ( 'NONE',  ( -34.00017143907982131, -17.99999999999992895, 25.00000000000000000 ) ) ;
#255 = AXIS2_PLACEMENT_3D ( 'NONE', #594, #519, #806 ) ;
#256 = VERTEX_POINT ( 'NONE', #68 ) ;
#257 = CARTESIAN_POINT ( 'NONE',  ( -6.823256902840000748, 50.00000000000000000, 25.00000000000000000 ) ) ;
#258 = LINE ( 'NONE', #756, #695 ) ;
#259 = CIRCLE ( 'NONE', #759, 4.000000000000000000 ) ;
#260 = AXIS2_PLACEMENT_3D ( 'NONE', #122, #197, #938 ) ;
#261 = ORIENTED_EDGE ( 'NONE', *, *, #310, .T. ) ;
#262 = DIRECTION ( 'NONE',  ( -0.4999999999999983347, 0.8660254037844398178, 0.000000000000000000 ) ) ;
#263 = ADVANCED_FACE ( 'NONE', ( #234 ), #454, .F. ) ;
#264 = EDGE_CURVE ( 'NONE', #111, #589, #367, .T. ) ;
#265 = ORIENTED_EDGE ( 'NONE', *, *, #813, .F. ) ;
#266 = CARTESIAN_POINT ( 'NONE',  ( -19.77525149211983901, -0.5496343323877495024, 10.00000000000000178 ) ) ;
#267 = CARTESIAN_POINT ( 'NONE',  ( -2.823256902839999416, 50.00000000000000000, 0.000000000000000000 ) ) ;
#268 = DIRECTION ( 'NONE',  ( 0.000000000000000000, -0.000000000000000000, -1.000000000000000000 ) ) ;
#269 = DIRECTION ( 'NONE',  ( -0.8660254037844397068, -0.4999999999999980571, 0.000000000000000000 ) ) ;
#270 = CIRCLE ( 'NONE', #559, 4.000000000000000000 ) ;
#271 = CARTESIAN_POINT ( 'NONE',  ( -14.82325690283999720, 6.928203230275524760, 25.00000000000000000 ) ) ;
#272 = SECURITY_CLASSIFICATION ( '', '', #504 ) ;
#273 = CARTESIAN_POINT ( 'NONE',  ( -38.00017143907982131, -17.99999999999992895, 0.000000000000000000 ) ) ;
#274 = DIRECTION ( 'NONE',  ( 0.000000000000000000, 0.000000000000000000, 1.000000000000000000 ) ) ;
#275 = ORIENTED_EDGE ( 'NONE', *, *, #920, .F. ) ;
#276 = VECTOR ( 'NONE', #8, 999.9999999999998863 ) ;
#277 = CALENDAR_DATE ( 2026, 8, 8 ) ;
#278 = DIRECTION ( 'NONE',  ( -0.000000000000000000, -0.000000000000000000, 1.000000000000000000 ) ) ;
#279 = CARTESIAN_POINT ( 'NONE',  ( -4.823256902840003413, 1.154700538379259456, 0.000000000000000000 ) ) ;
#280 = ORIENTED_EDGE ( 'NONE', *, *, #717, .F. ) ;
#281 = CARTESIAN_POINT ( 'NONE',  ( -30.00017143907984263, -24.92820323027544660, 25.00000000000000000 ) ) ;
#282 = CARTESIAN_POINT ( 'NONE',  ( -38.00017143907982131, -17.99999999999992895, 25.00000000000000000 ) ) ;
#283 = VECTOR ( 'NONE', #89, 1000.000000000000000 ) ;
#284 = ORIENTED_EDGE ( 'NONE', *, *, #249, .T. ) ;
#285 = COORDINATED_UNIVERSAL_TIME_OFFSET ( 8, 0, .AHEAD. ) ;
#286 = DIRECTION ( 'NONE',  ( -8.591118992280613437E-17, -4.960084862833294339E-17, 1.000000000000000000 ) ) ;
#287 = DIRECTION ( 'NONE',  ( 0.000000000000000000, 0.000000000000000000, 1.000000000000000000 ) ) ;
#288 = ORIENTED_EDGE ( 'NONE', *, *, #430, .F. ) ;
#289 = CIRCLE ( 'NONE', #822, 10.00000000000000000 ) ;
#290 = CARTESIAN_POINT ( 'NONE',  ( -34.00017143907982131, -17.99999999999992895, 10.00000000000000178 ) ) ;
#291 = CARTESIAN_POINT ( 'NONE',  ( -2.823256902839999416, 50.00000000000000000, 25.00000000000000000 ) ) ;
#292 = EDGE_CURVE ( 'NONE', #620, #589, #762, .T. ) ;
#293 = VERTEX_POINT ( 'NONE', #248 ) ;
#294 = DIRECTION ( 'NONE',  ( -1.371343297308261866E-14, -7.917454218523102630E-15, -1.000000000000000000 ) ) ;
#295 = ORIENTED_EDGE ( 'NONE', *, *, #530, .T. ) ;
#296 = DIRECTION ( 'NONE',  ( -0.000000000000000000, -0.000000000000000000, -1.000000000000000000 ) ) ;
#297 = CIRCLE ( 'NONE', #831, 10.00000000000000000 ) ;
#298 = AXIS2_PLACEMENT_3D ( 'NONE', #322, #176, #464 ) ;
#299 = EDGE_CURVE ( 'NONE', #247, #629, #602, .T. ) ;
#300 = CARTESIAN_POINT ( 'NONE',  ( -30.00017143907984263, -24.92820323027544660, 10.00000000000000178 ) ) ;
#301 = ORIENTED_EDGE ( 'NONE', *, *, #818, .F. ) ;
#302 = FACE_BOUND ( 'NONE', #11, .T. ) ;
#303 = AXIS2_PLACEMENT_3D ( 'NONE', #102, #705, #37 ) ;
#304 = CC_DESIGN_DATE_AND_TIME_ASSIGNMENT ( #565, #423, ( #844 ) ) ;
#305 = CARTESIAN_POINT ( 'NONE',  ( 1.176743097160001472, 50.00000000000000000, 25.00000000000000000 ) ) ;
#306 = ORIENTED_EDGE ( 'NONE', *, *, #34, .F. ) ;
#307 = DIRECTION ( 'NONE',  ( -1.387778780781446464E-14, -7.632783294297955949E-15, -1.000000000000000000 ) ) ;
#308 = AXIS2_PLACEMENT_3D ( 'NONE', #821, #891, #83 ) ;
#309 = EDGE_CURVE ( 'NONE', #885, #650, #159, .T. ) ;
#310 = EDGE_CURVE ( 'NONE', #446, #662, #239, .T. ) ;
#311 = LINE ( 'NONE', #740, #87 ) ;
#312 = VERTEX_POINT ( 'NONE', #458 ) ;
#313 = ORIENTED_EDGE ( 'NONE', *, *, #217, .T. ) ;
#314 = DIRECTION ( 'NONE',  ( 0.000000000000000000, 0.000000000000000000, -1.000000000000000000 ) ) ;
#315 = ADVANCED_FACE ( 'NONE', ( #302, #99 ), #380, .F. ) ;
#316 = AXIS2_PLACEMENT_3D ( 'NONE', #512, #796, #133 ) ;
#317 = DIRECTION ( 'NONE',  ( -0.4999999999999981126, 0.8660254037844397068, 0.000000000000000000 ) ) ;
#318 = AXIS2_PLACEMENT_3D ( 'NONE', #587, #354, #490 ) ;
#319 = ORIENTED_EDGE ( 'NONE', *, *, #920, .T. ) ;
#320 = DIRECTION ( 'NONE',  ( 0.8660254037844395958, 0.4999999999999986122, 0.000000000000000000 ) ) ;
#321 = ORIENTED_EDGE ( 'NONE', *, *, #459, .T. ) ;
#322 = CARTESIAN_POINT ( 'NONE',  ( -2.823256902839993643, 0.000000000000000000, 0.000000000000000000 ) ) ;
#323 = ORIENTED_EDGE ( 'NONE', *, *, #249, .F. ) ;
#324 = DIRECTION ( 'NONE',  ( 0.000000000000000000, 0.000000000000000000, 1.000000000000000000 ) ) ;
#325 = ORIENTED_EDGE ( 'NONE', *, *, #309, .F. ) ;
#326 = EDGE_CURVE ( 'NONE', #576, #46, #383, .T. ) ;
#327 = CIRCLE ( 'NONE', #370, 4.000000000000000000 ) ;
#328 = PLANE ( 'NONE',  #500 ) ;
#329 = ADVANCED_FACE ( 'NONE', ( #376 ), #808, .F. ) ;
#330 = ORIENTED_EDGE ( 'NONE', *, *, #299, .T. ) ;
#331 = DIRECTION ( 'NONE',  ( 1.000000000000000000, 0.000000000000000000, 0.000000000000000000 ) ) ;
#332 = ORIENTED_EDGE ( 'NONE', *, *, #121, .F. ) ;
#333 = CYLINDRICAL_SURFACE ( 'NONE', #543, 7.999999999999992895 ) ;
#334 = CC_DESIGN_PERSON_AND_ORGANIZATION_ASSIGNMENT ( #780, #876, ( #844 ) ) ;
#335 = VECTOR ( 'NONE', #791, 1000.000000000000000 ) ;
#336 = EDGE_LOOP ( 'NONE', ( #583, #866, #400, #422 ) ) ;
#337 = CARTESIAN_POINT ( 'NONE',  ( -34.00017143907982131, -17.99999999999992895, 25.00000000000000000 ) ) ;
#338 = ORIENTED_EDGE ( 'NONE', *, *, #641, .F. ) ;
#339 = EDGE_CURVE ( 'NONE', #358, #94, #738, .T. ) ;
#340 = MECHANICAL_CONTEXT ( 'NONE', #887, 'mechanical' ) ;
#341 = DIRECTION ( 'NONE',  ( 0.8660254037844395958, 0.4999999999999981681, 0.000000000000000000 ) ) ;
#342 = LINE ( 'NONE', #266, #805 ) ;
#343 = CARTESIAN_POINT ( 'NONE',  ( -2.823256902839999416, 50.00000000000000000, 0.000000000000000000 ) ) ;
#344 = CARTESIAN_POINT ( 'NONE',  ( 0.1767430971599745493, -7.505553499465141165, 25.00000000000000000 ) ) ;
#345 = ORIENTED_EDGE ( 'NONE', *, *, #857, .F. ) ;
#346 = APPROVAL_ROLE ( '' ) ;
#347 = CARTESIAN_POINT ( 'NONE',  ( -42.00017143907981421, -17.99999999999992895, 10.00000000000000178 ) ) ;
#348 = AXIS2_PLACEMENT_3D ( 'NONE', #690, #830, #837 ) ;
#349 = CARTESIAN_POINT ( 'NONE',  ( -2.823256902839993643, 0.000000000000000000, 25.00000000000000000 ) ) ;
#350 = ORIENTED_EDGE ( 'NONE', *, *, #739, .F. ) ;
#351 = VECTOR ( 'NONE', #447, 1000.000000000000000 ) ;
#352 = CALENDAR_DATE ( 2026, 8, 8 ) ;
#353 = FACE_OUTER_BOUND ( 'NONE', #804, .T. ) ;
#354 = DIRECTION ( 'NONE',  ( -0.000000000000000000, -0.000000000000000000, -1.000000000000000000 ) ) ;
#355 = EDGE_LOOP ( 'NONE', ( #238, #604, #86, #555 ) ) ;
#356 = DIRECTION ( 'NONE',  ( -0.4999999999999981126, 0.8660254037844397068, 0.000000000000000000 ) ) ;
#357 = DIRECTION ( 'NONE',  ( -1.000000000000000000, 0.000000000000000000, 0.000000000000000000 ) ) ;
#358 = VERTEX_POINT ( 'NONE', #677 ) ;
#359 = EDGE_CURVE ( 'NONE', #737, #620, #529, .T. ) ;
#360 = CARTESIAN_POINT ( 'NONE',  ( -6.823256902840000748, 50.00000000000000000, 25.00000000000000000 ) ) ;
#361 = DIRECTION ( 'NONE',  ( 0.000000000000000000, 0.000000000000000000, 1.000000000000000000 ) ) ;
#362 = ORIENTED_EDGE ( 'NONE', *, *, #395, .F. ) ;
#363 = AXIS2_PLACEMENT_3D ( 'NONE', #126, #203, #419 ) ;
#364 = AXIS2_PLACEMENT_3D ( 'NONE', #337, #630, #924 ) ;
#365 = FACE_OUTER_BOUND ( 'NONE', #336, .T. ) ;
#366 = ORIENTED_EDGE ( 'NONE', *, *, #143, .T. ) ;
#367 = LINE ( 'NONE', #900, #351 ) ;
#368 = DIRECTION ( 'NONE',  ( -1.000000000000000000, 0.000000000000000000, 0.000000000000000000 ) ) ;
#369 = VERTEX_POINT ( 'NONE', #886 ) ;
#370 = AXIS2_PLACEMENT_3D ( 'NONE', #884, #452, #93 ) ;
#371 = APPROVAL ( #702, '未' ) ;
#372 = CIRCLE ( 'NONE', #298, 4.000000000000000000 ) ;
#373 = ADVANCED_FACE ( 'NONE', ( #681, #442, #153, #734 ), #755, .F. ) ;
#374 = FACE_OUTER_BOUND ( 'NONE', #438, .T. ) ;
#375 = ORIENTED_EDGE ( 'NONE', *, *, #44, .F. ) ;
#376 = FACE_OUTER_BOUND ( 'NONE', #82, .T. ) ;
#377 = CIRCLE ( 'NONE', #627, 4.000000000000000888 ) ;
#378 = DIRECTION ( 'NONE',  ( 0.000000000000000000, 0.000000000000000000, 1.000000000000000000 ) ) ;
#379 = ORIENTED_EDGE ( 'NONE', *, *, #7, .T. ) ;
#380 = PLANE ( 'NONE',  #936 ) ;
#381 = FACE_OUTER_BOUND ( 'NONE', #673, .T. ) ;
#382 = ORIENTED_EDGE ( 'NONE', *, *, #765, .F. ) ;
#383 = LINE ( 'NONE', #596, #180 ) ;
#384 = EDGE_CURVE ( 'NONE', #118, #256, #409, .T. ) ;
#385 = DIRECTION ( 'NONE',  ( -0.000000000000000000, -0.000000000000000000, -1.000000000000000000 ) ) ;
#386 = AXIS2_PLACEMENT_3D ( 'NONE', #925, #585, #636 ) ;
#387 = VERTEX_POINT ( 'NONE', #619 ) ;
#388 = CARTESIAN_POINT ( 'NONE',  ( -42.00017143907981421, -17.99999999999992895, 25.00000000000000000 ) ) ;
#389 = ORIENTED_EDGE ( 'NONE', *, *, #575, .F. ) ;
#390 = VECTOR ( 'NONE', #616, 1000.000000000000000 ) ;
#391 = CYLINDRICAL_SURFACE ( 'NONE', #914, 4.000000000000000000 ) ;
#392 = ORIENTED_EDGE ( 'NONE', *, *, #143, .F. ) ;
#393 = CARTESIAN_POINT ( 'NONE',  ( -34.00017143907982131, -17.99999999999992895, 25.00000000000000000 ) ) ;
#394 = AXIS2_PLACEMENT_3D ( 'NONE', #468, #476, #766 ) ;
#395 = EDGE_CURVE ( 'NONE', #879, #528, #789, .T. ) ;
#396 = DIRECTION ( 'NONE',  ( -1.000000000000000000, 0.000000000000000000, 0.000000000000000000 ) ) ;
#397 = EDGE_LOOP ( 'NONE', ( #911, #941, #524, #74 ) ) ;
#398 = CARTESIAN_POINT ( 'NONE',  ( -38.00017143907980710, -11.07179676972441484, 25.00000000000000000 ) ) ;
#399 = PRODUCT_DEFINITION_SHAPE ( 'NONE', 'NONE',  #844 ) ;
#400 = ORIENTED_EDGE ( 'NONE', *, *, #235, .F. ) ;
#401 = CARTESIAN_POINT ( 'NONE',  ( -38.00017143907982131, -17.99999999999992895, 25.00000000000000000 ) ) ;
#402 = EDGE_CURVE ( 'NONE', #101, #737, #342, .T. ) ;
#403 = EDGE_LOOP ( 'NONE', ( #78, #98, #164, #103, #654, #907, #491, #5, #251, #177 ) ) ;
#404 = DIRECTION ( 'NONE',  ( 0.4999999999999981126, -0.8660254037844397068, 0.000000000000000000 ) ) ;
#405 = ORIENTED_EDGE ( 'NONE', *, *, #930, .F. ) ;
#406 = CARTESIAN_POINT ( 'NONE',  ( -21.50730229968868557, -1.549634332387733071, 12.00000000000000178 ) ) ;
#407 = EDGE_CURVE ( 'NONE', #312, #829, #634, .T. ) ;
#408 = EDGE_LOOP ( 'NONE', ( #485, #27, #644, #375 ) ) ;
#409 = LINE ( 'NONE', #692, #425 ) ;
#410 = VECTOR ( 'NONE', #797, 1000.000000000000227 ) ;
#411 = EDGE_LOOP ( 'NONE', ( #708, #155, #508, #152 ) ) ;
#412 = DIRECTION ( 'NONE',  ( 0.8660254037844397068, 0.4999999999999983347, 0.000000000000000000 ) ) ;
#413 = COORDINATED_UNIVERSAL_TIME_OFFSET ( 8, 0, .AHEAD. ) ;
#414 = LINE ( 'NONE', #777, #335 ) ;
#415 = PLANE ( 'NONE',  #859 ) ;
#416 = ADVANCED_FACE ( 'NONE', ( #625 ), #698, .F. ) ;
#417 = VERTEX_POINT ( 'NONE', #388 ) ;
#418 = PERSON_AND_ORGANIZATION ( #898, #682 ) ;
#419 = DIRECTION ( 'NONE',  ( -1.270422204500949276E-16, -1.000000000000000000, 0.000000000000000000 ) ) ;
#420 = DIRECTION ( 'NONE',  ( -1.000000000000000000, 0.000000000000000000, 0.000000000000000000 ) ) ;
#421 = CIRCLE ( 'NONE', #15, 7.999999999999996447 ) ;
#422 = ORIENTED_EDGE ( 'NONE', *, *, #407, .T. ) ;
#423 = DATE_TIME_ROLE ( 'creation_date' ) ;
#424 = DIRECTION ( 'NONE',  ( 0.000000000000000000, 0.000000000000000000, 1.000000000000000000 ) ) ;
#425 = VECTOR ( 'NONE', #466, 1000.000000000000000 ) ;
#426 = DIRECTION ( 'NONE',  ( 1.000000000000000000, 0.000000000000000000, 0.000000000000000000 ) ) ;
#427 = ORIENTED_EDGE ( 'NONE', *, *, #503, .F. ) ;
#428 = CARTESIAN_POINT ( 'NONE',  ( -6.823256902839993643, 0.000000000000000000, 0.000000000000000000 ) ) ;
#429 = EDGE_CURVE ( 'NONE', #175, #842, #136, .T. ) ;
#430 = EDGE_CURVE ( 'NONE', #595, #293, #178, .T. ) ;
#431 = AXIS2_PLACEMENT_3D ( 'NONE', #406, #701, #412 ) ;
#432 = DATE_AND_TIME ( #63, #518 ) ;
#433 = DIRECTION ( 'NONE',  ( -0.000000000000000000, -0.000000000000000000, -1.000000000000000000 ) ) ;
#434 = DIRECTION ( 'NONE',  ( -0.4999999999999982792, 0.8660254037844397068, 0.000000000000000000 ) ) ;
#435 = ORIENTED_EDGE ( 'NONE', *, *, #827, .F. ) ;
#436 = DIRECTION ( 'NONE',  ( -1.000000000000000000, 0.000000000000000000, 0.000000000000000000 ) ) ;
#437 = FACE_OUTER_BOUND ( 'NONE', #915, .T. ) ;
#438 = EDGE_LOOP ( 'NONE', ( #222, #321, #280, #366 ) ) ;
#439 = LOCAL_TIME ( 21, 17, 56.00000000000000000, #572 ) ;
#440 = CARTESIAN_POINT ( 'NONE',  ( -34.00017143907982131, -17.99999999999992895, 10.00000000000000178 ) ) ;
#441 = EDGE_LOOP ( 'NONE', ( #313, #684 ) ) ;
#442 = FACE_BOUND ( 'NONE', #441, .T. ) ;
#443 = AXIS2_PLACEMENT_3D ( 'NONE', #580, #637, #208 ) ;
#444 = AXIS2_PLACEMENT_3D ( 'NONE', #719, #204, #127 ) ;
#445 = LINE ( 'NONE', #675, #815 ) ;
#446 = VERTEX_POINT ( 'NONE', #906 ) ;
#447 = DIRECTION ( 'NONE',  ( -0.000000000000000000, -0.000000000000000000, -1.000000000000000000 ) ) ;
#448 = DIRECTION ( 'NONE',  ( -0.000000000000000000, -0.000000000000000000, -1.000000000000000000 ) ) ;
#449 = EDGE_LOOP ( 'NONE', ( #265, #142, #382, #935 ) ) ;
#450 = AXIS2_PLACEMENT_3D ( 'NONE', #291, #456, #527 ) ;
#451 = VECTOR ( 'NONE', #179, 1000.000000000000000 ) ;
#452 = DIRECTION ( 'NONE',  ( 0.000000000000000000, 0.000000000000000000, 1.000000000000000000 ) ) ;
#453 = VERTEX_POINT ( 'NONE', #41 ) ;
#454 = CYLINDRICAL_SURFACE ( 'NONE', #308, 4.000000000000000000 ) ;
#455 = AXIS2_PLACEMENT_3D ( 'NONE', #781, #268, #864 ) ;
#456 = DIRECTION ( 'NONE',  ( 0.000000000000000000, 0.000000000000000000, 1.000000000000000000 ) ) ;
#457 = ORIENTED_EDGE ( 'NONE', *, *, #649, .T. ) ;
#458 = CARTESIAN_POINT ( 'NONE',  ( -10.82325690284000430, 50.00000000000000000, 25.00000000000000000 ) ) ;
#459 = EDGE_CURVE ( 'NONE', #94, #453, #849, .T. ) ;
#460 = ADVANCED_FACE ( 'NONE', ( #480 ), #540, .F. ) ;
#461 = DIRECTION ( 'NONE',  ( -0.000000000000000000, -0.000000000000000000, -1.000000000000000000 ) ) ;
#462 = ORIENTED_EDGE ( 'NONE', *, *, #402, .T. ) ;
#463 = DIRECTION ( 'NONE',  ( 0.000000000000000000, 0.000000000000000000, 1.000000000000000000 ) ) ;
#464 = DIRECTION ( 'NONE',  ( 1.000000000000000000, 0.000000000000000000, 0.000000000000000000 ) ) ;
#465 = ORIENTED_EDGE ( 'NONE', *, *, #240, .T. ) ;
#466 = DIRECTION ( 'NONE',  ( -0.000000000000000000, -0.000000000000000000, 1.000000000000000000 ) ) ;
#467 = EDGE_CURVE ( 'NONE', #60, #905, #182, .T. ) ;
#468 = CARTESIAN_POINT ( 'NONE',  ( -2.823256902839999416, 50.00000000000000000, 0.000000000000000000 ) ) ;
#469 = PRODUCT ( 'connecting rod1', 'connecting rod1', '', ( #340 ) ) ;
#470 = VECTOR ( 'NONE', #31, 1000.000000000000000 ) ;
#471 = CARTESIAN_POINT ( 'NONE',  ( -34.00017143907982131, -17.99999999999992895, 25.00000000000000000 ) ) ;
#472 = ORIENTED_EDGE ( 'NONE', *, *, #835, .T. ) ;
#473 = CARTESIAN_POINT ( 'NONE',  ( -13.50730229968870688, -15.40604079293874840, 13.00000000000000711 ) ) ;
#474 = CIRCLE ( 'NONE', #236, 4.000000000000000000 ) ;
#475 = ORIENTED_EDGE ( 'NONE', *, *, #73, .F. ) ;
#476 = DIRECTION ( 'NONE',  ( 0.000000000000000000, 0.000000000000000000, 1.000000000000000000 ) ) ;
#477 = EDGE_CURVE ( 'NONE', #158, #135, #918, .T. ) ;
#478 = CARTESIAN_POINT ( 'NONE',  ( -6.823256902839993643, 0.000000000000000000, 25.00000000000000000 ) ) ;
#479 = EDGE_LOOP ( 'NONE', ( #816, #472, #90, #325 ) ) ;
#480 = FACE_OUTER_BOUND ( 'NONE', #799, .T. ) ;
#481 = ORIENTED_EDGE ( 'NONE', *, *, #839, .F. ) ;
#482 = CC_DESIGN_PERSON_AND_ORGANIZATION_ASSIGNMENT ( #510, #795, ( #469 ) ) ;
#483 = CARTESIAN_POINT ( 'NONE',  ( 1.176743097160006579, 4.898587196589412829E-16, 25.00000000000000000 ) ) ;
#484 = APPROVAL_PERSON_ORGANIZATION ( #144, #674, #710 ) ;
#485 = ORIENTED_EDGE ( 'NONE', *, *, #678, .F. ) ;
#486 = CARTESIAN_POINT ( 'NONE',  ( -11.77525149211983369, -14.40604079293875728, 12.99999999999997513 ) ) ;
#487 = EDGE_CURVE ( 'NONE', #624, #60, #259, .T. ) ;
#488 = DATE_TIME_ROLE ( 'classification_date' ) ;
#489 = CARTESIAN_POINT ( 'NONE',  ( 0.1767430971599745493, -7.505553499465141165, 25.00000000000000000 ) ) ;
#490 = DIRECTION ( 'NONE',  ( -1.000000000000000000, 0.000000000000000000, 0.000000000000000000 ) ) ;
#491 = ORIENTED_EDGE ( 'NONE', *, *, #564, .T. ) ;
#492 = APPROVAL_STATUS ( 'not_yet_approved' ) ;
#493 = DIRECTION ( 'NONE',  ( -1.000000000000000000, 0.000000000000000000, 0.000000000000000000 ) ) ;
#494 = CARTESIAN_POINT ( 'NONE',  ( -34.00017143907982131, -17.99999999999992895, 25.00000000000000000 ) ) ;
#495 = EDGE_LOOP ( 'NONE', ( #389, #600, #848, #288 ) ) ;
#496 = APPLICATION_PROTOCOL_DEFINITION ( 'international standard', 'config_control_design', 1994, #887 ) ;
#497 = CIRCLE ( 'NONE', #210, 7.999999999999992895 ) ;
#498 = DIRECTION ( 'NONE',  ( 0.4999999999999981126, -0.8660254037844397068, -0.000000000000000000 ) ) ;
#499 = DIRECTION ( 'NONE',  ( -0.000000000000000000, -0.000000000000000000, -1.000000000000000000 ) ) ;
#500 = AXIS2_PLACEMENT_3D ( 'NONE', #538, #110, #834 ) ;
#501 = EDGE_CURVE ( 'NONE', #175, #108, #912, .T. ) ;
#502 = ORIENTED_EDGE ( 'NONE', *, *, #857, .T. ) ;
#503 = EDGE_CURVE ( 'NONE', #686, #541, #735, .T. ) ;
#504 = SECURITY_CLASSIFICATION_LEVEL ( 'unclassified' ) ;
#505 = CARTESIAN_POINT ( 'NONE',  ( -13.50730229968870688, -15.40604079293875195, 15.00000000000000711 ) ) ;
#506 = FACE_BOUND ( 'NONE', #689, .T. ) ;
#507 = CIRCLE ( 'NONE', #316, 4.000000000000000000 ) ;
#508 = ORIENTED_EDGE ( 'NONE', *, *, #631, .F. ) ;
#509 = CC_DESIGN_PERSON_AND_ORGANIZATION_ASSIGNMENT ( #206, #132, ( #803 ) ) ;
#510 = PERSON_AND_ORGANIZATION ( #898, #682 ) ;
#511 = EDGE_CURVE ( 'NONE', #576, #873, #764, .T. ) ;
#512 = CARTESIAN_POINT ( 'NONE',  ( -34.00017143907982131, -17.99999999999992895, 15.00000000000000533 ) ) ;
#513 = DIRECTION ( 'NONE',  ( 1.000000000000000000, 0.000000000000000000, -0.000000000000000000 ) ) ;
#514 = ORIENTED_EDGE ( 'NONE', *, *, #765, .T. ) ;
#515 = LINE ( 'NONE', #727, #32 ) ;
#516 = DIRECTION ( 'NONE',  ( 0.4999999999999981126, -0.8660254037844397068, 0.000000000000000000 ) ) ;
#517 = ORIENTED_EDGE ( 'NONE', *, *, #649, .F. ) ;
#518 = LOCAL_TIME ( 21, 17, 56.00000000000000000, #937 ) ;
#519 = DIRECTION ( 'NONE',  ( -0.000000000000000000, -0.000000000000000000, -1.000000000000000000 ) ) ;
#520 = AXIS2_PLACEMENT_3D ( 'NONE', #927, #404, #320 ) ;
#521 = ORIENTED_EDGE ( 'NONE', *, *, #34, .T. ) ;
#522 = VECTOR ( 'NONE', #212, 1000.000000000000000 ) ;
#523 = DIRECTION ( 'NONE',  ( 0.000000000000000000, 0.000000000000000000, 1.000000000000000000 ) ) ;
#524 = ORIENTED_EDGE ( 'NONE', *, *, #477, .T. ) ;
#525 = DIRECTION ( 'NONE',  ( 1.000000000000000000, 0.000000000000000000, 0.000000000000000000 ) ) ;
#526 = ADVANCED_BREP_SHAPE_REPRESENTATION ( 'connecting rod1', ( #597, #386 ), #1 ) ;
#527 = DIRECTION ( 'NONE',  ( 1.000000000000000000, 0.000000000000000000, 0.000000000000000000 ) ) ;
#528 = VERTEX_POINT ( 'NONE', #187 ) ;
#529 = LINE ( 'NONE', #817, #549 ) ;
#530 = EDGE_CURVE ( 'NONE', #60, #624, #903, .T. ) ;
#531 = CARTESIAN_POINT ( 'NONE',  ( -4.823256902840003413, 1.154700538379259456, 25.00000000000000000 ) ) ;
#532 = ORIENTED_EDGE ( 'NONE', *, *, #699, .F. ) ;
#533 = CARTESIAN_POINT ( 'NONE',  ( -30.00017143907984263, -24.92820323027544660, 0.000000000000000000 ) ) ;
#534 = VECTOR ( 'NONE', #934, 999.9999999999998863 ) ;
#535 = CARTESIAN_POINT ( 'NONE',  ( -30.00017143907982486, -17.99999999999992895, 15.00000000000000533 ) ) ;
#536 = VERTEX_POINT ( 'NONE', #193 ) ;
#537 = DIRECTION ( 'NONE',  ( -1.000000000000000000, 0.000000000000000000, 0.000000000000000000 ) ) ;
#538 = CARTESIAN_POINT ( 'NONE',  ( -38.00017143907980710, -11.07179676972441484, 25.00000000000000000 ) ) ;
#539 = ORIENTED_EDGE ( 'NONE', *, *, #467, .T. ) ;
#540 = CYLINDRICAL_SURFACE ( 'NONE', #348, 3.999999999999996447 ) ;
#541 = VERTEX_POINT ( 'NONE', #486 ) ;
#542 = AXIS2_PLACEMENT_3D ( 'NONE', #494, #782, #420 ) ;
#543 = AXIS2_PLACEMENT_3D ( 'NONE', #471, #385, #683 ) ;
#544 = CARTESIAN_POINT ( 'NONE',  ( 1.176743097160001472, 50.00000000000000000, 0.000000000000000000 ) ) ;
#545 = ORIENTED_EDGE ( 'NONE', *, *, #61, .T. ) ;
#546 = DIRECTION ( 'NONE',  ( -0.000000000000000000, -0.000000000000000000, -1.000000000000000000 ) ) ;
#547 = CARTESIAN_POINT ( 'NONE',  ( -21.50730229968867135, -1.549634332387719082, 13.00000000000000711 ) ) ;
#548 = ADVANCED_FACE ( 'NONE', ( #773 ), #581, .T. ) ;
#549 = VECTOR ( 'NONE', #24, 1000.000000000000000 ) ;
#550 = FACE_OUTER_BOUND ( 'NONE', #403, .T. ) ;
#551 = VERTEX_POINT ( 'NONE', #77 ) ;
#552 = DIRECTION ( 'NONE',  ( -0.8660254037844395958, -0.4999999999999981126, -0.000000000000000000 ) ) ;
#553 = CIRCLE ( 'NONE', #431, 1.999999999999999334 ) ;
#554 = CARTESIAN_POINT ( 'NONE',  ( 5.176743097160003693, 50.00000000000000000, 25.00000000000000000 ) ) ;
#555 = ORIENTED_EDGE ( 'NONE', *, *, #292, .T. ) ;
#556 = CARTESIAN_POINT ( 'NONE',  ( -10.82325690284000430, 50.00000000000000000, 25.00000000000000000 ) ) ;
#557 = DIRECTION ( 'NONE',  ( 0.8660254037844397068, 0.4999999999999983347, 0.000000000000000000 ) ) ;
#558 = APPLICATION_PROTOCOL_DEFINITION ( 'international standard', 'config_control_design', 1994, #113 ) ;
#559 = AXIS2_PLACEMENT_3D ( 'NONE', #186, #633, #877 ) ;
#560 = LOCAL_TIME ( 21, 17, 56.00000000000000000, #413 ) ;
#561 = CARTESIAN_POINT ( 'NONE',  ( -19.77525149211981059, -0.5496343323877341813, 11.99999999999997158 ) ) ;
#562 = DIRECTION ( 'NONE',  ( -0.000000000000000000, -0.000000000000000000, -1.000000000000000000 ) ) ;
#563 = ORIENTED_EDGE ( 'NONE', *, *, #226, .F. ) ;
#564 = EDGE_CURVE ( 'NONE', #46, #620, #728, .T. ) ;
#565 = DATE_AND_TIME ( #870, #439 ) ;
#566 = CIRCLE ( 'NONE', #856, 8.000000000000003553 ) ;
#567 = FACE_OUTER_BOUND ( 'NONE', #733, .T. ) ;
#568 = DIRECTION ( 'NONE',  ( 1.000000000000000000, 0.000000000000000000, 0.000000000000000000 ) ) ;
#569 = AXIS2_PLACEMENT_3D ( 'NONE', #4, #361, #426 ) ;
#570 = ORIENTED_EDGE ( 'NONE', *, *, #84, .F. ) ;
#571 = CIRCLE ( 'NONE', #394, 8.000000000000003553 ) ;
#572 = COORDINATED_UNIVERSAL_TIME_OFFSET ( 8, 0, .AHEAD. ) ;
#573 = CARTESIAN_POINT ( 'NONE',  ( -12.82325690283999897, 3.464101615137769485, 0.000000000000000000 ) ) ;
#574 = FACE_OUTER_BOUND ( 'NONE', #725, .T. ) ;
#575 = EDGE_CURVE ( 'NONE', #417, #595, #659, .T. ) ;
#576 = VERTEX_POINT ( 'NONE', #656 ) ;
#577 = DIRECTION ( 'NONE',  ( 1.000000000000000000, 0.000000000000000000, 0.000000000000000000 ) ) ;
#578 = DATE_AND_TIME ( #277, #850 ) ;
#579 = AXIS2_PLACEMENT_3D ( 'NONE', #606, #224, #163 ) ;
#580 = CARTESIAN_POINT ( 'NONE',  ( -13.50730229968872109, -15.40604079293875905, 12.00000000000000178 ) ) ;
#581 = CYLINDRICAL_SURFACE ( 'NONE', #703, 8.000000000000003553 ) ;
#582 = VECTOR ( 'NONE', #117, 1000.000000000000000 ) ;
#583 = ORIENTED_EDGE ( 'NONE', *, *, #699, .T. ) ;
#584 = ADVANCED_FACE ( 'NONE', ( #792 ), #65, .T. ) ;
#585 = DIRECTION ( 'NONE',  ( 0.000000000000000000, 0.000000000000000000, 1.000000000000000000 ) ) ;
#586 = FACE_OUTER_BOUND ( 'NONE', #228, .T. ) ;
#587 = CARTESIAN_POINT ( 'NONE',  ( -34.00017143907982131, -17.99999999999992895, 25.00000000000000000 ) ) ;
#588 = ADVANCED_FACE ( 'NONE', ( #778, #216, #9, #506 ), #853, .T. ) ;
#589 = VERTEX_POINT ( 'NONE', #648 ) ;
#590 = DIRECTION ( 'NONE',  ( 0.000000000000000000, -0.000000000000000000, -1.000000000000000000 ) ) ;
#591 = CARTESIAN_POINT ( 'NONE',  ( -13.50730229968870333, -15.40604079293874662, 15.00000000000000711 ) ) ;
#592 = ORIENTED_EDGE ( 'NONE', *, *, #730, .F. ) ;
#593 = ADVANCED_FACE ( 'NONE', ( #574 ), #415, .F. ) ;
#594 = CARTESIAN_POINT ( 'NONE',  ( -14.82325690283999720, 6.928203230275524760, 25.00000000000000000 ) ) ;
#595 = VERTEX_POINT ( 'NONE', #134 ) ;
#596 = CARTESIAN_POINT ( 'NONE',  ( -12.82325690284000430, 3.464101615137765933, 0.000000000000000000 ) ) ;
#597 = MANIFOLD_SOLID_BREP ( '\X2\570689d2\X0\3', #802 ) ;
#598 = DIRECTION ( 'NONE',  ( 0.000000000000000000, -0.000000000000000000, -1.000000000000000000 ) ) ;
#599 = VECTOR ( 'NONE', #843, 1000.000000000000000 ) ;
#600 = ORIENTED_EDGE ( 'NONE', *, *, #658, .T. ) ;
#601 = ADVANCED_FACE ( 'NONE', ( #55 ), #146, .T. ) ;
#602 = CIRCLE ( 'NONE', #184, 4.000000000000000000 ) ;
#603 = CARTESIAN_POINT ( 'NONE',  ( -42.00017143907981421, -17.99999999999992895, 15.00000000000000533 ) ) ;
#604 = ORIENTED_EDGE ( 'NONE', *, *, #730, .T. ) ;
#605 = ADVANCED_FACE ( 'NONE', ( #724 ), #72, .F. ) ;
#606 = CARTESIAN_POINT ( 'NONE',  ( -32.80500381171530933, -47.92877180213123012, 15.00000000000000355 ) ) ;
#607 = CC_DESIGN_PERSON_AND_ORGANIZATION_ASSIGNMENT ( #418, #57, ( #272 ) ) ;
#608 = ORIENTED_EDGE ( 'NONE', *, *, #487, .F. ) ;
#609 = CC_DESIGN_APPROVAL ( #2, ( #272 ) ) ;
#610 =( NAMED_UNIT ( * ) PLANE_ANGLE_UNIT ( ) SI_UNIT ( $, .RADIAN. ) );
#611 = ORIENTED_EDGE ( 'NONE', *, *, #658, .F. ) ;
#612 = AXIS2_PLACEMENT_3D ( 'NONE', #647, #3, #933 ) ;
#613 = VECTOR ( 'NONE', #546, 1000.000000000000000 ) ;
#614 = FACE_OUTER_BOUND ( 'NONE', #397, .T. ) ;
#615 = ORIENTED_EDGE ( 'NONE', *, *, #809, .F. ) ;
#616 = DIRECTION ( 'NONE',  ( -0.000000000000000000, -0.000000000000000000, -1.000000000000000000 ) ) ;
#617 = CARTESIAN_POINT ( 'NONE',  ( -30.00017143907982486, -17.99999999999992895, 25.00000000000000000 ) ) ;
#618 = ORIENTED_EDGE ( 'NONE', *, *, #191, .T. ) ;
#619 = CARTESIAN_POINT ( 'NONE',  ( 5.176743097159997475, 1.154700538379259456, 25.00000000000000000 ) ) ;
#620 = VERTEX_POINT ( 'NONE', #945 ) ;
#621 = CIRCLE ( 'NONE', #450, 4.000000000000000888 ) ;
#622 = VECTOR ( 'NONE', #104, 1000.000000000000000 ) ;
#623 = DIRECTION ( 'NONE',  ( 0.000000000000000000, 0.000000000000000000, 1.000000000000000000 ) ) ;
#624 = VERTEX_POINT ( 'NONE', #282 ) ;
#625 = FACE_OUTER_BOUND ( 'NONE', #129, .T. ) ;
#626 = DIRECTION ( 'NONE',  ( 0.4999999999999981126, -0.8660254037844397068, 0.000000000000000000 ) ) ;
#627 = AXIS2_PLACEMENT_3D ( 'NONE', #343, #926, #220 ) ;
#628 = LINE ( 'NONE', #401, #451 ) ;
#629 = VERTEX_POINT ( 'NONE', #209 ) ;
#630 = DIRECTION ( 'NONE',  ( 0.000000000000000000, 0.000000000000000000, 1.000000000000000000 ) ) ;
#631 = EDGE_CURVE ( 'NONE', #923, #662, #289, .T. ) ;
#632 = APPROVAL_ROLE ( '' ) ;
#633 = DIRECTION ( 'NONE',  ( -8.591118992280613437E-17, -4.960084862833294339E-17, 1.000000000000000000 ) ) ;
#634 = LINE ( 'NONE', #556, #390 ) ;
#635 = VERTEX_POINT ( 'NONE', #344 ) ;
#636 = DIRECTION ( 'NONE',  ( 1.000000000000000000, 0.000000000000000000, 0.000000000000000000 ) ) ;
#637 = DIRECTION ( 'NONE',  ( -0.4999999999999983347, 0.8660254037844398178, 0.000000000000000000 ) ) ;
#638 = CARTESIAN_POINT ( 'NONE',  ( -2.823256902839999416, 50.00000000000000000, 25.00000000000000000 ) ) ;
#639 = ORIENTED_EDGE ( 'NONE', *, *, #946, .T. ) ;
#640 = AXIS2_PLACEMENT_3D ( 'NONE', #51, #463, #119 ) ;
#641 = EDGE_CURVE ( 'NONE', #293, #686, #221, .T. ) ;
#642 = LINE ( 'NONE', #505, #875 ) ;
#643 = CARTESIAN_POINT ( 'NONE',  ( -42.00017143907981421, -17.99999999999992895, 25.00000000000000000 ) ) ;
#644 = ORIENTED_EDGE ( 'NONE', *, *, #501, .T. ) ;
#645 = CIRCLE ( 'NONE', #109, 1.999999999999999334 ) ;
#646 = COORDINATED_UNIVERSAL_TIME_OFFSET ( 8, 0, .AHEAD. ) ;
#647 = CARTESIAN_POINT ( 'NONE',  ( -34.00017143907982131, -17.99999999999992895, 25.00000000000000000 ) ) ;
#648 = CARTESIAN_POINT ( 'NONE',  ( -42.00017143907981421, -17.99999999999992895, 0.000000000000000000 ) ) ;
#649 = EDGE_CURVE ( 'NONE', #528, #879, #10, .T. ) ;
#650 = VERTEX_POINT ( 'NONE', #787 ) ;
#651 = ADVANCED_FACE ( 'NONE', ( #437 ), #861, .F. ) ;
#652 = CARTESIAN_POINT ( 'NONE',  ( -34.00017143907982131, -17.99999999999992895, 15.00000000000000533 ) ) ;
#653 = CARTESIAN_POINT ( 'NONE',  ( -2.823256902839999416, 50.00000000000000000, 25.00000000000000000 ) ) ;
#654 = ORIENTED_EDGE ( 'NONE', *, *, #511, .F. ) ;
#655 = DIRECTION ( 'NONE',  ( 0.8660254037844397068, 0.4999999999999981681, 9.920169725666624424E-17 ) ) ;
#656 = CARTESIAN_POINT ( 'NONE',  ( -12.82325690283999897, 3.464101615137769485, 25.00000000000000000 ) ) ;
#657 = ORIENTED_EDGE ( 'NONE', *, *, #818, .T. ) ;
#658 = EDGE_CURVE ( 'NONE', #417, #700, #59, .T. ) ;
#659 = CIRCLE ( 'NONE', #569, 7.999999999999996447 ) ;
#660 = CARTESIAN_POINT ( 'NONE',  ( -10.82325690284000430, 50.00000000000000000, 25.00000000000000000 ) ) ;
#661 = ADVANCED_FACE ( 'NONE', ( #365 ), #895, .F. ) ;
#662 = VERTEX_POINT ( 'NONE', #801 ) ;
#663 = CARTESIAN_POINT ( 'NONE',  ( 5.176743097160003693, 50.00000000000000000, 25.00000000000000000 ) ) ;
#664 = DIRECTION ( 'NONE',  ( -1.529023964369637985E-16, 1.000000000000000000, 0.000000000000000000 ) ) ;
#665 = CIRCLE ( 'NONE', #784, 4.000000000000000000 ) ;
#666 = ORIENTED_EDGE ( 'NONE', *, *, #745, .T. ) ;
#667 = DIRECTION ( 'NONE',  ( 0.8660254037844395958, 0.4999999999999981681, 0.000000000000000000 ) ) ;
#668 = ADVANCED_FACE ( 'NONE', ( #374 ), #227, .F. ) ;
#669 = UNCERTAINTY_MEASURE_WITH_UNIT (LENGTH_MEASURE( 1.000000000000000082E-05 ), #190, 'distance_accuracy_value', 'NONE');
#670 = EDGE_CURVE ( 'NONE', #842, #175, #621, .T. ) ;
#671 = FACE_BOUND ( 'NONE', #680, .T. ) ;
#672 = VECTOR ( 'NONE', #307, 1000.000000000000000 ) ;
#673 = EDGE_LOOP ( 'NONE', ( #199, #521, #338, #729, #36 ) ) ;
#674 = APPROVAL ( #137, '未' ) ;
#675 = CARTESIAN_POINT ( 'NONE',  ( -30.00017143907984263, -24.92820323027544660, 25.00000000000000000 ) ) ;
#676 = ORIENTED_EDGE ( 'NONE', *, *, #670, .F. ) ;
#677 = CARTESIAN_POINT ( 'NONE',  ( -19.77525149211979638, -0.5496343323877266318, 12.99999999999997513 ) ) ;
#678 = EDGE_CURVE ( 'NONE', #842, #896, #154, .T. ) ;
#679 = FACE_OUTER_BOUND ( 'NONE', #30, .T. ) ;
#680 = EDGE_LOOP ( 'NONE', ( #691, #379 ) ) ;
#681 = FACE_OUTER_BOUND ( 'NONE', #899, .T. ) ;
#682 = ORGANIZATION ( '未', '未', '' ) ;
#683 = DIRECTION ( 'NONE',  ( -1.000000000000000000, 0.000000000000000000, 0.000000000000000000 ) ) ;
#684 = ORIENTED_EDGE ( 'NONE', *, *, #44, .T. ) ;
#685 = CARTESIAN_POINT ( 'NONE',  ( -30.00017143907984263, -24.92820323027544660, 25.00000000000000000 ) ) ;
#686 = VERTEX_POINT ( 'NONE', #591 ) ;
#687 = LINE ( 'NONE', #617, #582 ) ;
#688 = AXIS2_PLACEMENT_3D ( 'NONE', #271, #855, #577 ) ;
#689 = EDGE_LOOP ( 'NONE', ( #608, #779 ) ) ;
#690 = CARTESIAN_POINT ( 'NONE',  ( -34.00017143907982131, -17.99999999999992895, 25.00000000000000000 ) ) ;
#691 = ORIENTED_EDGE ( 'NONE', *, *, #84, .T. ) ;
#692 = CARTESIAN_POINT ( 'NONE',  ( -10.82325690283999720, 6.928203230275525648, 25.00000000000000000 ) ) ;
#693 = ORIENTED_EDGE ( 'NONE', *, *, #767, .T. ) ;
#694 = AXIS2_PLACEMENT_3D ( 'NONE', #157, #814, #18 ) ;
#695 = VECTOR ( 'NONE', #317, 1000.000000000000000 ) ;
#696 = CARTESIAN_POINT ( 'NONE',  ( 5.176743097160003693, 50.00000000000000000, 25.00000000000000000 ) ) ;
#697 = EDGE_LOOP ( 'NONE', ( #618, #893, #332, #783 ) ) ;
#698 = CYLINDRICAL_SURFACE ( 'NONE', #520, 2.000000000000000444 ) ;
#699 = EDGE_CURVE ( 'NONE', #829, #118, #12, .T. ) ;
#700 = VERTEX_POINT ( 'NONE', #603 ) ;
#701 = DIRECTION ( 'NONE',  ( 0.4999999999999981126, -0.8660254037844397068, 0.000000000000000000 ) ) ;
#702 = APPROVAL_STATUS ( 'not_yet_approved' ) ;
#703 = AXIS2_PLACEMENT_3D ( 'NONE', #638, #140, #123 ) ;
#704 = CARTESIAN_POINT ( 'NONE',  ( -30.00017143907982486, -17.99999999999992895, 25.00000000000000000 ) ) ;
#705 = DIRECTION ( 'NONE',  ( 0.000000000000000000, 0.000000000000000000, 1.000000000000000000 ) ) ;
#706 = CARTESIAN_POINT ( 'NONE',  ( -21.50730229968867491, -1.549634332387719082, 15.00000000000000711 ) ) ;
#707 = CARTESIAN_POINT ( 'NONE',  ( -30.00017143907984263, -24.92820323027544660, 25.00000000000000000 ) ) ;
#708 = ORIENTED_EDGE ( 'NONE', *, *, #767, .F. ) ;
#709 = CIRCLE ( 'NONE', #832, 7.999999999999996447 ) ;
#710 = APPROVAL_ROLE ( '' ) ;
#711 = CYLINDRICAL_SURFACE ( 'NONE', #260, 3.999999999999996447 ) ;
#712 = DIRECTION ( 'NONE',  ( -0.8660254037844395958, -0.4999999999999982236, 0.000000000000000000 ) ) ;
#713 = VERTEX_POINT ( 'NONE', #97 ) ;
#714 = DIRECTION ( 'NONE',  ( 1.529023964369637738E-16, -1.000000000000000000, 0.000000000000000000 ) ) ;
#715 = AXIS2_PLACEMENT_3D ( 'NONE', #156, #20, #537 ) ;
#716 = PERSON_AND_ORGANIZATION_ROLE ( 'design_supplier' ) ;
#717 = EDGE_CURVE ( 'NONE', #541, #453, #311, .T. ) ;
#718 = DIRECTION ( 'NONE',  ( 1.000000000000000000, 0.000000000000000000, 0.000000000000000000 ) ) ;
#719 = CARTESIAN_POINT ( 'NONE',  ( -4.823256902840003413, 1.154700538379259456, 25.00000000000000000 ) ) ;
#720 = ORIENTED_EDGE ( 'NONE', *, *, #631, .T. ) ;
#721 = DIRECTION ( 'NONE',  ( 1.000000000000000000, 0.000000000000000000, 0.000000000000000000 ) ) ;
#722 = VECTOR ( 'NONE', #296, 1000.000000000000000 ) ;
#723 = LINE ( 'NONE', #71, #200 ) ;
#724 = FACE_OUTER_BOUND ( 'NONE', #408, .T. ) ;
#725 = EDGE_LOOP ( 'NONE', ( #774, #836, #170, #743, #757, #211, #218, #261, #183, #205 ) ) ;
#726 = DIRECTION ( 'NONE',  ( 0.000000000000000000, 0.000000000000000000, 1.000000000000000000 ) ) ;
#727 = CARTESIAN_POINT ( 'NONE',  ( -50.06333406091292915, -18.03646695671796607, 15.00000000000000355 ) ) ;
#728 = LINE ( 'NONE', #872, #410 ) ;
#729 = ORIENTED_EDGE ( 'NONE', *, *, #150, .F. ) ;
#730 = EDGE_CURVE ( 'NONE', #111, #737, #868, .T. ) ;
#731 = CARTESIAN_POINT ( 'NONE',  ( -34.00017143907982131, -17.99999999999992895, 0.000000000000000000 ) ) ;
#732 = AXIS2_PLACEMENT_3D ( 'NONE', #652, #286, #880 ) ;
#733 = EDGE_LOOP ( 'NONE', ( #862, #754, #657, #350 ) ) ;
#734 = FACE_BOUND ( 'NONE', #793, .T. ) ;
#735 = CIRCLE ( 'NONE', #776, 2.000000000000001332 ) ;
#736 = CARTESIAN_POINT ( 'NONE',  ( -38.00017143907981421, -11.07179676972441840, 10.00000000000000178 ) ) ;
#737 = VERTEX_POINT ( 'NONE', #736 ) ;
#738 = LINE ( 'NONE', #165, #672 ) ;
#739 = EDGE_CURVE ( 'NONE', #760, #446, #445, .T. ) ;
#740 = CARTESIAN_POINT ( 'NONE',  ( -11.77525149211966848, -14.40604079293866135, 24.99999999999966960 ) ) ;
#741 = AXIS2_PLACEMENT_3D ( 'NONE', #85, #881, #232 ) ;
#742 = CIRCLE ( 'NONE', #255, 4.000000000000000000 ) ;
#743 = ORIENTED_EDGE ( 'NONE', *, *, #717, .T. ) ;
#744 = CARTESIAN_POINT ( 'NONE',  ( -2.516921242922222302, -30.44193917780101089, 10.00000000000000178 ) ) ;
#745 = EDGE_CURVE ( 'NONE', #536, #700, #14, .T. ) ;
#746 = PLANE ( 'NONE',  #579 ) ;
#747 = ORIENTED_EDGE ( 'NONE', *, *, #191, .F. ) ;
#748 = CARTESIAN_POINT ( 'NONE',  ( -2.823256902839993643, 0.000000000000000000, 0.000000000000000000 ) ) ;
#749 = ADVANCED_FACE ( 'NONE', ( #671, #381 ), #746, .F. ) ;
#750 = CARTESIAN_POINT ( 'NONE',  ( -10.82325690284000430, 50.00000000000000000, 0.000000000000000000 ) ) ;
#751 = ORIENTED_EDGE ( 'NONE', *, *, #942, .T. ) ;
#752 = FACE_OUTER_BOUND ( 'NONE', #807, .T. ) ;
#753 = EDGE_CURVE ( 'NONE', #713, #135, #665, .T. ) ;
#754 = ORIENTED_EDGE ( 'NONE', *, *, #264, .T. ) ;
#755 = PLANE ( 'NONE',  #640 ) ;
#756 = CARTESIAN_POINT ( 'NONE',  ( -21.50730229968868557, -1.549634332387733071, 10.00000000000000178 ) ) ;
#757 = ORIENTED_EDGE ( 'NONE', *, *, #96, .T. ) ;
#758 = DIRECTION ( 'NONE',  ( -0.000000000000000000, -0.000000000000000000, -1.000000000000000000 ) ) ;
#759 = AXIS2_PLACEMENT_3D ( 'NONE', #393, #324, #331 ) ;
#760 = VERTEX_POINT ( 'NONE', #300 ) ;
#761 = DIRECTION ( 'NONE',  ( 0.000000000000000000, 0.000000000000000000, 1.000000000000000000 ) ) ;
#762 = CIRCLE ( 'NONE', #66, 7.999999999999996447 ) ;
#763 = ORIENTED_EDGE ( 'NONE', *, *, #96, .F. ) ;
#764 = LINE ( 'NONE', #398, #81 ) ;
#765 = EDGE_CURVE ( 'NONE', #46, #118, #327, .T. ) ;
#766 = DIRECTION ( 'NONE',  ( 1.000000000000000000, 0.000000000000000000, 0.000000000000000000 ) ) ;
#767 = EDGE_CURVE ( 'NONE', #635, #387, #297, .T. ) ;
#768 = LINE ( 'NONE', #696, #869 ) ;
#769 = ORIENTED_EDGE ( 'NONE', *, *, #429, .T. ) ;
#770 = CARTESIAN_POINT ( 'NONE',  ( -30.00017143907982486, -17.99999999999992895, 25.00000000000000000 ) ) ;
#771 = FACE_OUTER_BOUND ( 'NONE', #355, .T. ) ;
#772 = ORIENTED_EDGE ( 'NONE', *, *, #292, .F. ) ;
#773 = FACE_OUTER_BOUND ( 'NONE', #697, .T. ) ;
#774 = ORIENTED_EDGE ( 'NONE', *, *, #430, .T. ) ;
#775 = PERSON_AND_ORGANIZATION ( #898, #682 ) ;
#776 = AXIS2_PLACEMENT_3D ( 'NONE', #473, #262, #47 ) ;
#777 = CARTESIAN_POINT ( 'NONE',  ( 5.176743097160003693, 50.00000000000000000, 0.000000000000000000 ) ) ;
#778 = FACE_BOUND ( 'NONE', #192, .T. ) ;
#779 = ORIENTED_EDGE ( 'NONE', *, *, #530, .F. ) ;
#780 = PERSON_AND_ORGANIZATION ( #898, #682 ) ;
#781 = CARTESIAN_POINT ( 'NONE',  ( -34.00017143907982131, -17.99999999999992895, 10.00000000000000178 ) ) ;
#782 = DIRECTION ( 'NONE',  ( -0.000000000000000000, -0.000000000000000000, -1.000000000000000000 ) ) ;
#783 = ORIENTED_EDGE ( 'NONE', *, *, #309, .T. ) ;
#784 = AXIS2_PLACEMENT_3D ( 'NONE', #731, #523, #16 ) ;
#785 = VECTOR ( 'NONE', #461, 1000.000000000000000 ) ;
#786 = CARTESIAN_POINT ( 'NONE',  ( -10.82325690283999720, 6.928203230275528313, 0.000000000000000000 ) ) ;
#787 = CARTESIAN_POINT ( 'NONE',  ( 5.176743097160003693, 50.00000000000000000, 0.000000000000000000 ) ) ;
#788 = EDGE_LOOP ( 'NONE', ( #481, #457, #820, #345 ) ) ;
#789 = CIRCLE ( 'NONE', #303, 4.000000000000000000 ) ;
#790 = AXIS2_PLACEMENT_3D ( 'NONE', #64, #433, #493 ) ;
#791 = DIRECTION ( 'NONE',  ( 1.270422204500949276E-16, 1.000000000000000000, -0.000000000000000000 ) ) ;
#792 = FACE_OUTER_BOUND ( 'NONE', #495, .T. ) ;
#793 = EDGE_LOOP ( 'NONE', ( #284, #824 ) ) ;
#794 = CARTESIAN_POINT ( 'NONE',  ( -38.00017143907980710, -11.07179676972441484, 25.00000000000000000 ) ) ;
#795 = PERSON_AND_ORGANIZATION_ROLE ( 'design_owner' ) ;
#796 = DIRECTION ( 'NONE',  ( -8.591118992280613437E-17, -4.960084862833294339E-17, 1.000000000000000000 ) ) ;
#797 = DIRECTION ( 'NONE',  ( -0.8660254037844395958, -0.4999999999999981126, -0.000000000000000000 ) ) ;
#798 = ADVANCED_FACE ( 'NONE', ( #679 ), #819, .F. ) ;
#799 = EDGE_LOOP ( 'NONE', ( #13, #539, #570, #275 ) ) ;
#800 = LINE ( 'NONE', #75, #276 ) ;
#801 = CARTESIAN_POINT ( 'NONE',  ( 0.1767430971599745493, -7.505553499465141165, 0.000000000000000000 ) ) ;
#802 = CLOSED_SHELL ( 'NONE', ( #651, #874, #329, #39, #460, #584, #131, #62, #588, #373, #548, #661, #902, #910, #593, #138, #605, #263, #922, #601, #231, #668, #749, #315, #416, #798 ) ) ;
#803 = PRODUCT_DEFINITION_FORMATION_WITH_SPECIFIED_SOURCE ( '�', '', #469, .NOT_KNOWN. ) ;
#804 = EDGE_LOOP ( 'NONE', ( #611, #435, #465, #666 ) ) ;
#805 = VECTOR ( 'NONE', #269, 1000.000000000000114 ) ;
#806 = DIRECTION ( 'NONE',  ( 1.000000000000000000, 0.000000000000000000, 0.000000000000000000 ) ) ;
#807 = EDGE_LOOP ( 'NONE', ( #173, #43, #882, #405 ) ) ;
#808 = CYLINDRICAL_SURFACE ( 'NONE', #715, 4.000000000000000888 ) ;
#809 = EDGE_CURVE ( 'NONE', #760, #111, #497, .T. ) ;
#810 = AXIS2_PLACEMENT_3D ( 'NONE', #290, #590, #436 ) ;
#811 = DIRECTION ( 'NONE',  ( 1.000000000000000000, 1.529023964369637985E-16, -0.000000000000000000 ) ) ;
#812 = ORIENTED_EDGE ( 'NONE', *, *, #161, .F. ) ;
#813 = EDGE_CURVE ( 'NONE', #256, #576, #742, .T. ) ;
#814 = DIRECTION ( 'NONE',  ( 0.8660254037844397068, 0.4999999999999981126, -1.583490843704625890E-14 ) ) ;
#815 = VECTOR ( 'NONE', #237, 1000.000000000000000 ) ;
#816 = ORIENTED_EDGE ( 'NONE', *, *, #946, .F. ) ;
#817 = CARTESIAN_POINT ( 'NONE',  ( -38.00017143907980710, -11.07179676972441484, 25.00000000000000000 ) ) ;
#818 = EDGE_CURVE ( 'NONE', #589, #446, #709, .T. ) ;
#819 = CYLINDRICAL_SURFACE ( 'NONE', #913, 2.000000000000000444 ) ;
#820 = ORIENTED_EDGE ( 'NONE', *, *, #930, .T. ) ;
#821 = CARTESIAN_POINT ( 'NONE',  ( -2.823256902839993643, 0.000000000000000000, 25.00000000000000000 ) ) ;
#822 = AXIS2_PLACEMENT_3D ( 'NONE', #279, #878, #198 ) ;
#823 = DIRECTION ( 'NONE',  ( 1.000000000000000000, 0.000000000000000000, 0.000000000000000000 ) ) ;
#824 = ORIENTED_EDGE ( 'NONE', *, *, #753, .T. ) ;
#825 = CARTESIAN_POINT ( 'NONE',  ( -2.823256902839999416, 50.00000000000000000, 25.00000000000000000 ) ) ;
#826 = EDGE_LOOP ( 'NONE', ( #812, #181, #462, #592, #615 ) ) ;
#827 = EDGE_CURVE ( 'NONE', #873, #417, #421, .T. ) ;
#828 = DIRECTION ( 'NONE',  ( 0.000000000000000000, 0.000000000000000000, -1.000000000000000000 ) ) ;
#829 = VERTEX_POINT ( 'NONE', #114 ) ;
#830 = DIRECTION ( 'NONE',  ( -0.000000000000000000, -0.000000000000000000, -1.000000000000000000 ) ) ;
#831 = AXIS2_PLACEMENT_3D ( 'NONE', #531, #378, #22 ) ;
#832 = AXIS2_PLACEMENT_3D ( 'NONE', #889, #623, #823 ) ;
#833 = EDGE_LOOP ( 'NONE', ( #545, #693, #639, #147, #233, #17, #48, #52, #56 ) ) ;
#834 = DIRECTION ( 'NONE',  ( 0.8660254037844397068, 0.4999999999999981126, 0.000000000000000000 ) ) ;
#835 = EDGE_CURVE ( 'NONE', #387, #923, #38, .T. ) ;
#836 = ORIENTED_EDGE ( 'NONE', *, *, #641, .T. ) ;
#837 = DIRECTION ( 'NONE',  ( -1.000000000000000000, 0.000000000000000000, 0.000000000000000000 ) ) ;
#838 = VECTOR ( 'NONE', #112, 1000.000000000000000 ) ;
#839 = EDGE_CURVE ( 'NONE', #528, #629, #35, .T. ) ;
#840 = CARTESIAN_POINT ( 'NONE',  ( -34.00017143907982131, -17.99999999999992895, 25.00000000000000000 ) ) ;
#841 = AXIS2_PLACEMENT_3D ( 'NONE', #267, #846, #189 ) ;
#842 = VERTEX_POINT ( 'NONE', #897 ) ;
#843 = DIRECTION ( 'NONE',  ( 0.4999999999999981126, -0.8660254037844397068, -0.000000000000000000 ) ) ;
#844 = PRODUCT_DEFINITION ( '�', '', #803, #908 ) ;
#845 = ORIENTED_EDGE ( 'NONE', *, *, #7, .F. ) ;
#846 = DIRECTION ( 'NONE',  ( 0.000000000000000000, 0.000000000000000000, 1.000000000000000000 ) ) ;
#847 = EDGE_CURVE ( 'NONE', #369, #101, #258, .T. ) ;
#848 = ORIENTED_EDGE ( 'NONE', *, *, #150, .T. ) ;
#849 = LINE ( 'NONE', #252, #599 ) ;
#850 = LOCAL_TIME ( 21, 17, 56.00000000000000000, #285 ) ;
#851 =( NAMED_UNIT ( * ) SI_UNIT ( $, .STERADIAN. ) SOLID_ANGLE_UNIT ( ) );
#852 = CARTESIAN_POINT ( 'NONE',  ( -2.823256902839999416, 50.00000000000000000, 25.00000000000000000 ) ) ;
#853 = PLANE ( 'NONE',  #201 ) ;
#854 = ORIENTED_EDGE ( 'NONE', *, *, #73, .T. ) ;
#855 = DIRECTION ( 'NONE',  ( 0.000000000000000000, 0.000000000000000000, 1.000000000000000000 ) ) ;
#856 = AXIS2_PLACEMENT_3D ( 'NONE', #852, #424, #718 ) ;
#857 = EDGE_CURVE ( 'NONE', #629, #247, #372, .T. ) ;
#858 = APPROVAL_DATE_TIME ( #863, #371 ) ;
#859 = AXIS2_PLACEMENT_3D ( 'NONE', #707, #434, #712 ) ;
#860 = FACE_OUTER_BOUND ( 'NONE', #479, .T. ) ;
#861 = CYLINDRICAL_SURFACE ( 'NONE', #542, 3.999999999999996447 ) ;
#862 = ORIENTED_EDGE ( 'NONE', *, *, #809, .T. ) ;
#863 = DATE_AND_TIME ( #352, #560 ) ;
#864 = DIRECTION ( 'NONE',  ( -1.000000000000000000, 0.000000000000000000, 0.000000000000000000 ) ) ;
#865 = CARTESIAN_POINT ( 'NONE',  ( -2.823256902839999416, 50.00000000000000000, 25.00000000000000000 ) ) ;
#866 = ORIENTED_EDGE ( 'NONE', *, *, #384, .T. ) ;
#867 = LINE ( 'NONE', #883, #21 ) ;
#868 = CIRCLE ( 'NONE', #128, 7.999999999999992895 ) ;
#869 = VECTOR ( 'NONE', #921, 1000.000000000000000 ) ;
#870 = CALENDAR_DATE ( 2026, 8, 8 ) ;
#871 = CARTESIAN_POINT ( 'NONE',  ( -6.823256902840000748, 50.00000000000000000, 0.000000000000000000 ) ) ;
#872 = CARTESIAN_POINT ( 'NONE',  ( -38.00017143907980710, -11.07179676972441484, 0.000000000000000000 ) ) ;
#873 = VERTEX_POINT ( 'NONE', #245 ) ;
#874 = ADVANCED_FACE ( 'NONE', ( #752 ), #391, .F. ) ;
#875 = VECTOR ( 'NONE', #498, 1000.000000000000000 ) ;
#876 = PERSON_AND_ORGANIZATION_ROLE ( 'creator' ) ;
#877 = DIRECTION ( 'NONE',  ( 1.000000000000000000, 0.000000000000000000, 0.000000000000000000 ) ) ;
#878 = DIRECTION ( 'NONE',  ( -0.000000000000000000, -0.000000000000000000, -1.000000000000000000 ) ) ;
#879 = VERTEX_POINT ( 'NONE', #172 ) ;
#880 = DIRECTION ( 'NONE',  ( 1.000000000000000000, 0.000000000000000000, 0.000000000000000000 ) ) ;
#881 = DIRECTION ( 'NONE',  ( -8.591118992280613437E-17, -4.960084862833294339E-17, 1.000000000000000000 ) ) ;
#882 = ORIENTED_EDGE ( 'NONE', *, *, #299, .F. ) ;
#883 = CARTESIAN_POINT ( 'NONE',  ( -10.82325690284000430, 50.00000000000000000, 25.00000000000000000 ) ) ;
#884 = CARTESIAN_POINT ( 'NONE',  ( -14.82325690283999720, 6.928203230275524760, 0.000000000000000000 ) ) ;
#885 = VERTEX_POINT ( 'NONE', #554 ) ;
#886 = CARTESIAN_POINT ( 'NONE',  ( -13.50730229968871754, -15.40604079293875373, 10.00000000000000178 ) ) ;
#887 = APPLICATION_CONTEXT ( 'configuration controlled 3d designs of mechanical parts and assemblies' ) ;
#888 = VECTOR ( 'NONE', #758, 1000.000000000000000 ) ;
#889 = CARTESIAN_POINT ( 'NONE',  ( -34.00017143907982131, -17.99999999999992895, 0.000000000000000000 ) ) ;
#890 = ORIENTED_EDGE ( 'NONE', *, *, #678, .T. ) ;
#891 = DIRECTION ( 'NONE',  ( -0.000000000000000000, -0.000000000000000000, -1.000000000000000000 ) ) ;
#892 = CARTESIAN_POINT ( 'NONE',  ( -34.00017143907982131, -17.99999999999992895, 10.00000000000000178 ) ) ;
#893 = ORIENTED_EDGE ( 'NONE', *, *, #407, .F. ) ;
#894 = CARTESIAN_POINT ( 'NONE',  ( -34.00017143907982131, -17.99999999999992895, 0.000000000000000000 ) ) ;
#895 = PLANE ( 'NONE',  #42 ) ;
#896 = VERTEX_POINT ( 'NONE', #544 ) ;
#897 = CARTESIAN_POINT ( 'NONE',  ( 1.176743097160001472, 50.00000000000000000, 25.00000000000000000 ) ) ;
#898 = PERSON ( '未', '未', '未', ('未'), ('未'), ('未') ) ;
#899 = EDGE_LOOP ( 'NONE', ( #23, #720, #243, #301, #772, #33, #514, #532, #747 ) ) ;
#900 = CARTESIAN_POINT ( 'NONE',  ( -42.00017143907981421, -17.99999999999992895, 25.00000000000000000 ) ) ;
#901 = CIRCLE ( 'NONE', #443, 2.000000000000001332 ) ;
#902 = ADVANCED_FACE ( 'NONE', ( #550 ), #328, .F. ) ;
#903 = CIRCLE ( 'NONE', #364, 4.000000000000000000 ) ;
#904 = DIRECTION ( 'NONE',  ( -0.000000000000000000, -0.000000000000000000, -1.000000000000000000 ) ) ;
#905 = VERTEX_POINT ( 'NONE', #535 ) ;
#906 = CARTESIAN_POINT ( 'NONE',  ( -30.00017143907984263, -24.92820323027544660, 0.000000000000000000 ) ) ;
#907 = ORIENTED_EDGE ( 'NONE', *, *, #326, .T. ) ;
#908 = DESIGN_CONTEXT ( 'detailed design', #113, 'design' ) ;
#909 = CYLINDRICAL_SURFACE ( 'NONE', #88, 3.999999999999996447 ) ;
#910 = ADVANCED_FACE ( 'NONE', ( #771 ), #333, .T. ) ;
#911 = ORIENTED_EDGE ( 'NONE', *, *, #942, .F. ) ;
#912 = LINE ( 'NONE', #257, #613 ) ;
#913 = AXIS2_PLACEMENT_3D ( 'NONE', #168, #516, #151 ) ;
#914 = AXIS2_PLACEMENT_3D ( 'NONE', #45, #100, #29 ) ;
#915 = EDGE_LOOP ( 'NONE', ( #475, #751, #323, #19 ) ) ;
#916 = CARTESIAN_POINT ( 'NONE',  ( 5.176743097159997475, 1.154700538379259456, 25.00000000000000000 ) ) ;
#917 = ORIENTED_EDGE ( 'NONE', *, *, #213, .F. ) ;
#918 = LINE ( 'NONE', #107, #838 ) ;
#919 = VECTOR ( 'NONE', #341, 1000.000000000000227 ) ;
#920 = EDGE_CURVE ( 'NONE', #624, #106, #628, .T. ) ;
#921 = DIRECTION ( 'NONE',  ( 1.270422204500949276E-16, 1.000000000000000000, -0.000000000000000000 ) ) ;
#922 = ADVANCED_FACE ( 'NONE', ( #614 ), #909, .F. ) ;
#923 = VERTEX_POINT ( 'NONE', #185 ) ;
#924 = DIRECTION ( 'NONE',  ( 1.000000000000000000, 0.000000000000000000, 0.000000000000000000 ) ) ;
#925 = CARTESIAN_POINT ( 'NONE',  ( 0.000000000000000000, 0.000000000000000000, 0.000000000000000000 ) ) ;
#926 = DIRECTION ( 'NONE',  ( 0.000000000000000000, 0.000000000000000000, 1.000000000000000000 ) ) ;
#927 = CARTESIAN_POINT ( 'NONE',  ( -4.248972050491072849, -31.44193917780098957, 12.00000000000000178 ) ) ;
#928 = ORIENTED_EDGE ( 'NONE', *, *, #501, .F. ) ;
#929 = CYLINDRICAL_SURFACE ( 'NONE', #688, 4.000000000000000000 ) ;
#930 = EDGE_CURVE ( 'NONE', #879, #247, #250, .T. ) ;
#931 = LOCAL_TIME ( 21, 17, 56.00000000000000000, #646 ) ;
#932 = APPROVAL_DATE_TIME ( #578, #674 ) ;
#933 = DIRECTION ( 'NONE',  ( -1.000000000000000000, 0.000000000000000000, 0.000000000000000000 ) ) ;
#934 = DIRECTION ( 'NONE',  ( 0.8660254037844397068, 0.4999999999999982792, 9.920169725666625656E-17 ) ) ;
#935 = ORIENTED_EDGE ( 'NONE', *, *, #326, .F. ) ;
#936 = AXIS2_PLACEMENT_3D ( 'NONE', #744, #91, #95 ) ;
#937 = COORDINATED_UNIVERSAL_TIME_OFFSET ( 8, 0, .AHEAD. ) ;
#938 = DIRECTION ( 'NONE',  ( -1.000000000000000000, 0.000000000000000000, 0.000000000000000000 ) ) ;
#939 = CARTESIAN_POINT ( 'NONE',  ( -30.00017143907984263, -24.92820323027544660, 15.00000000000000533 ) ) ;
#940 = CIRCLE ( 'NONE', #841, 4.000000000000000888 ) ;
#941 = ORIENTED_EDGE ( 'NONE', *, *, #167, .F. ) ;
#942 = EDGE_CURVE ( 'NONE', #551, #713, #687, .T. ) ;
#943 = APPROVAL_DATE_TIME ( #432, #2 ) ;
#944 = PLANE ( 'NONE',  #363 ) ;
#945 = CARTESIAN_POINT ( 'NONE',  ( -38.00017143907980710, -11.07179676972441484, 0.000000000000000000 ) ) ;
#946 = EDGE_CURVE ( 'NONE', #387, #885, #768, .T. ) ;
#947 = ORIENTED_EDGE ( 'NONE', *, *, #217, .F. ) ;
ENDSEC;
END-ISO-10303-21;
