ISO-10303-21;
HEADER;
FILE_DESCRIPTION (( 'STEP AP203' ),
    '1' );
FILE_NAME ('slider.STEP',
    '2026-08-08T13:19:07',
    ( '' ),
    ( '' ),
    'SwSTEP 2.0',
    'SolidWorks 2025',
    '' );
FILE_SCHEMA (( 'CONFIG_CONTROL_DESIGN' ));
ENDSEC;

DATA;
#1 = AXIS2_PLACEMENT_3D ( 'NONE', #70, #788, #628 ) ;
#2 = ORIENTED_EDGE ( 'NONE', *, *, #491, .T. ) ;
#3 = DIRECTION ( 'NONE',  ( 1.000000000000000000, 0.000000000000000000, 0.000000000000000000 ) ) ;
#4 = DIRECTION ( 'NONE',  ( -1.000000000000000000, -2.891205793294678696E-17, 0.000000000000000000 ) ) ;
#5 = CARTESIAN_POINT ( 'NONE',  ( 30.00000000000000355, -8.673617379884035472E-16, -14.00000000000000000 ) ) ;
#6 = CARTESIAN_POINT ( 'NONE',  ( -30.00000000000000000, 0.000000000000000000, -4.499999999999999112 ) ) ;
#7 = CARTESIAN_POINT ( 'NONE',  ( -30.00000000000000000, 0.000000000000000000, -9.500000000000000000 ) ) ;
#8 = CIRCLE ( 'NONE', #768, 9.000000000000005329 ) ;
#9 = VERTEX_POINT ( 'NONE', #956 ) ;
#10 = DIRECTION ( 'NONE',  ( 1.000000000000000000, -5.782411586589357392E-17, 0.000000000000000000 ) ) ;
#11 = EDGE_CURVE ( 'NONE', #434, #669, #157, .T. ) ;
#12 = DIRECTION ( 'NONE',  ( 0.000000000000000000, -0.000000000000000000, 1.000000000000000000 ) ) ;
#13 = CARTESIAN_POINT ( 'NONE',  ( -5.204170427930423255E-16, 9.000000000000000000, -7.000000000000000000 ) ) ;
#14 = DIRECTION ( 'NONE',  ( 1.000000000000000000, 0.000000000000000000, 0.000000000000000000 ) ) ;
#15 = DIRECTION ( 'NONE',  ( -0.000000000000000000, -1.000000000000000000, -0.000000000000000000 ) ) ;
#16 = DIRECTION ( 'NONE',  ( -0.000000000000000000, -1.000000000000000000, -0.000000000000000000 ) ) ;
#17 = DIRECTION ( 'NONE',  ( 1.000000000000000000, 0.000000000000000000, 0.000000000000000000 ) ) ;
#18 = ADVANCED_FACE ( 'NONE', ( #400 ), #948, .F. ) ;
#19 = CYLINDRICAL_SURFACE ( 'NONE', #304, 2.500000000000000444 ) ;
#20 = DIRECTION ( 'NONE',  ( 0.000000000000000000, -0.000000000000000000, 1.000000000000000000 ) ) ;
#21 = VECTOR ( 'NONE', #10, 1000.000000000000000 ) ;
#22 = VERTEX_POINT ( 'NONE', #719 ) ;
#23 = CIRCLE ( 'NONE', #516, 4.049999999999998046 ) ;
#24 = CARTESIAN_POINT ( 'NONE',  ( -55.00000000000000000, 10.99999999999999822, -9.500000000000003553 ) ) ;
#25 = EDGE_CURVE ( 'NONE', #367, #760, #75, .T. ) ;
#26 = DIRECTION ( 'NONE',  ( 1.000000000000000000, 0.000000000000000000, 0.000000000000000000 ) ) ;
#27 = ORIENTED_EDGE ( 'NONE', *, *, #910, .F. ) ;
#28 = APPLICATION_PROTOCOL_DEFINITION ( 'international standard', 'config_control_design', 1994, #731 ) ;
#29 = EDGE_LOOP ( 'NONE', ( #117, #961, #604, #232 ) ) ;
#30 = AXIS2_PLACEMENT_3D ( 'NONE', #676, #842, #49 ) ;
#31 = CARTESIAN_POINT ( 'NONE',  ( -30.00000000000000000, -9.000000000000001776, -14.00000000000000000 ) ) ;
#32 = DIRECTION ( 'NONE',  ( 1.301042606982605321E-16, 0.000000000000000000, -1.000000000000000000 ) ) ;
#33 = AXIS2_PLACEMENT_3D ( 'NONE', #39, #887, #577 ) ;
#34 = ADVANCED_FACE ( 'NONE', ( #626 ), #943, .T. ) ;
#35 = VERTEX_POINT ( 'NONE', #424 ) ;
#36 = VECTOR ( 'NONE', #37, 1000.000000000000000 ) ;
#37 = DIRECTION ( 'NONE',  ( 1.000000000000000000, 2.891205793294678696E-17, 0.000000000000000000 ) ) ;
#38 = ORIENTED_EDGE ( 'NONE', *, *, #894, .T. ) ;
#39 = CARTESIAN_POINT ( 'NONE',  ( -5.204170427930423255E-16, -9.000000000000003553, -7.000000000000000000 ) ) ;
#40 = EDGE_LOOP ( 'NONE', ( #62, #46, #637, #989, #823 ) ) ;
#41 = COORDINATED_UNIVERSAL_TIME_OFFSET ( 8, 0, .AHEAD. ) ;
#42 = AXIS2_PLACEMENT_3D ( 'NONE', #766, #218, #302 ) ;
#43 = EDGE_LOOP ( 'NONE', ( #202, #121, #655, #379 ) ) ;
#44 = CARTESIAN_POINT ( 'NONE',  ( -30.00000000000000000, 0.000000000000000000, 0.000000000000000000 ) ) ;
#45 = CIRCLE ( 'NONE', #258, 2.500000000000000444 ) ;
#46 = ORIENTED_EDGE ( 'NONE', *, *, #248, .T. ) ;
#47 = VERTEX_POINT ( 'NONE', #897 ) ;
#48 = VECTOR ( 'NONE', #313, 1000.000000000000000 ) ;
#49 = DIRECTION ( 'NONE',  ( 1.000000000000000000, 0.000000000000000000, 0.000000000000000000 ) ) ;
#50 = ORIENTED_EDGE ( 'NONE', *, *, #236, .T. ) ;
#51 = CARTESIAN_POINT ( 'NONE',  ( 30.00000000000000355, -9.000000000000005329, 0.000000000000000000 ) ) ;
#52 = ORIENTED_EDGE ( 'NONE', *, *, #942, .F. ) ;
#53 = ADVANCED_FACE ( 'NONE', ( #417 ), #728, .T. ) ;
#54 = CARTESIAN_POINT ( 'NONE',  ( 55.00000000000000000, 10.99999999999999822, -9.500000000000003553 ) ) ;
#55 = VERTEX_POINT ( 'NONE', #187 ) ;
#56 = PERSON_AND_ORGANIZATION ( #315, #429 ) ;
#57 = EDGE_CURVE ( 'NONE', #55, #592, #23, .T. ) ;
#58 = CYLINDRICAL_SURFACE ( 'NONE', #449, 2.500000000000000444 ) ;
#59 = EDGE_LOOP ( 'NONE', ( #993, #341, #50, #501 ) ) ;
#60 = VECTOR ( 'NONE', #426, 1000.000000000000000 ) ;
#61 = CARTESIAN_POINT ( 'NONE',  ( -30.00000000000000711, 6.071532165918824830E-15, -14.00000000000000000 ) ) ;
#62 = ORIENTED_EDGE ( 'NONE', *, *, #832, .F. ) ;
#63 = FACE_OUTER_BOUND ( 'NONE', #830, .T. ) ;
#64 = ORIENTED_EDGE ( 'NONE', *, *, #641, .F. ) ;
#65 = CARTESIAN_POINT ( 'NONE',  ( -30.00000000000000000, 8.999999999999998224, -9.500000000000000000 ) ) ;
#66 = ORIENTED_EDGE ( 'NONE', *, *, #761, .F. ) ;
#67 = APPROVAL_ROLE ( '' ) ;
#68 = EDGE_CURVE ( 'NONE', #916, #242, #500, .T. ) ;
#69 = LINE ( 'NONE', #546, #402 ) ;
#70 = CARTESIAN_POINT ( 'NONE',  ( -30.00000000000000711, 6.071532165918824830E-15, -14.00000000000000000 ) ) ;
#71 = ORIENTED_EDGE ( 'NONE', *, *, #901, .F. ) ;
#72 = DIRECTION ( 'NONE',  ( 2.891205793294678696E-17, -1.000000000000000000, -0.000000000000000000 ) ) ;
#73 = CC_DESIGN_PERSON_AND_ORGANIZATION_ASSIGNMENT ( #619, #445, ( #1022 ) ) ;
#74 = PLANE ( 'NONE',  #570 ) ;
#75 = CIRCLE ( 'NONE', #734, 3.399999999999999467 ) ;
#76 = VERTEX_POINT ( 'NONE', #92 ) ;
#77 = CARTESIAN_POINT ( 'NONE',  ( -30.00000000000000000, 0.000000000000000000, 0.000000000000000000 ) ) ;
#78 = VECTOR ( 'NONE', #390, 1000.000000000000000 ) ;
#79 = CARTESIAN_POINT ( 'NONE',  ( 30.00000000000000000, 9.000000000000000000, -14.00000000000000000 ) ) ;
#80 = ORIENTED_EDGE ( 'NONE', *, *, #1017, .F. ) ;
#81 = AXIS2_PLACEMENT_3D ( 'NONE', #324, #718, #387 ) ;
#82 = DIRECTION ( 'NONE',  ( -0.000000000000000000, -0.000000000000000000, -1.000000000000000000 ) ) ;
#83 = VECTOR ( 'NONE', #593, 1000.000000000000000 ) ;
#84 = LINE ( 'NONE', #308, #938 ) ;
#85 = ORIENTED_EDGE ( 'NONE', *, *, #479, .F. ) ;
#86 = LINE ( 'NONE', #831, #105 ) ;
#87 = FACE_OUTER_BOUND ( 'NONE', #310, .T. ) ;
#88 = AXIS2_PLACEMENT_3D ( 'NONE', #381, #929, #702 ) ;
#89 = CARTESIAN_POINT ( 'NONE',  ( 30.00000000000000355, -8.673617379884035472E-16, -9.500000000000000000 ) ) ;
#90 = DIRECTION ( 'NONE',  ( -0.000000000000000000, -0.000000000000000000, -1.000000000000000000 ) ) ;
#91 = DIRECTION ( 'NONE',  ( 1.000000000000000000, 0.000000000000000000, 0.000000000000000000 ) ) ;
#92 = CARTESIAN_POINT ( 'NONE',  ( -1.040371310829422326E-16, -9.000000000000003553, -3.600000000000000533 ) ) ;
#93 = CIRCLE ( 'NONE', #358, 4.049999999999998046 ) ;
#94 = DIRECTION ( 'NONE',  ( 1.000000000000000000, 0.000000000000000000, 0.000000000000000000 ) ) ;
#95 = EDGE_CURVE ( 'NONE', #863, #353, #205, .T. ) ;
#96 = ADVANCED_FACE ( 'NONE', ( #344 ), #268, .F. ) ;
#97 = CARTESIAN_POINT ( 'NONE',  ( 25.95000000000000639, 6.071532165918824830E-15, -9.500000000000000000 ) ) ;
#98 = DIRECTION ( 'NONE',  ( -0.000000000000000000, 1.000000000000000000, 0.000000000000000000 ) ) ;
#99 = ORIENTED_EDGE ( 'NONE', *, *, #969, .T. ) ;
#100 = DIRECTION ( 'NONE',  ( -0.000000000000000000, -0.000000000000000000, -1.000000000000000000 ) ) ;
#101 = ADVANCED_FACE ( 'NONE', ( #735, #960 ), #967, .F. ) ;
#102 = EDGE_CURVE ( 'NONE', #452, #434, #824, .T. ) ;
#103 = CARTESIAN_POINT ( 'NONE',  ( 30.00000000000000711, 6.071532165918824830E-15, -14.00000000000000000 ) ) ;
#104 = DIRECTION ( 'NONE',  ( 0.000000000000000000, 0.000000000000000000, 1.000000000000000000 ) ) ;
#105 = VECTOR ( 'NONE', #574, 1000.000000000000000 ) ;
#106 = ORIENTED_EDGE ( 'NONE', *, *, #423, .F. ) ;
#107 = DIRECTION ( 'NONE',  ( 0.000000000000000000, 0.000000000000000000, 1.000000000000000000 ) ) ;
#108 = CIRCLE ( 'NONE', #786, 3.399999999999999467 ) ;
#109 = EDGE_LOOP ( 'NONE', ( #696, #442, #578, #753 ) ) ;
#110 = DIRECTION ( 'NONE',  ( -1.000000000000000000, 0.000000000000000000, 0.000000000000000000 ) ) ;
#111 = CARTESIAN_POINT ( 'NONE',  ( 34.05000000000000426, 6.567514119573503285E-15, -14.00000000000000000 ) ) ;
#112 = ORIENTED_EDGE ( 'NONE', *, *, #118, .F. ) ;
#113 = DIRECTION ( 'NONE',  ( 0.000000000000000000, 0.000000000000000000, 1.000000000000000000 ) ) ;
#114 = VECTOR ( 'NONE', #931, 1000.000000000000000 ) ;
#115 = CARTESIAN_POINT ( 'NONE',  ( 30.00000000000000000, 9.000000000000000000, -14.00000000000000000 ) ) ;
#116 = AXIS2_PLACEMENT_3D ( 'NONE', #329, #98, #255 ) ;
#117 = ORIENTED_EDGE ( 'NONE', *, *, #220, .T. ) ;
#118 = EDGE_CURVE ( 'NONE', #22, #76, #108, .T. ) ;
#119 = DIRECTION ( 'NONE',  ( -1.000000000000000000, 0.000000000000000000, 0.000000000000000000 ) ) ;
#120 = DIRECTION ( 'NONE',  ( 0.000000000000000000, 0.000000000000000000, -1.000000000000000000 ) ) ;
#121 = ORIENTED_EDGE ( 'NONE', *, *, #615, .T. ) ;
#122 = LINE ( 'NONE', #198, #36 ) ;
#123 = ORIENTED_EDGE ( 'NONE', *, *, #461, .F. ) ;
#124 = CYLINDRICAL_SURFACE ( 'NONE', #825, 9.000000000000005329 ) ;
#125 = VECTOR ( 'NONE', #645, 1000.000000000000000 ) ;
#126 = ORIENTED_EDGE ( 'NONE', *, *, #829, .F. ) ;
#127 = APPROVAL_DATE_TIME ( #856, #360 ) ;
#128 = CARTESIAN_POINT ( 'NONE',  ( -17.50000000000000000, -9.000000000000001776, -9.499999999999998224 ) ) ;
#129 = EDGE_CURVE ( 'NONE', #204, #650, #260, .T. ) ;
#130 = EDGE_LOOP ( 'NONE', ( #1019, #958 ) ) ;
#131 = CIRCLE ( 'NONE', #276, 4.049999999999998046 ) ;
#132 = FACE_OUTER_BOUND ( 'NONE', #879, .T. ) ;
#133 = ADVANCED_FACE ( 'NONE', ( #973 ), #724, .F. ) ;
#134 = EDGE_LOOP ( 'NONE', ( #873, #790, #71, #601, #305 ) ) ;
#135 = APPROVAL_PERSON_ORGANIZATION ( #678, #360, #67 ) ;
#136 = CARTESIAN_POINT ( 'NONE',  ( -17.50000000000000000, -9.000000000000000000, -6.999999999999999112 ) ) ;
#137 = ORIENTED_EDGE ( 'NONE', *, *, #354, .F. ) ;
#138 = CYLINDRICAL_SURFACE ( 'NONE', #30, 9.000000000000005329 ) ;
#139 = EDGE_LOOP ( 'NONE', ( #674, #890, #523, #738 ) ) ;
#140 = CARTESIAN_POINT ( 'NONE',  ( -17.50000000000000000, -9.000000000000000000, -6.999999999999997335 ) ) ;
#141 = EDGE_LOOP ( 'NONE', ( #106, #281, #274, #715, #376 ) ) ;
#142 = CARTESIAN_POINT ( 'NONE',  ( -30.00000000000000000, -9.000000000000003553, -9.500000000000000000 ) ) ;
#143 = EDGE_CURVE ( 'NONE', #898, #190, #571, .T. ) ;
#144 = ORIENTED_EDGE ( 'NONE', *, *, #789, .T. ) ;
#145 = CALENDAR_DATE ( 2026, 8, 8 ) ;
#146 = DIRECTION ( 'NONE',  ( -0.000000000000000000, 1.000000000000000000, -0.000000000000000000 ) ) ;
#147 = CIRCLE ( 'NONE', #671, 9.000000000000001776 ) ;
#148 = LINE ( 'NONE', #877, #230 ) ;
#149 = EDGE_LOOP ( 'NONE', ( #821, #64, #27, #893 ) ) ;
#150 = EDGE_CURVE ( 'NONE', #450, #204, #428, .T. ) ;
#151 = DIRECTION ( 'NONE',  ( -0.000000000000000000, 1.000000000000000000, -0.000000000000000000 ) ) ;
#152 = CARTESIAN_POINT ( 'NONE',  ( 15.00000000000000178, 9.000000000000000000, -6.999999999999999112 ) ) ;
#153 = ORIENTED_EDGE ( 'NONE', *, *, #337, .F. ) ;
#154 = DIRECTION ( 'NONE',  ( -1.000000000000000000, 0.000000000000000000, 0.000000000000000000 ) ) ;
#155 = AXIS2_PLACEMENT_3D ( 'NONE', #567, #82, #326 ) ;
#156 = CARTESIAN_POINT ( 'NONE',  ( 30.00000000000000355, -8.673617379884035472E-16, -14.00000000000000000 ) ) ;
#157 = CIRCLE ( 'NONE', #871, 9.000000000000005329 ) ;
#158 = ORIENTED_EDGE ( 'NONE', *, *, #944, .F. ) ;
#159 = LINE ( 'NONE', #330, #818 ) ;
#160 = CARTESIAN_POINT ( 'NONE',  ( 30.00000000000000355, -8.673617379884035472E-16, -14.00000000000000000 ) ) ;
#161 = ORIENTED_EDGE ( 'NONE', *, *, #312, .T. ) ;
#162 = AXIS2_PLACEMENT_3D ( 'NONE', #866, #633, #231 ) ;
#163 = DIRECTION ( 'NONE',  ( 5.782411586589357392E-17, 1.000000000000000000, -0.000000000000000000 ) ) ;
#164 = CIRCLE ( 'NONE', #555, 4.049999999999998046 ) ;
#165 = VECTOR ( 'NONE', #589, 1000.000000000000000 ) ;
#166 = LINE ( 'NONE', #699, #178 ) ;
#167 = ORIENTED_EDGE ( 'NONE', *, *, #876, .T. ) ;
#168 = CYLINDRICAL_SURFACE ( 'NONE', #369, 4.049999999999998046 ) ;
#169 = CARTESIAN_POINT ( 'NONE',  ( -5.204170427930423255E-16, -9.000000000000003553, -7.000000000000000000 ) ) ;
#170 = EDGE_CURVE ( 'NONE', #76, #22, #745, .T. ) ;
#171 = VERTEX_POINT ( 'NONE', #488 ) ;
#172 = ADVANCED_FACE ( 'NONE', ( #348 ), #583, .F. ) ;
#173 = DIRECTION ( 'NONE',  ( -0.000000000000000000, 0.000000000000000000, -1.000000000000000000 ) ) ;
#174 = VECTOR ( 'NONE', #151, 1000.000000000000000 ) ;
#175 = CARTESIAN_POINT ( 'NONE',  ( -30.00000000000000000, 8.999999999999998224, -14.00000000000000000 ) ) ;
#176 = DIRECTION ( 'NONE',  ( 0.000000000000000000, 0.000000000000000000, 1.000000000000000000 ) ) ;
#177 = CC_DESIGN_PERSON_AND_ORGANIZATION_ASSIGNMENT ( #776, #285, ( #695 ) ) ;
#178 = VECTOR ( 'NONE', #622, 1000.000000000000000 ) ;
#179 = ORIENTED_EDGE ( 'NONE', *, *, #966, .T. ) ;
#180 = FACE_OUTER_BOUND ( 'NONE', #134, .T. ) ;
#181 = CYLINDRICAL_SURFACE ( 'NONE', #484, 4.049999999999998046 ) ;
#182 = DIRECTION ( 'NONE',  ( -1.000000000000000000, -2.891205793294678696E-17, -0.000000000000000000 ) ) ;
#183 = EDGE_LOOP ( 'NONE', ( #706, #444, #531, #126 ) ) ;
#184 = CARTESIAN_POINT ( 'NONE',  ( -30.00000000000000711, 6.071532165918824830E-15, -14.00000000000000000 ) ) ;
#185 = EDGE_LOOP ( 'NONE', ( #994, #222, #161, #618 ) ) ;
#186 = CARTESIAN_POINT ( 'NONE',  ( -30.00000000000000000, -9.000000000000003553, -4.500000000000000000 ) ) ;
#187 = CARTESIAN_POINT ( 'NONE',  ( 25.95000000000000639, 6.071532165918824830E-15, -4.499999999999999112 ) ) ;
#188 = CIRCLE ( 'NONE', #88, 3.399999999999999467 ) ;
#189 = CIRCLE ( 'NONE', #297, 4.049999999999998046 ) ;
#190 = VERTEX_POINT ( 'NONE', #196 ) ;
#191 = DIRECTION ( 'NONE',  ( -0.000000000000000000, -0.000000000000000000, -1.000000000000000000 ) ) ;
#192 = DIRECTION ( 'NONE',  ( 1.000000000000000000, -5.782411586589357392E-17, 0.000000000000000000 ) ) ;
#193 = CARTESIAN_POINT ( 'NONE',  ( -30.00000000000000000, 8.999999999999998224, 0.000000000000000000 ) ) ;
#194 = ORIENTED_EDGE ( 'NONE', *, *, #937, .F. ) ;
#195 = APPROVAL_ROLE ( '' ) ;
#196 = CARTESIAN_POINT ( 'NONE',  ( 34.05000000000000426, 6.567514119573503285E-15, -14.00000000000000000 ) ) ;
#197 = ORIENTED_EDGE ( 'NONE', *, *, #984, .F. ) ;
#198 = CARTESIAN_POINT ( 'NONE',  ( -30.00000000000000000, 8.999999999999998224, -4.499999999999999112 ) ) ;
#199 = ORIENTED_EDGE ( 'NONE', *, *, #57, .F. ) ;
#200 = CARTESIAN_POINT ( 'NONE',  ( 25.95000000000000639, 6.071532165918824830E-15, -14.00000000000000000 ) ) ;
#201 = EDGE_CURVE ( 'NONE', #598, #270, #411, .T. ) ;
#202 = ORIENTED_EDGE ( 'NONE', *, *, #876, .F. ) ;
#203 = CARTESIAN_POINT ( 'NONE',  ( -34.05000000000000426, 6.071532165918824830E-15, -4.499999999999999112 ) ) ;
#204 = VERTEX_POINT ( 'NONE', #494 ) ;
#205 = CIRCLE ( 'NONE', #241, 4.049999999999998046 ) ;
#206 = CARTESIAN_POINT ( 'NONE',  ( 30.00000000000000711, 6.071532165918824830E-15, -14.00000000000000000 ) ) ;
#207 = EDGE_CURVE ( 'NONE', #592, #55, #164, .T. ) ;
#208 = ORIENTED_EDGE ( 'NONE', *, *, #792, .T. ) ;
#209 = SHAPE_DEFINITION_REPRESENTATION ( #317, #499 ) ;
#210 = ADVANCED_FACE ( 'NONE', ( #591 ), #138, .T. ) ;
#211 = CARTESIAN_POINT ( 'NONE',  ( -30.00000000000000711, 6.071532165918824830E-15, -14.00000000000000000 ) ) ;
#212 = ADVANCED_FACE ( 'NONE', ( #132 ), #755, .F. ) ;
#213 = ORIENTED_EDGE ( 'NONE', *, *, #201, .F. ) ;
#214 = AXIS2_PLACEMENT_3D ( 'NONE', #44, #288, #603 ) ;
#215 = PLANE ( 'NONE',  #472 ) ;
#216 = ORIENTED_EDGE ( 'NONE', *, *, #602, .T. ) ;
#217 = AXIS2_PLACEMENT_3D ( 'NONE', #817, #107, #421 ) ;
#218 = DIRECTION ( 'NONE',  ( 0.000000000000000000, 0.000000000000000000, 1.000000000000000000 ) ) ;
#219 = ORIENTED_EDGE ( 'NONE', *, *, #615, .F. ) ;
#220 = EDGE_CURVE ( 'NONE', #325, #588, #443, .T. ) ;
#221 = CARTESIAN_POINT ( 'NONE',  ( -30.00000000000000000, 8.999999999999998224, -14.00000000000000000 ) ) ;
#222 = ORIENTED_EDGE ( 'NONE', *, *, #386, .F. ) ;
#223 = DIRECTION ( 'NONE',  ( 0.000000000000000000, 0.000000000000000000, 1.000000000000000000 ) ) ;
#224 = CIRCLE ( 'NONE', #42, 9.000000000000005329 ) ;
#225 = DIRECTION ( 'NONE',  ( -1.000000000000000000, 0.000000000000000000, 0.000000000000000000 ) ) ;
#226 = AXIS2_PLACEMENT_3D ( 'NONE', #814, #959, #91 ) ;
#227 = EDGE_LOOP ( 'NONE', ( #199, #594 ) ) ;
#228 = DATE_AND_TIME ( #923, #970 ) ;
#229 = CARTESIAN_POINT ( 'NONE',  ( -30.00000000000000000, -9.000000000000001776, -14.00000000000000000 ) ) ;
#230 = VECTOR ( 'NONE', #946, 1000.000000000000000 ) ;
#231 = DIRECTION ( 'NONE',  ( -1.000000000000000000, 0.000000000000000000, 0.000000000000000000 ) ) ;
#232 = ORIENTED_EDGE ( 'NONE', *, *, #354, .T. ) ;
#233 = DIRECTION ( 'NONE',  ( -0.000000000000000000, -1.000000000000000000, -0.000000000000000000 ) ) ;
#234 = DIRECTION ( 'NONE',  ( 1.000000000000000000, 0.000000000000000000, 0.000000000000000000 ) ) ;
#235 = ORIENTED_EDGE ( 'NONE', *, *, #337, .T. ) ;
#236 = EDGE_CURVE ( 'NONE', #292, #916, #834, .T. ) ;
#237 = CARTESIAN_POINT ( 'NONE',  ( 39.00000000000000711, -8.673617379884035472E-16, -14.00000000000000000 ) ) ;
#238 = CIRCLE ( 'NONE', #464, 2.499999999999998668 ) ;
#239 = ADVANCED_FACE ( 'NONE', ( #453 ), #372, .F. ) ;
#240 = CARTESIAN_POINT ( 'NONE',  ( -25.95000000000000639, 6.567514119573503285E-15, -9.500000000000000000 ) ) ;
#241 = AXIS2_PLACEMENT_3D ( 'NONE', #565, #32, #408 ) ;
#242 = VERTEX_POINT ( 'NONE', #299 ) ;
#243 = CARTESIAN_POINT ( 'NONE',  ( -5.204170427930423255E-16, -9.000000000000003553, -10.40000000000000036 ) ) ;
#244 = DIRECTION ( 'NONE',  ( -5.782411586589357392E-17, -1.000000000000000000, 0.000000000000000000 ) ) ;
#245 = ORIENTED_EDGE ( 'NONE', *, *, #423, .T. ) ;
#246 = CIRCLE ( 'NONE', #427, 4.049999999999998046 ) ;
#247 = CARTESIAN_POINT ( 'NONE',  ( 30.00000000000000355, -9.000000000000005329, -14.00000000000000000 ) ) ;
#248 = EDGE_CURVE ( 'NONE', #764, #909, #770, .T. ) ;
#249 = FACE_OUTER_BOUND ( 'NONE', #183, .T. ) ;
#250 = DIRECTION ( 'NONE',  ( -0.000000000000000000, -1.000000000000000000, -0.000000000000000000 ) ) ;
#251 = CARTESIAN_POINT ( 'NONE',  ( -17.50000000000000000, -9.000000000000003553, -4.500000000000000000 ) ) ;
#252 = ORIENTED_EDGE ( 'NONE', *, *, #220, .F. ) ;
#253 = DIRECTION ( 'NONE',  ( 0.000000000000000000, 0.000000000000000000, 1.000000000000000000 ) ) ;
#254 = CC_DESIGN_PERSON_AND_ORGANIZATION_ASSIGNMENT ( #662, #737, ( #470 ) ) ;
#255 = DIRECTION ( 'NONE',  ( 0.000000000000000000, 0.000000000000000000, 1.000000000000000000 ) ) ;
#256 = VERTEX_POINT ( 'NONE', #828 ) ;
#257 = LINE ( 'NONE', #243, #332 ) ;
#258 = AXIS2_PLACEMENT_3D ( 'NONE', #136, #1015, #370 ) ;
#259 = DIRECTION ( 'NONE',  ( 2.891205793294678696E-17, -1.000000000000000000, -0.000000000000000000 ) ) ;
#260 = LINE ( 'NONE', #746, #557 ) ;
#261 = ORIENTED_EDGE ( 'NONE', *, *, #641, .T. ) ;
#262 = LINE ( 'NONE', #31, #886 ) ;
#263 = CC_DESIGN_APPROVAL ( #360, ( #695 ) ) ;
#264 = CARTESIAN_POINT ( 'NONE',  ( 30.00000000000000355, -8.673617379884035472E-16, -4.499999999999999112 ) ) ;
#265 = ORIENTED_EDGE ( 'NONE', *, *, #25, .T. ) ;
#266 = APPLICATION_PROTOCOL_DEFINITION ( 'international standard', 'config_control_design', 1994, #396 ) ;
#267 = FACE_OUTER_BOUND ( 'NONE', #300, .T. ) ;
#268 = CYLINDRICAL_SURFACE ( 'NONE', #703, 2.500000000000000444 ) ;
#269 = AXIS2_PLACEMENT_3D ( 'NONE', #861, #460, #1005 ) ;
#270 = VERTEX_POINT ( 'NONE', #65 ) ;
#271 =( LENGTH_UNIT ( ) NAMED_UNIT ( * ) SI_UNIT ( .MILLI., .METRE. ) );
#272 = ORIENTED_EDGE ( 'NONE', *, *, #280, .F. ) ;
#273 = CARTESIAN_POINT ( 'NONE',  ( -30.00000000000000711, 6.071532165918824830E-15, -14.00000000000000000 ) ) ;
#274 = ORIENTED_EDGE ( 'NONE', *, *, #394, .F. ) ;
#275 = DIRECTION ( 'NONE',  ( -0.000000000000000000, -0.000000000000000000, -1.000000000000000000 ) ) ;
#276 = AXIS2_PLACEMENT_3D ( 'NONE', #462, #12, #636 ) ;
#277 = VERTEX_POINT ( 'NONE', #283 ) ;
#278 = ADVANCED_FACE ( 'NONE', ( #361, #915 ), #749, .T. ) ;
#279 = DIRECTION ( 'NONE',  ( 0.000000000000000000, 0.000000000000000000, 1.000000000000000000 ) ) ;
#280 = EDGE_CURVE ( 'NONE', #658, #190, #246, .T. ) ;
#281 = ORIENTED_EDGE ( 'NONE', *, *, #675, .T. ) ;
#282 = ORIENTED_EDGE ( 'NONE', *, *, #522, .F. ) ;
#283 = CARTESIAN_POINT ( 'NONE',  ( -25.95000000000000639, 6.567514119573503285E-15, -14.00000000000000000 ) ) ;
#284 = ORIENTED_EDGE ( 'NONE', *, *, #1016, .F. ) ;
#285 = PERSON_AND_ORGANIZATION_ROLE ( 'creator' ) ;
#286 = CARTESIAN_POINT ( 'NONE',  ( -30.00000000000000000, -9.000000000000001776, -14.00000000000000000 ) ) ;
#287 = ORIENTED_EDGE ( 'NONE', *, *, #143, .F. ) ;
#288 = DIRECTION ( 'NONE',  ( -0.000000000000000000, 0.000000000000000000, -1.000000000000000000 ) ) ;
#289 = ORIENTED_EDGE ( 'NONE', *, *, #11, .T. ) ;
#290 = DATE_AND_TIME ( #599, #343 ) ;
#291 = DIRECTION ( 'NONE',  ( 0.000000000000000000, 0.000000000000000000, -1.000000000000000000 ) ) ;
#292 = VERTEX_POINT ( 'NONE', #366 ) ;
#293 = AXIS2_PLACEMENT_3D ( 'NONE', #433, #683, #596 ) ;
#294 = FACE_OUTER_BOUND ( 'NONE', #561, .T. ) ;
#295 = ORIENTED_EDGE ( 'NONE', *, *, #25, .F. ) ;
#296 = AXIS2_PLACEMENT_3D ( 'NONE', #273, #906, #811 ) ;
#297 = AXIS2_PLACEMENT_3D ( 'NONE', #656, #191, #119 ) ;
#298 = LINE ( 'NONE', #687, #174 ) ;
#299 = CARTESIAN_POINT ( 'NONE',  ( -30.00000000000000000, 8.999999999999998224, 0.000000000000000000 ) ) ;
#300 = EDGE_LOOP ( 'NONE', ( #137, #213, #844, #613 ) ) ;
#301 = APPROVAL_ROLE ( '' ) ;
#302 = DIRECTION ( 'NONE',  ( 1.000000000000000000, 0.000000000000000000, 0.000000000000000000 ) ) ;
#303 = CARTESIAN_POINT ( 'NONE',  ( 15.00000000000000178, -9.000000000000003553, -4.500000000000000000 ) ) ;
#304 = AXIS2_PLACEMENT_3D ( 'NONE', #733, #517, #679 ) ;
#305 = ORIENTED_EDGE ( 'NONE', *, *, #575, .F. ) ;
#306 = DIRECTION ( 'NONE',  ( -0.000000000000000000, 1.000000000000000000, 0.000000000000000000 ) ) ;
#307 = CIRCLE ( 'NONE', #407, 2.499999999999998668 ) ;
#308 = CARTESIAN_POINT ( 'NONE',  ( 30.00000000000000355, -9.000000000000005329, -14.00000000000000000 ) ) ;
#309 = ADVANCED_FACE ( 'NONE', ( #927, #378, #911 ), #1001, .F. ) ;
#310 = EDGE_LOOP ( 'NONE', ( #663, #833, #38, #245, #968, #644, #219, #420, #860, #904, #252, #855, #495, #335 ) ) ;
#311 = FACE_OUTER_BOUND ( 'NONE', #439, .T. ) ;
#312 = EDGE_CURVE ( 'NONE', #35, #55, #920, .T. ) ;
#313 = DIRECTION ( 'NONE',  ( -0.000000000000000000, -0.000000000000000000, -1.000000000000000000 ) ) ;
#314 = APPROVAL ( #1014, '未' ) ;
#315 = PERSON ( '未', '未', '未', ('未'), ('未'), ('未') ) ;
#316 = ORIENTED_EDGE ( 'NONE', *, *, #399, .F. ) ;
#317 = PRODUCT_DEFINITION_SHAPE ( 'NONE', 'NONE',  #1022 ) ;
#318 = DIRECTION ( 'NONE',  ( 1.301042606982605321E-16, 0.000000000000000000, -1.000000000000000000 ) ) ;
#319 = CIRCLE ( 'NONE', #1000, 9.000000000000005329 ) ;
#320 = CYLINDRICAL_SURFACE ( 'NONE', #722, 9.000000000000005329 ) ;
#321 = ORIENTED_EDGE ( 'NONE', *, *, #391, .T. ) ;
#322 = CARTESIAN_POINT ( 'NONE',  ( -34.05000000000000426, 6.071532165918824830E-15, -9.500000000000000000 ) ) ;
#323 = ADVANCED_FACE ( 'NONE', ( #1007, #294 ), #215, .T. ) ;
#324 = CARTESIAN_POINT ( 'NONE',  ( 15.00000000000000178, 10.99999999999999822, -4.500000000000000000 ) ) ;
#325 = VERTEX_POINT ( 'NONE', #142 ) ;
#326 = DIRECTION ( 'NONE',  ( -1.000000000000000000, 0.000000000000000000, 0.000000000000000000 ) ) ;
#327 = APPROVAL ( #585, '未' ) ;
#328 = DIRECTION ( 'NONE',  ( -1.000000000000000000, 0.000000000000000000, 0.000000000000000000 ) ) ;
#329 = CARTESIAN_POINT ( 'NONE',  ( 17.50000000000000000, 10.99999999999999822, -6.999999999999999112 ) ) ;
#330 = CARTESIAN_POINT ( 'NONE',  ( -34.05000000000000426, 6.071532165918824830E-15, -14.00000000000000000 ) ) ;
#331 = FACE_OUTER_BOUND ( 'NONE', #350, .T. ) ;
#332 = VECTOR ( 'NONE', #712, 1000.000000000000000 ) ;
#333 = CARTESIAN_POINT ( 'NONE',  ( -30.00000000000000000, 8.999999999999998224, -14.00000000000000000 ) ) ;
#334 = AXIS2_PLACEMENT_3D ( 'NONE', #784, #556, #463 ) ;
#335 = ORIENTED_EDGE ( 'NONE', *, *, #392, .T. ) ;
#336 = CYLINDRICAL_SURFACE ( 'NONE', #226, 9.000000000000001776 ) ;
#337 = EDGE_CURVE ( 'NONE', #505, #658, #774, .T. ) ;
#338 = CARTESIAN_POINT ( 'NONE',  ( 17.50000000000000000, 10.99999999999999822, -6.999999999999997335 ) ) ;
#339 = ORIENTED_EDGE ( 'NONE', *, *, #280, .T. ) ;
#340 = DIRECTION ( 'NONE',  ( 1.000000000000000000, 0.000000000000000000, 0.000000000000000000 ) ) ;
#341 = ORIENTED_EDGE ( 'NONE', *, *, #758, .T. ) ;
#342 = DIRECTION ( 'NONE',  ( 0.000000000000000000, 0.000000000000000000, 1.000000000000000000 ) ) ;
#343 = LOCAL_TIME ( 21, 19, 7.000000000000000000, #363 ) ;
#344 = FACE_OUTER_BOUND ( 'NONE', #149, .T. ) ;
#345 = ORIENTED_EDGE ( 'NONE', *, *, #936, .T. ) ;
#346 = LINE ( 'NONE', #899, #83 ) ;
#347 = ORIENTED_EDGE ( 'NONE', *, *, #461, .T. ) ;
#348 = FACE_OUTER_BOUND ( 'NONE', #362, .T. ) ;
#349 = CIRCLE ( 'NONE', #581, 2.500000000000000444 ) ;
#350 = EDGE_LOOP ( 'NONE', ( #197, #454, #52, #568 ) ) ;
#351 = DIRECTION ( 'NONE',  ( 0.000000000000000000, -1.000000000000000000, -0.000000000000000000 ) ) ;
#352 = ADVANCED_FACE ( 'NONE', ( #513 ), #124, .T. ) ;
#353 = VERTEX_POINT ( 'NONE', #240 ) ;
#354 = EDGE_CURVE ( 'NONE', #270, #325, #1009, .T. ) ;
#355 = CIRCLE ( 'NONE', #751, 4.049999999999998046 ) ;
#356 = DIRECTION ( 'NONE',  ( -0.000000000000000000, -0.000000000000000000, -1.000000000000000000 ) ) ;
#357 = VERTEX_POINT ( 'NONE', #393 ) ;
#358 = AXIS2_PLACEMENT_3D ( 'NONE', #979, #497, #492 ) ;
#359 = ORIENTED_EDGE ( 'NONE', *, *, #102, .F. ) ;
#360 = APPROVAL ( #765, '未' ) ;
#361 = FACE_BOUND ( 'NONE', #478, .T. ) ;
#362 = EDGE_LOOP ( 'NONE', ( #684, #688, #85, #912 ) ) ;
#363 = COORDINATED_UNIVERSAL_TIME_OFFSET ( 8, 0, .AHEAD. ) ;
#364 = LINE ( 'NONE', #840, #1021 ) ;
#365 = VERTEX_POINT ( 'NONE', #714 ) ;
#366 = CARTESIAN_POINT ( 'NONE',  ( 30.00000000000000000, 9.000000000000001776, -4.499999999999999112 ) ) ;
#367 = VERTEX_POINT ( 'NONE', #782 ) ;
#368 = DATE_AND_TIME ( #933, #476 ) ;
#369 = AXIS2_PLACEMENT_3D ( 'NONE', #480, #869, #791 ) ;
#370 = DIRECTION ( 'NONE',  ( 1.000000000000000000, 0.000000000000000000, -1.734723475976806700E-15 ) ) ;
#371 = EDGE_LOOP ( 'NONE', ( #985, #987, #882, #289 ) ) ;
#372 = CYLINDRICAL_SURFACE ( 'NONE', #293, 4.049999999999998046 ) ;
#373 = VERTEX_POINT ( 'NONE', #152 ) ;
#374 = ADVANCED_FACE ( 'NONE', ( #872, #797 ), #471, .T. ) ;
#375 = CARTESIAN_POINT ( 'NONE',  ( 30.00000000000000355, -8.673617379884035472E-16, -4.499999999999999112 ) ) ;
#376 = ORIENTED_EDGE ( 'NONE', *, *, #150, .F. ) ;
#377 = AXIS2_PLACEMENT_3D ( 'NONE', #54, #611, #995 ) ;
#378 = FACE_BOUND ( 'NONE', #130, .T. ) ;
#379 = ORIENTED_EDGE ( 'NONE', *, *, #459, .F. ) ;
#380 = PERSON_AND_ORGANIZATION ( #315, #429 ) ;
#381 = CARTESIAN_POINT ( 'NONE',  ( -5.204170427930423255E-16, 9.000000000000000000, -7.000000000000000000 ) ) ;
#382 = FACE_OUTER_BOUND ( 'NONE', #371, .T. ) ;
#383 = ORIENTED_EDGE ( 'NONE', *, *, #969, .F. ) ;
#384 = COORDINATED_UNIVERSAL_TIME_OFFSET ( 8, 0, .AHEAD. ) ;
#385 = CYLINDRICAL_SURFACE ( 'NONE', #630, 4.049999999999998046 ) ;
#386 = EDGE_CURVE ( 'NONE', #35, #552, #654, .T. ) ;
#387 = DIRECTION ( 'NONE',  ( -1.000000000000000000, 0.000000000000000000, -0.000000000000000000 ) ) ;
#388 = AXIS2_PLACEMENT_3D ( 'NONE', #24, #891, #819 ) ;
#389 = DIRECTION ( 'NONE',  ( 0.000000000000000000, 0.000000000000000000, -1.000000000000000000 ) ) ;
#390 = DIRECTION ( 'NONE',  ( 0.000000000000000000, 0.000000000000000000, 1.000000000000000000 ) ) ;
#391 = EDGE_CURVE ( 'NONE', #780, #849, #742, .T. ) ;
#392 = EDGE_CURVE ( 'NONE', #780, #767, #84, .T. ) ;
#393 = CARTESIAN_POINT ( 'NONE',  ( 17.50000000000000000, 9.000000000000000000, -4.499999999999999112 ) ) ;
#394 = EDGE_CURVE ( 'NONE', #292, #357, #403, .T. ) ;
#395 = DIRECTION ( 'NONE',  ( 0.000000000000000000, 0.000000000000000000, 1.000000000000000000 ) ) ;
#396 = APPLICATION_CONTEXT ( 'configuration controlled 3d designs of mechanical parts and assemblies' ) ;
#397 = CARTESIAN_POINT ( 'NONE',  ( -30.00000000000000000, -9.000000000000001776, 0.000000000000000000 ) ) ;
#398 = CARTESIAN_POINT ( 'NONE',  ( 34.05000000000000426, 6.567514119573503285E-15, -14.00000000000000000 ) ) ;
#399 = EDGE_CURVE ( 'NONE', #760, #76, #705, .T. ) ;
#400 = FACE_OUTER_BOUND ( 'NONE', #185, .T. ) ;
#401 = CARTESIAN_POINT ( 'NONE',  ( 17.50000000000000000, -9.000000000000003553, -6.999999999999999112 ) ) ;
#402 = VECTOR ( 'NONE', #865, 1000.000000000000000 ) ;
#403 = LINE ( 'NONE', #477, #487 ) ;
#404 = ORIENTED_EDGE ( 'NONE', *, *, #479, .T. ) ;
#405 = CARTESIAN_POINT ( 'NONE',  ( 17.50000000000000000, 9.000000000000000000, -9.499999999999998224 ) ) ;
#406 = PLANE ( 'NONE',  #388 ) ;
#407 = AXIS2_PLACEMENT_3D ( 'NONE', #972, #259, #110 ) ;
#408 = DIRECTION ( 'NONE',  ( -1.000000000000000000, 0.000000000000000000, 0.000000000000000000 ) ) ;
#409 = CARTESIAN_POINT ( 'NONE',  ( 30.00000000000000000, -9.000000000000003553, -9.500000000000000000 ) ) ;
#410 = FACE_OUTER_BOUND ( 'NONE', #29, .T. ) ;
#411 = LINE ( 'NONE', #333, #878 ) ;
#412 = ORIENTED_EDGE ( 'NONE', *, *, #686, .F. ) ;
#413 = DIRECTION ( 'NONE',  ( -1.000000000000000000, 0.000000000000000000, 0.000000000000000000 ) ) ;
#414 = EDGE_CURVE ( 'NONE', #552, #592, #625, .T. ) ;
#415 = CARTESIAN_POINT ( 'NONE',  ( 30.00000000000000711, 6.071532165918824830E-15, -14.00000000000000000 ) ) ;
#416 = AXIS2_PLACEMENT_3D ( 'NONE', #957, #173, #801 ) ;
#417 = FACE_OUTER_BOUND ( 'NONE', #43, .T. ) ;
#418 = AXIS2_PLACEMENT_3D ( 'NONE', #660, #20, #504 ) ;
#419 = ADVANCED_FACE ( 'NONE', ( #382 ), #320, .T. ) ;
#420 = ORIENTED_EDGE ( 'NONE', *, *, #864, .F. ) ;
#421 = DIRECTION ( 'NONE',  ( 1.000000000000000000, 0.000000000000000000, 0.000000000000000000 ) ) ;
#422 = CARTESIAN_POINT ( 'NONE',  ( -30.00000000000000711, 6.071532165918824830E-15, -4.499999999999999112 ) ) ;
#423 = EDGE_CURVE ( 'NONE', #9, #450, #941, .T. ) ;
#424 = CARTESIAN_POINT ( 'NONE',  ( 25.95000000000000639, 6.071532165918824830E-15, 0.000000000000000000 ) ) ;
#425 = ORIENTED_EDGE ( 'NONE', *, *, #896, .T. ) ;
#426 = DIRECTION ( 'NONE',  ( -0.000000000000000000, 1.000000000000000000, -0.000000000000000000 ) ) ;
#427 = AXIS2_PLACEMENT_3D ( 'NONE', #206, #519, #763 ) ;
#428 = CIRCLE ( 'NONE', #474, 9.000000000000005329 ) ;
#429 = ORGANIZATION ( '未', '未', '' ) ;
#430 = CARTESIAN_POINT ( 'NONE',  ( -5.204170427930423255E-16, -9.000000000000003553, -7.000000000000000000 ) ) ;
#431 = ADVANCED_FACE ( 'NONE', ( #862, #87 ), #74, .T. ) ;
#432 = ORIENTED_EDGE ( 'NONE', *, *, #829, .T. ) ;
#433 = CARTESIAN_POINT ( 'NONE',  ( 30.00000000000000711, 6.071532165918824830E-15, -14.00000000000000000 ) ) ;
#434 = VERTEX_POINT ( 'NONE', #467 ) ;
#435 = EDGE_CURVE ( 'NONE', #277, #256, #807, .T. ) ;
#436 = ORIENTED_EDGE ( 'NONE', *, *, #68, .F. ) ;
#437 = CIRCLE ( 'NONE', #704, 4.049999999999998046 ) ;
#438 = DIRECTION ( 'NONE',  ( -0.000000000000000000, -0.000000000000000000, -1.000000000000000000 ) ) ;
#439 = EDGE_LOOP ( 'NONE', ( #80, #526, #425, #282 ) ) ;
#440 = VECTOR ( 'NONE', #457, 1000.000000000000000 ) ;
#441 = DIRECTION ( 'NONE',  ( -1.000000000000000000, 0.000000000000000000, 0.000000000000000000 ) ) ;
#442 = ORIENTED_EDGE ( 'NONE', *, *, #675, .F. ) ;
#443 = LINE ( 'NONE', #1012, #922 ) ;
#444 = ORIENTED_EDGE ( 'NONE', *, *, #399, .T. ) ;
#445 = PERSON_AND_ORGANIZATION_ROLE ( 'creator' ) ;
#446 = DIRECTION ( 'NONE',  ( 1.000000000000000000, 0.000000000000000000, 0.000000000000000000 ) ) ;
#447 = ORIENTED_EDGE ( 'NONE', *, *, #777, .T. ) ;
#448 = CARTESIAN_POINT ( 'NONE',  ( 30.00000000000000000, 9.000000000000000000, -14.00000000000000000 ) ) ;
#449 = AXIS2_PLACEMENT_3D ( 'NONE', #1020, #306, #223 ) ;
#450 = VERTEX_POINT ( 'NONE', #554 ) ;
#451 = DIRECTION ( 'NONE',  ( -1.000000000000000000, 0.000000000000000000, 0.000000000000000000 ) ) ;
#452 = VERTEX_POINT ( 'NONE', #79 ) ;
#453 = FACE_OUTER_BOUND ( 'NONE', #610, .T. ) ;
#454 = ORIENTED_EDGE ( 'NONE', *, *, #496, .F. ) ;
#455 = DATE_AND_TIME ( #145, #975 ) ;
#456 = LINE ( 'NONE', #229, #78 ) ;
#457 = DIRECTION ( 'NONE',  ( -0.000000000000000000, -1.000000000000000000, -0.000000000000000000 ) ) ;
#458 = EDGE_LOOP ( 'NONE', ( #112, #808 ) ) ;
#459 = EDGE_CURVE ( 'NONE', #629, #242, #148, .T. ) ;
#460 = DIRECTION ( 'NONE',  ( 0.000000000000000000, 0.000000000000000000, 1.000000000000000000 ) ) ;
#461 = EDGE_CURVE ( 'NONE', #353, #277, #166, .T. ) ;
#462 = CARTESIAN_POINT ( 'NONE',  ( -30.00000000000000711, 6.071532165918824830E-15, -4.499999999999999112 ) ) ;
#463 = DIRECTION ( 'NONE',  ( -1.000000000000000000, 0.000000000000000000, 0.000000000000000000 ) ) ;
#464 = AXIS2_PLACEMENT_3D ( 'NONE', #401, #163, #17 ) ;
#465 = DIRECTION ( 'NONE',  ( 0.000000000000000000, 0.000000000000000000, 1.000000000000000000 ) ) ;
#466 = CC_DESIGN_PERSON_AND_ORGANIZATION_ASSIGNMENT ( #697, #997, ( #795 ) ) ;
#467 = CARTESIAN_POINT ( 'NONE',  ( 30.00000000000000000, 9.000000000000001776, -9.500000000000000000 ) ) ;
#468 = ORIENTED_EDGE ( 'NONE', *, *, #95, .F. ) ;
#469 = CARTESIAN_POINT ( 'NONE',  ( -30.00000000000000000, 8.999999999999998224, -9.499999999999991118 ) ) ;
#470 = PRODUCT ( 'slider', 'slider', '', ( #822 ) ) ;
#471 = PLANE ( 'NONE',  #81 ) ;
#472 = AXIS2_PLACEMENT_3D ( 'NONE', #221, #529, #670 ) ;
#473 = VERTEX_POINT ( 'NONE', #955 ) ;
#474 = AXIS2_PLACEMENT_3D ( 'NONE', #264, #980, #892 ) ;
#475 = DIRECTION ( 'NONE',  ( 0.000000000000000000, 0.000000000000000000, 1.000000000000000000 ) ) ;
#476 = LOCAL_TIME ( 21, 19, 7.000000000000000000, #384 ) ;
#477 = CARTESIAN_POINT ( 'NONE',  ( -30.00000000000000000, 8.999999999999998224, -4.499999999999999112 ) ) ;
#478 = EDGE_LOOP ( 'NONE', ( #672, #284 ) ) ;
#479 = EDGE_CURVE ( 'NONE', #1003, #804, #131, .T. ) ;
#480 = CARTESIAN_POINT ( 'NONE',  ( -30.00000000000000711, 6.071532165918824830E-15, -14.00000000000000000 ) ) ;
#481 = CIRCLE ( 'NONE', #155, 4.049999999999998046 ) ;
#482 = CARTESIAN_POINT ( 'NONE',  ( -30.00000000000000711, 6.071532165918824830E-15, 0.000000000000000000 ) ) ;
#483 = EDGE_LOOP ( 'NONE', ( #179, #537, #514, #167 ) ) ;
#484 = AXIS2_PLACEMENT_3D ( 'NONE', #103, #652, #154 ) ;
#485 = CARTESIAN_POINT ( 'NONE',  ( 17.50000000000000000, -9.000000000000003553, -6.999999999999997335 ) ) ;
#486 = DIRECTION ( 'NONE',  ( -0.000000000000000000, -0.000000000000000000, -1.000000000000000000 ) ) ;
#487 = VECTOR ( 'NONE', #4, 1000.000000000000000 ) ;
#488 = CARTESIAN_POINT ( 'NONE',  ( 15.00000000000000178, -9.000000000000003553, -6.999999999999999112 ) ) ;
#489 = ORIENTED_EDGE ( 'NONE', *, *, #312, .F. ) ;
#490 = PLANE ( 'NONE',  #416 ) ;
#491 = EDGE_CURVE ( 'NONE', #473, #736, #859, .T. ) ;
#492 = DIRECTION ( 'NONE',  ( 1.000000000000000000, 0.000000000000000000, 0.000000000000000000 ) ) ;
#493 = EDGE_CURVE ( 'NONE', #598, #690, #147, .T. ) ;
#494 = CARTESIAN_POINT ( 'NONE',  ( 39.00000000000000711, -8.673617379884035472E-16, -4.499999999999999112 ) ) ;
#495 = ORIENTED_EDGE ( 'NONE', *, *, #575, .T. ) ;
#496 = EDGE_CURVE ( 'NONE', #736, #623, #307, .T. ) ;
#497 = DIRECTION ( 'NONE',  ( 1.301042606982605321E-16, -0.000000000000000000, 1.000000000000000000 ) ) ;
#498 = AXIS2_PLACEMENT_3D ( 'NONE', #549, #90, #558 ) ;
#499 = ADVANCED_BREP_SHAPE_REPRESENTATION ( 'slider', ( #810, #217 ), #559 ) ;
#500 = LINE ( 'NONE', #193, #647 ) ;
#501 = ORIENTED_EDGE ( 'NONE', *, *, #691, .F. ) ;
#502 = DIRECTION ( 'NONE',  ( 1.301042606982605321E-16, -0.000000000000000000, 1.000000000000000000 ) ) ;
#503 = EDGE_CURVE ( 'NONE', #505, #898, #93, .T. ) ;
#504 = DIRECTION ( 'NONE',  ( 1.000000000000000000, 0.000000000000000000, -0.000000000000000000 ) ) ;
#505 = VERTEX_POINT ( 'NONE', #97 ) ;
#506 =( NAMED_UNIT ( * ) PLANE_ANGLE_UNIT ( ) SI_UNIT ( $, .RADIAN. ) );
#507 = AXIS2_PLACEMENT_3D ( 'NONE', #7, #1023, #708 ) ;
#508 = DIRECTION ( 'NONE',  ( -0.000000000000000000, -0.000000000000000000, -1.000000000000000000 ) ) ;
#509 = ORIENTED_EDGE ( 'NONE', *, *, #491, .F. ) ;
#510 = EDGE_CURVE ( 'NONE', #767, #909, #809, .T. ) ;
#511 = CARTESIAN_POINT ( 'NONE',  ( 30.00000000000000711, 6.071532165918824830E-15, -9.500000000000000000 ) ) ;
#512 = EDGE_LOOP ( 'NONE', ( #287, #773, #235, #339 ) ) ;
#513 = FACE_OUTER_BOUND ( 'NONE', #139, .T. ) ;
#514 = ORIENTED_EDGE ( 'NONE', *, *, #864, .T. ) ;
#515 = LINE ( 'NONE', #837, #926 ) ;
#516 = AXIS2_PLACEMENT_3D ( 'NONE', #986, #820, #903 ) ;
#517 = DIRECTION ( 'NONE',  ( -0.000000000000000000, 1.000000000000000000, 0.000000000000000000 ) ) ;
#518 = ORIENTED_EDGE ( 'NONE', *, *, #392, .F. ) ;
#519 = DIRECTION ( 'NONE',  ( -0.000000000000000000, -0.000000000000000000, -1.000000000000000000 ) ) ;
#520 = VERTEX_POINT ( 'NONE', #51 ) ;
#521 = DIRECTION ( 'NONE',  ( -0.000000000000000000, -0.000000000000000000, -1.000000000000000000 ) ) ;
#522 = EDGE_CURVE ( 'NONE', #804, #1003, #889, .T. ) ;
#523 = ORIENTED_EDGE ( 'NONE', *, *, #682, .F. ) ;
#524 = DIRECTION ( 'NONE',  ( 1.000000000000000000, -5.782411586589357392E-17, 1.301042606982605321E-16 ) ) ;
#525 = CC_DESIGN_APPROVAL ( #327, ( #1022 ) ) ;
#526 = ORIENTED_EDGE ( 'NONE', *, *, #789, .F. ) ;
#527 = CARTESIAN_POINT ( 'NONE',  ( -15.00000000000000178, 8.999999999999998224, -6.999999999999997335 ) ) ;
#528 = VERTEX_POINT ( 'NONE', #186 ) ;
#529 = DIRECTION ( 'NONE',  ( -2.891205793294678696E-17, 1.000000000000000000, 0.000000000000000000 ) ) ;
#530 = CIRCLE ( 'NONE', #664, 2.500000000000000444 ) ;
#531 = ORIENTED_EDGE ( 'NONE', *, *, #170, .T. ) ;
#532 = DATE_TIME_ROLE ( 'classification_date' ) ;
#533 = DIRECTION ( 'NONE',  ( -1.000000000000000000, 0.000000000000000000, 0.000000000000000000 ) ) ;
#534 = CARTESIAN_POINT ( 'NONE',  ( -17.50000000000000000, 8.999999999999998224, -6.999999999999997335 ) ) ;
#535 = EDGE_CURVE ( 'NONE', #677, #47, #355, .T. ) ;
#536 = ADVANCED_FACE ( 'NONE', ( #802, #410 ), #406, .F. ) ;
#537 = ORIENTED_EDGE ( 'NONE', *, *, #984, .T. ) ;
#538 = APPROVAL_DATE_TIME ( #228, #314 ) ;
#539 = CARTESIAN_POINT ( 'NONE',  ( 39.00000000000000711, -8.673617379884035472E-16, 0.000000000000000000 ) ) ;
#540 = AXIS2_PLACEMENT_3D ( 'NONE', #160, #793, #234 ) ;
#541 = CARTESIAN_POINT ( 'NONE',  ( -1.040371310829422326E-16, -9.000000000000003553, -3.600000000000000533 ) ) ;
#542 = ADVANCED_FACE ( 'NONE', ( #331 ), #19, .F. ) ;
#543 = DIRECTION ( 'NONE',  ( 1.000000000000000000, 1.776356839400250070E-15, -1.927470528863117816E-16 ) ) ;
#544 = CALENDAR_DATE ( 2026, 8, 8 ) ;
#545 = ADVANCED_FACE ( 'NONE', ( #267 ), #336, .T. ) ;
#546 = CARTESIAN_POINT ( 'NONE',  ( 39.00000000000000711, -8.673617379884035472E-16, -14.00000000000000000 ) ) ;
#547 = DIRECTION ( 'NONE',  ( 1.000000000000000000, 0.000000000000000000, 0.000000000000000000 ) ) ;
#548 = EDGE_LOOP ( 'NONE', ( #272, #919 ) ) ;
#549 = CARTESIAN_POINT ( 'NONE',  ( 30.00000000000000711, 6.071532165918824830E-15, -14.00000000000000000 ) ) ;
#550 = VECTOR ( 'NONE', #586, 1000.000000000000000 ) ;
#551 = DIRECTION ( 'NONE',  ( 0.000000000000000000, 0.000000000000000000, 1.000000000000000000 ) ) ;
#552 = VERTEX_POINT ( 'NONE', #563 ) ;
#553 = FACE_BOUND ( 'NONE', #680, .T. ) ;
#554 = CARTESIAN_POINT ( 'NONE',  ( 30.00000000000000000, -9.000000000000003553, -4.500000000000000000 ) ) ;
#555 = AXIS2_PLACEMENT_3D ( 'NONE', #815, #120, #225 ) ;
#556 = DIRECTION ( 'NONE',  ( -0.000000000000000000, -0.000000000000000000, -1.000000000000000000 ) ) ;
#557 = VECTOR ( 'NONE', #665, 1000.000000000000000 ) ;
#558 = DIRECTION ( 'NONE',  ( -1.000000000000000000, 0.000000000000000000, 0.000000000000000000 ) ) ;
#559 =( GEOMETRIC_REPRESENTATION_CONTEXT ( 3 ) GLOBAL_UNCERTAINTY_ASSIGNED_CONTEXT ( ( #978 ) ) GLOBAL_UNIT_ASSIGNED_CONTEXT ( ( #271, #506, #651 ) ) REPRESENTATION_CONTEXT ( 'NONE', 'WORKASPACE' ) );
#560 = LINE ( 'NONE', #582, #125 ) ;
#561 = EDGE_LOOP ( 'NONE', ( #913, #747, #999, #261, #743, #359, #345, #951, #852, #2, #700, #775, #794, #436 ) ) ;
#562 = DIRECTION ( 'NONE',  ( -1.301042606982605321E-16, 0.000000000000000000, -1.000000000000000000 ) ) ;
#563 = CARTESIAN_POINT ( 'NONE',  ( 34.05000000000000426, 6.567514119573503285E-15, 0.000000000000000000 ) ) ;
#564 = EDGE_CURVE ( 'NONE', #473, #270, #560, .T. ) ;
#565 = CARTESIAN_POINT ( 'NONE',  ( -30.00000000000000711, 6.071532165918824830E-15, -9.500000000000000000 ) ) ;
#566 = EDGE_LOOP ( 'NONE', ( #265, #812 ) ) ;
#567 = CARTESIAN_POINT ( 'NONE',  ( -30.00000000000000711, 6.071532165918824830E-15, 0.000000000000000000 ) ) ;
#568 = ORIENTED_EDGE ( 'NONE', *, *, #639, .F. ) ;
#569 = FACE_OUTER_BOUND ( 'NONE', #512, .T. ) ;
#570 = AXIS2_PLACEMENT_3D ( 'NONE', #1018, #244, #858 ) ;
#571 = LINE ( 'NONE', #111, #693 ) ;
#572 = EDGE_CURVE ( 'NONE', #690, #325, #262, .T. ) ;
#573 = ORIENTED_EDGE ( 'NONE', *, *, #118, .T. ) ;
#574 = DIRECTION ( 'NONE',  ( -0.000000000000000000, 1.000000000000000000, -0.000000000000000000 ) ) ;
#575 = EDGE_CURVE ( 'NONE', #690, #780, #364, .T. ) ;
#576 = DIRECTION ( 'NONE',  ( 2.891205793294678696E-17, -1.000000000000000000, -0.000000000000000000 ) ) ;
#577 = DIRECTION ( 'NONE',  ( 0.000000000000000000, 0.000000000000000000, -1.000000000000000000 ) ) ;
#578 = ORIENTED_EDGE ( 'NONE', *, *, #894, .F. ) ;
#579 = CARTESIAN_POINT ( 'NONE',  ( -25.95000000000000639, 6.567514119573503285E-15, -14.00000000000000000 ) ) ;
#580 = DESIGN_CONTEXT ( 'detailed design', #396, 'design' ) ;
#581 = AXIS2_PLACEMENT_3D ( 'NONE', #781, #72, #692 ) ;
#582 = CARTESIAN_POINT ( 'NONE',  ( -30.00000000000000000, 8.999999999999998224, -9.500000000000000000 ) ) ;
#583 = CYLINDRICAL_SURFACE ( 'NONE', #296, 4.049999999999998046 ) ;
#584 = EDGE_LOOP ( 'NONE', ( #509, #66, #412, #932 ) ) ;
#585 = APPROVAL_STATUS ( 'not_yet_approved' ) ;
#586 = DIRECTION ( 'NONE',  ( 0.000000000000000000, 0.000000000000000000, 1.000000000000000000 ) ) ;
#587 = AXIS2_PLACEMENT_3D ( 'NONE', #534, #576, #328 ) ;
#588 = VERTEX_POINT ( 'NONE', #128 ) ;
#589 = DIRECTION ( 'NONE',  ( -0.000000000000000000, -0.000000000000000000, -1.000000000000000000 ) ) ;
#590 = ORIENTED_EDGE ( 'NONE', *, *, #762, .T. ) ;
#591 = FACE_OUTER_BOUND ( 'NONE', #59, .T. ) ;
#592 = VERTEX_POINT ( 'NONE', #759 ) ;
#593 = DIRECTION ( 'NONE',  ( -0.000000000000000000, -0.000000000000000000, -1.000000000000000000 ) ) ;
#594 = ORIENTED_EDGE ( 'NONE', *, *, #207, .F. ) ;
#595 = VECTOR ( 'NONE', #635, 1000.000000000000000 ) ;
#596 = DIRECTION ( 'NONE',  ( -1.000000000000000000, 0.000000000000000000, 0.000000000000000000 ) ) ;
#597 = ADVANCED_FACE ( 'NONE', ( #249 ), #881, .F. ) ;
#598 = VERTEX_POINT ( 'NONE', #175 ) ;
#599 = CALENDAR_DATE ( 2026, 8, 8 ) ;
#600 = CARTESIAN_POINT ( 'NONE',  ( -5.204170427930423255E-16, -9.000000000000003553, -7.000000000000000000 ) ) ;
#601 = ORIENTED_EDGE ( 'NONE', *, *, #391, .F. ) ;
#602 = EDGE_CURVE ( 'NONE', #190, #658, #437, .T. ) ;
#603 = DIRECTION ( 'NONE',  ( -1.000000000000000000, 0.000000000000000000, 0.000000000000000000 ) ) ;
#604 = ORIENTED_EDGE ( 'NONE', *, *, #564, .T. ) ;
#605 = COORDINATED_UNIVERSAL_TIME_OFFSET ( 8, 0, .AHEAD. ) ;
#606 = ADVANCED_FACE ( 'NONE', ( #569 ), #181, .F. ) ;
#607 = CC_DESIGN_SECURITY_CLASSIFICATION ( #795, ( #695 ) ) ;
#608 = CARTESIAN_POINT ( 'NONE',  ( 25.95000000000000639, 6.071532165918824830E-15, -14.00000000000000000 ) ) ;
#609 = VECTOR ( 'NONE', #848, 1000.000000000000000 ) ;
#610 = EDGE_LOOP ( 'NONE', ( #1006, #757, #216, #153 ) ) ;
#611 = DIRECTION ( 'NONE',  ( 1.301042606982605321E-16, -0.000000000000000000, 1.000000000000000000 ) ) ;
#612 = AXIS2_PLACEMENT_3D ( 'NONE', #511, #502, #340 ) ;
#613 = ORIENTED_EDGE ( 'NONE', *, *, #572, .T. ) ;
#614 = FACE_OUTER_BOUND ( 'NONE', #584, .T. ) ;
#615 = EDGE_CURVE ( 'NONE', #528, #846, #456, .T. ) ;
#616 = DIRECTION ( 'NONE',  ( -1.000000000000000000, 0.000000000000000000, 0.000000000000000000 ) ) ;
#617 = CIRCLE ( 'NONE', #269, 9.000000000000005329 ) ;
#618 = ORIENTED_EDGE ( 'NONE', *, *, #57, .T. ) ;
#619 = PERSON_AND_ORGANIZATION ( #315, #429 ) ;
#620 = DIRECTION ( 'NONE',  ( -1.000000000000000000, 0.000000000000000000, -1.040834085586084059E-15 ) ) ;
#621 = AXIS2_PLACEMENT_3D ( 'NONE', #77, #465, #851 ) ;
#622 = DIRECTION ( 'NONE',  ( -0.000000000000000000, -0.000000000000000000, -1.000000000000000000 ) ) ;
#623 = VERTEX_POINT ( 'NONE', #1010 ) ;
#624 = LINE ( 'NONE', #857, #900 ) ;
#625 = LINE ( 'NONE', #398, #48 ) ;
#626 = FACE_OUTER_BOUND ( 'NONE', #799, .T. ) ;
#627 = DIRECTION ( 'NONE',  ( 5.782411586589357392E-17, 1.000000000000000000, -0.000000000000000000 ) ) ;
#628 = DIRECTION ( 'NONE',  ( -1.000000000000000000, 0.000000000000000000, 0.000000000000000000 ) ) ;
#629 = VERTEX_POINT ( 'NONE', #845 ) ;
#630 = AXIS2_PLACEMENT_3D ( 'NONE', #211, #521, #451 ) ;
#631 = AXIS2_PLACEMENT_3D ( 'NONE', #184, #275, #413 ) ;
#632 = DIRECTION ( 'NONE',  ( -0.000000000000000000, 0.000000000000000000, -1.000000000000000000 ) ) ;
#633 = DIRECTION ( 'NONE',  ( -0.000000000000000000, -0.000000000000000000, -1.000000000000000000 ) ) ;
#634 = DIRECTION ( 'NONE',  ( -1.301042606982605321E-16, 0.000000000000000000, -1.000000000000000000 ) ) ;
#635 = DIRECTION ( 'NONE',  ( -1.000000000000000000, 0.000000000000000000, 0.000000000000000000 ) ) ;
#636 = DIRECTION ( 'NONE',  ( 1.000000000000000000, 0.000000000000000000, 0.000000000000000000 ) ) ;
#637 = ORIENTED_EDGE ( 'NONE', *, *, #510, .F. ) ;
#638 = DIRECTION ( 'NONE',  ( 1.000000000000000000, 0.000000000000000000, -1.927470528863117816E-16 ) ) ;
#639 = EDGE_CURVE ( 'NONE', #836, #365, #45, .T. ) ;
#640 = DIRECTION ( 'NONE',  ( 0.000000000000000000, 0.000000000000000000, -1.000000000000000000 ) ) ;
#641 = EDGE_CURVE ( 'NONE', #373, #764, #839, .T. ) ;
#642 = DIRECTION ( 'NONE',  ( -0.000000000000000000, 1.000000000000000000, 0.000000000000000000 ) ) ;
#643 = DIRECTION ( 'NONE',  ( 1.000000000000000000, 2.891205793294678696E-17, -1.301042606982605321E-16 ) ) ;
#644 = ORIENTED_EDGE ( 'NONE', *, *, #798, .F. ) ;
#645 = DIRECTION ( 'NONE',  ( -1.000000000000000000, -2.891205793294678696E-17, -1.301042606982605321E-16 ) ) ;
#646 = EDGE_CURVE ( 'NONE', #242, #846, #668, .T. ) ;
#647 = VECTOR ( 'NONE', #182, 1000.000000000000000 ) ;
#648 = DIRECTION ( 'NONE',  ( 0.000000000000000000, 0.000000000000000000, 1.000000000000000000 ) ) ;
#649 = AXIS2_PLACEMENT_3D ( 'NONE', #785, #918, #620 ) ;
#650 = VERTEX_POINT ( 'NONE', #539 ) ;
#651 =( NAMED_UNIT ( * ) SI_UNIT ( $, .STERADIAN. ) SOLID_ANGLE_UNIT ( ) );
#652 = DIRECTION ( 'NONE',  ( -0.000000000000000000, -0.000000000000000000, -1.000000000000000000 ) ) ;
#653 = DIRECTION ( 'NONE',  ( 0.000000000000000000, 0.000000000000000000, -1.000000000000000000 ) ) ;
#654 = CIRCLE ( 'NONE', #162, 4.049999999999998046 ) ;
#655 = ORIENTED_EDGE ( 'NONE', *, *, #646, .F. ) ;
#656 = CARTESIAN_POINT ( 'NONE',  ( 30.00000000000000711, 6.071532165918824830E-15, 0.000000000000000000 ) ) ;
#657 = CIRCLE ( 'NONE', #612, 4.049999999999998046 ) ;
#658 = VERTEX_POINT ( 'NONE', #608 ) ;
#659 = CARTESIAN_POINT ( 'NONE',  ( -30.00000000000000000, 0.000000000000000000, -14.00000000000000000 ) ) ;
#660 = CARTESIAN_POINT ( 'NONE',  ( -15.00000000000000178, 10.99999999999999822, -4.500000000000000000 ) ) ;
#661 = ORIENTED_EDGE ( 'NONE', *, *, #777, .F. ) ;
#662 = PERSON_AND_ORGANIZATION ( #315, #429 ) ;
#663 = ORIENTED_EDGE ( 'NONE', *, *, #510, .T. ) ;
#664 = AXIS2_PLACEMENT_3D ( 'NONE', #140, #924, #446 ) ;
#665 = DIRECTION ( 'NONE',  ( 0.000000000000000000, 0.000000000000000000, 1.000000000000000000 ) ) ;
#666 = ORIENTED_EDGE ( 'NONE', *, *, #435, .T. ) ;
#667 = LINE ( 'NONE', #673, #783 ) ;
#668 = CIRCLE ( 'NONE', #621, 9.000000000000001776 ) ;
#669 = VERTEX_POINT ( 'NONE', #934 ) ;
#670 = DIRECTION ( 'NONE',  ( -1.000000000000000000, -2.891205793294678696E-17, 0.000000000000000000 ) ) ;
#671 = AXIS2_PLACEMENT_3D ( 'NONE', #659, #253, #441 ) ;
#672 = ORIENTED_EDGE ( 'NONE', *, *, #503, .F. ) ;
#673 = CARTESIAN_POINT ( 'NONE',  ( -30.00000000000000000, 8.999999999999998224, -14.00000000000000000 ) ) ;
#674 = ORIENTED_EDGE ( 'NONE', *, *, #150, .T. ) ;
#675 = EDGE_CURVE ( 'NONE', #9, #357, #298, .T. ) ;
#676 = CARTESIAN_POINT ( 'NONE',  ( 30.00000000000000355, -8.673617379884035472E-16, -14.00000000000000000 ) ) ;
#677 = VERTEX_POINT ( 'NONE', #998 ) ;
#678 = PERSON_AND_ORGANIZATION ( #315, #429 ) ;
#679 = DIRECTION ( 'NONE',  ( 0.000000000000000000, 0.000000000000000000, 1.000000000000000000 ) ) ;
#680 = EDGE_LOOP ( 'NONE', ( #194, #816 ) ) ;
#681 = CIRCLE ( 'NONE', #867, 9.000000000000005329 ) ;
#682 = EDGE_CURVE ( 'NONE', #520, #650, #617, .T. ) ;
#683 = DIRECTION ( 'NONE',  ( -0.000000000000000000, -0.000000000000000000, -1.000000000000000000 ) ) ;
#684 = ORIENTED_EDGE ( 'NONE', *, *, #535, .F. ) ;
#685 = SECURITY_CLASSIFICATION_LEVEL ( 'unclassified' ) ;
#686 = EDGE_CURVE ( 'NONE', #365, #588, #530, .T. ) ;
#687 = CARTESIAN_POINT ( 'NONE',  ( 17.50000000000000000, 9.000000000000000000, -4.500000000000000000 ) ) ;
#688 = ORIENTED_EDGE ( 'NONE', *, *, #1017, .T. ) ;
#689 = CARTESIAN_POINT ( 'NONE',  ( 25.95000000000000639, 6.071532165918824830E-15, -14.00000000000000000 ) ) ;
#690 = VERTEX_POINT ( 'NONE', #286 ) ;
#691 = EDGE_CURVE ( 'NONE', #650, #916, #224, .T. ) ;
#692 = DIRECTION ( 'NONE',  ( -1.000000000000000000, 0.000000000000000000, 0.000000000000000000 ) ) ;
#693 = VECTOR ( 'NONE', #508, 1000.000000000000000 ) ;
#694 = DIRECTION ( 'NONE',  ( -0.000000000000000000, -0.000000000000000000, -1.000000000000000000 ) ) ;
#695 = PRODUCT_DEFINITION_FORMATION_WITH_SPECIFIED_SOURCE ( '�', '', #470, .NOT_KNOWN. ) ;
#696 = ORIENTED_EDGE ( 'NONE', *, *, #713, .F. ) ;
#697 = PERSON_AND_ORGANIZATION ( #315, #429 ) ;
#698 = FACE_OUTER_BOUND ( 'NONE', #868, .T. ) ;
#699 = CARTESIAN_POINT ( 'NONE',  ( -25.95000000000000639, 6.567514119573503285E-15, -14.00000000000000000 ) ) ;
#700 = ORIENTED_EDGE ( 'NONE', *, *, #496, .T. ) ;
#701 = DATE_TIME_ROLE ( 'creation_date' ) ;
#702 = DIRECTION ( 'NONE',  ( 0.000000000000000000, 0.000000000000000000, -1.000000000000000000 ) ) ;
#703 = AXIS2_PLACEMENT_3D ( 'NONE', #338, #642, #104 ) ;
#704 = AXIS2_PLACEMENT_3D ( 'NONE', #415, #486, #964 ) ;
#705 = LINE ( 'NONE', #541, #440 ) ;
#706 = ORIENTED_EDGE ( 'NONE', *, *, #752, .F. ) ;
#707 = CARTESIAN_POINT ( 'NONE',  ( 30.00000000000000355, -8.673617379884035472E-16, -14.00000000000000000 ) ) ;
#708 = DIRECTION ( 'NONE',  ( -1.000000000000000000, 0.000000000000000000, -1.927470528863118556E-16 ) ) ;
#709 = ADVANCED_FACE ( 'NONE', ( #63 ), #772, .F. ) ;
#710 = DIRECTION ( 'NONE',  ( 1.000000000000000000, 0.000000000000000000, 0.000000000000000000 ) ) ;
#711 = LOCAL_TIME ( 21, 19, 7.000000000000000000, #917 ) ;
#712 = DIRECTION ( 'NONE',  ( -0.000000000000000000, -1.000000000000000000, -0.000000000000000000 ) ) ;
#713 = EDGE_CURVE ( 'NONE', #357, #373, #349, .T. ) ;
#714 = CARTESIAN_POINT ( 'NONE',  ( -15.00000000000000178, -9.000000000000003553, -6.999999999999997335 ) ) ;
#715 = ORIENTED_EDGE ( 'NONE', *, *, #758, .F. ) ;
#716 = CIRCLE ( 'NONE', #930, 4.049999999999998046 ) ;
#717 = CARTESIAN_POINT ( 'NONE',  ( 30.00000000000000355, -8.673617379884035472E-16, -9.500000000000000000 ) ) ;
#718 = DIRECTION ( 'NONE',  ( 0.000000000000000000, 0.000000000000000000, -1.000000000000000000 ) ) ;
#719 = CARTESIAN_POINT ( 'NONE',  ( -5.204170427930423255E-16, -9.000000000000003553, -10.40000000000000036 ) ) ;
#720 = CARTESIAN_POINT ( 'NONE',  ( -25.95000000000000639, 6.567514119573503285E-15, -4.499999999999999112 ) ) ;
#721 = ADVANCED_FACE ( 'NONE', ( #698 ), #385, .F. ) ;
#722 = AXIS2_PLACEMENT_3D ( 'NONE', #156, #551, #779 ) ;
#723 = DIRECTION ( 'NONE',  ( 0.000000000000000000, -0.000000000000000000, 1.000000000000000000 ) ) ;
#724 = CYLINDRICAL_SURFACE ( 'NONE', #116, 2.500000000000000444 ) ;
#725 = CYLINDRICAL_SURFACE ( 'NONE', #498, 4.049999999999998046 ) ;
#726 = CC_DESIGN_DATE_AND_TIME_ASSIGNMENT ( #368, #701, ( #1022 ) ) ;
#727 = DIRECTION ( 'NONE',  ( -0.000000000000000000, -0.000000000000000000, -1.000000000000000000 ) ) ;
#728 = CYLINDRICAL_SURFACE ( 'NONE', #1002, 9.000000000000001776 ) ;
#729 = ORIENTED_EDGE ( 'NONE', *, *, #682, .T. ) ;
#730 = CARTESIAN_POINT ( 'NONE',  ( 30.00000000000000355, -9.000000000000005329, -14.00000000000000000 ) ) ;
#731 = APPLICATION_CONTEXT ( 'configuration controlled 3d designs of mechanical parts and assemblies' ) ;
#732 = AXIS2_PLACEMENT_3D ( 'NONE', #6, #632, #94 ) ;
#733 = CARTESIAN_POINT ( 'NONE',  ( -17.50000000000000000, 10.99999999999999822, -6.999999999999999112 ) ) ;
#734 = AXIS2_PLACEMENT_3D ( 'NONE', #13, #250, #389 ) ;
#735 = FACE_BOUND ( 'NONE', #925, .T. ) ;
#736 = VERTEX_POINT ( 'NONE', #527 ) ;
#737 = PERSON_AND_ORGANIZATION_ROLE ( 'design_owner' ) ;
#738 = ORIENTED_EDGE ( 'NONE', *, *, #954, .F. ) ;
#739 = DIRECTION ( 'NONE',  ( -1.000000000000000000, 0.000000000000000000, 0.000000000000000000 ) ) ;
#740 = APPROVAL_PERSON_ORGANIZATION ( #56, #314, #301 ) ;
#741 = CARTESIAN_POINT ( 'NONE',  ( -30.00000000000000000, 0.000000000000000000, -14.00000000000000000 ) ) ;
#742 = CIRCLE ( 'NONE', #540, 9.000000000000005329 ) ;
#743 = ORIENTED_EDGE ( 'NONE', *, *, #832, .T. ) ;
#744 = CARTESIAN_POINT ( 'NONE',  ( 30.00000000000000000, 9.000000000000000000, 0.000000000000000000 ) ) ;
#745 = CIRCLE ( 'NONE', #33, 3.399999999999999467 ) ;
#746 = CARTESIAN_POINT ( 'NONE',  ( 39.00000000000000711, -8.673617379884035472E-16, -14.00000000000000000 ) ) ;
#747 = ORIENTED_EDGE ( 'NONE', *, *, #394, .T. ) ;
#748 = LINE ( 'NONE', #730, #1011 ) ;
#749 = PLANE ( 'NONE',  #377 ) ;
#750 = EDGE_LOOP ( 'NONE', ( #841, #1008, #729, #977, #939 ) ) ;
#751 = AXIS2_PLACEMENT_3D ( 'NONE', #482, #727, #739 ) ;
#752 = EDGE_CURVE ( 'NONE', #760, #367, #188, .T. ) ;
#753 = ORIENTED_EDGE ( 'NONE', *, *, #910, .T. ) ;
#754 = ADVANCED_FACE ( 'NONE', ( #614 ), #58, .F. ) ;
#755 = CYLINDRICAL_SURFACE ( 'NONE', #875, 4.049999999999998046 ) ;
#756 = VECTOR ( 'NONE', #902, 1000.000000000000000 ) ;
#757 = ORIENTED_EDGE ( 'NONE', *, *, #143, .T. ) ;
#758 = EDGE_CURVE ( 'NONE', #204, #292, #8, .T. ) ;
#759 = CARTESIAN_POINT ( 'NONE',  ( 34.05000000000000426, 6.567514119573503285E-15, -4.499999999999999112 ) ) ;
#760 = VERTEX_POINT ( 'NONE', #778 ) ;
#761 = EDGE_CURVE ( 'NONE', #588, #473, #624, .T. ) ;
#762 = EDGE_CURVE ( 'NONE', #849, #669, #69, .T. ) ;
#763 = DIRECTION ( 'NONE',  ( -1.000000000000000000, 0.000000000000000000, 0.000000000000000000 ) ) ;
#764 = VERTEX_POINT ( 'NONE', #405 ) ;
#765 = APPROVAL_STATUS ( 'not_yet_approved' ) ;
#766 = CARTESIAN_POINT ( 'NONE',  ( 30.00000000000000355, -8.673617379884035472E-16, 0.000000000000000000 ) ) ;
#767 = VERTEX_POINT ( 'NONE', #409 ) ;
#768 = AXIS2_PLACEMENT_3D ( 'NONE', #375, #940, #533 ) ;
#769 = CIRCLE ( 'NONE', #732, 9.000000000000001776 ) ;
#770 = LINE ( 'NONE', #854, #114 ) ;
#771 = ORIENTED_EDGE ( 'NONE', *, *, #207, .T. ) ;
#772 = CYLINDRICAL_SURFACE ( 'NONE', #800, 3.399999999999999467 ) ;
#773 = ORIENTED_EDGE ( 'NONE', *, *, #1016, .T. ) ;
#774 = LINE ( 'NONE', #200, #971 ) ;
#775 = ORIENTED_EDGE ( 'NONE', *, *, #966, .F. ) ;
#776 = PERSON_AND_ORGANIZATION ( #315, #429 ) ;
#777 = EDGE_CURVE ( 'NONE', #353, #863, #716, .T. ) ;
#778 = CARTESIAN_POINT ( 'NONE',  ( -1.040371310829422326E-16, 9.000000000000000000, -3.600000000000000533 ) ) ;
#779 = DIRECTION ( 'NONE',  ( 1.000000000000000000, 0.000000000000000000, 0.000000000000000000 ) ) ;
#780 = VERTEX_POINT ( 'NONE', #247 ) ;
#781 = CARTESIAN_POINT ( 'NONE',  ( 17.50000000000000000, 9.000000000000000000, -6.999999999999999112 ) ) ;
#782 = CARTESIAN_POINT ( 'NONE',  ( -5.204170427930423255E-16, 9.000000000000000000, -10.40000000000000036 ) ) ;
#783 = VECTOR ( 'NONE', #988, 1000.000000000000000 ) ;
#784 = CARTESIAN_POINT ( 'NONE',  ( 30.00000000000000711, 6.071532165918824830E-15, -14.00000000000000000 ) ) ;
#785 = CARTESIAN_POINT ( 'NONE',  ( 17.50000000000000000, 9.000000000000000000, -6.999999999999997335 ) ) ;
#786 = AXIS2_PLACEMENT_3D ( 'NONE', #430, #16, #653 ) ;
#787 = EDGE_CURVE ( 'NONE', #909, #171, #853, .T. ) ;
#788 = DIRECTION ( 'NONE',  ( -0.000000000000000000, -0.000000000000000000, -1.000000000000000000 ) ) ;
#789 = EDGE_CURVE ( 'NONE', #47, #677, #481, .T. ) ;
#790 = ORIENTED_EDGE ( 'NONE', *, *, #936, .F. ) ;
#791 = DIRECTION ( 'NONE',  ( -1.000000000000000000, 0.000000000000000000, 0.000000000000000000 ) ) ;
#792 = EDGE_CURVE ( 'NONE', #669, #767, #681, .T. ) ;
#793 = DIRECTION ( 'NONE',  ( 0.000000000000000000, 0.000000000000000000, 1.000000000000000000 ) ) ;
#794 = ORIENTED_EDGE ( 'NONE', *, *, #459, .T. ) ;
#795 = SECURITY_CLASSIFICATION ( '', '', #685 ) ;
#796 = CARTESIAN_POINT ( 'NONE',  ( 17.50000000000000000, -9.000000000000005329, -9.499999999999998224 ) ) ;
#797 = FACE_OUTER_BOUND ( 'NONE', #141, .T. ) ;
#798 = EDGE_CURVE ( 'NONE', #846, #520, #949, .T. ) ;
#799 = EDGE_LOOP ( 'NONE', ( #321, #590, #208, #518 ) ) ;
#800 = AXIS2_PLACEMENT_3D ( 'NONE', #600, #233, #291 ) ;
#801 = DIRECTION ( 'NONE',  ( -1.000000000000000000, 0.000000000000000000, 0.000000000000000000 ) ) ;
#802 = FACE_BOUND ( 'NONE', #928, .T. ) ;
#803 = AXIS2_PLACEMENT_3D ( 'NONE', #422, #723, #885 ) ;
#804 = VERTEX_POINT ( 'NONE', #720 ) ;
#805 = ADVANCED_FACE ( 'NONE', ( #553, #962, #180 ), #490, .T. ) ;
#806 = DIRECTION ( 'NONE',  ( -1.000000000000000000, 0.000000000000000000, 0.000000000000000000 ) ) ;
#807 = CIRCLE ( 'NONE', #1, 4.049999999999998046 ) ;
#808 = ORIENTED_EDGE ( 'NONE', *, *, #170, .F. ) ;
#809 = LINE ( 'NONE', #895, #756 ) ;
#810 = MANIFOLD_SOLID_BREP ( '\X2\9ad87ea75f02578b5b54\X0\2', #835 ) ;
#811 = DIRECTION ( 'NONE',  ( -1.000000000000000000, 0.000000000000000000, 0.000000000000000000 ) ) ;
#812 = ORIENTED_EDGE ( 'NONE', *, *, #752, .T. ) ;
#813 = CARTESIAN_POINT ( 'NONE',  ( -15.00000000000000178, -9.000000000000003553, -4.500000000000000000 ) ) ;
#814 = CARTESIAN_POINT ( 'NONE',  ( -30.00000000000000000, 0.000000000000000000, -14.00000000000000000 ) ) ;
#815 = CARTESIAN_POINT ( 'NONE',  ( 30.00000000000000711, 6.071532165918824830E-15, -4.499999999999999112 ) ) ;
#816 = ORIENTED_EDGE ( 'NONE', *, *, #435, .F. ) ;
#817 = CARTESIAN_POINT ( 'NONE',  ( 0.000000000000000000, 0.000000000000000000, 0.000000000000000000 ) ) ;
#818 = VECTOR ( 'NONE', #100, 1000.000000000000000 ) ;
#819 = DIRECTION ( 'NONE',  ( -1.000000000000000000, 0.000000000000000000, -1.301042606982605321E-16 ) ) ;
#820 = DIRECTION ( 'NONE',  ( 0.000000000000000000, 0.000000000000000000, -1.000000000000000000 ) ) ;
#821 = ORIENTED_EDGE ( 'NONE', *, *, #248, .F. ) ;
#822 = MECHANICAL_CONTEXT ( 'NONE', #731, 'mechanical' ) ;
#823 = ORIENTED_EDGE ( 'NONE', *, *, #11, .F. ) ;
#824 = LINE ( 'NONE', #115, #550 ) ;
#825 = AXIS2_PLACEMENT_3D ( 'NONE', #992, #279, #935 ) ;
#826 = ORIENTED_EDGE ( 'NONE', *, *, #95, .T. ) ;
#827 = LINE ( 'NONE', #908, #60 ) ;
#828 = CARTESIAN_POINT ( 'NONE',  ( -34.05000000000000426, 6.071532165918824830E-15, -14.00000000000000000 ) ) ;
#829 = EDGE_CURVE ( 'NONE', #367, #22, #257, .T. ) ;
#830 = EDGE_LOOP ( 'NONE', ( #316, #295, #432, #573 ) ) ;
#831 = CARTESIAN_POINT ( 'NONE',  ( 15.00000000000000178, 9.000000000000000000, -6.999999999999997335 ) ) ;
#832 = EDGE_CURVE ( 'NONE', #764, #434, #945, .T. ) ;
#833 = ORIENTED_EDGE ( 'NONE', *, *, #787, .T. ) ;
#834 = LINE ( 'NONE', #448, #609 ) ;
#835 = CLOSED_SHELL ( 'NONE', ( #597, #721, #172, #883, #239, #34, #352, #323, #210, #419, #431, #545, #53, #805, #309, #536, #101, #374, #278, #96, #133, #542, #754, #606, #18, #905, #212, #709 ) ) ;
#836 = VERTEX_POINT ( 'NONE', #251 ) ;
#837 = CARTESIAN_POINT ( 'NONE',  ( -17.50000000000000000, -9.000000000000000000, -4.500000000000000000 ) ) ;
#838 = CC_DESIGN_PERSON_AND_ORGANIZATION_ASSIGNMENT ( #380, #850, ( #695 ) ) ;
#839 = CIRCLE ( 'NONE', #649, 2.500000000000000444 ) ;
#840 = CARTESIAN_POINT ( 'NONE',  ( -30.00000000000000000, -9.000000000000001776, -14.00000000000000000 ) ) ;
#841 = ORIENTED_EDGE ( 'NONE', *, *, #646, .T. ) ;
#842 = DIRECTION ( 'NONE',  ( 0.000000000000000000, 0.000000000000000000, 1.000000000000000000 ) ) ;
#843 = CC_DESIGN_APPROVAL ( #314, ( #795 ) ) ;
#844 = ORIENTED_EDGE ( 'NONE', *, *, #493, .T. ) ;
#845 = CARTESIAN_POINT ( 'NONE',  ( -30.00000000000000000, 8.999999999999998224, -4.499999999999999112 ) ) ;
#846 = VERTEX_POINT ( 'NONE', #884 ) ;
#847 = APPROVAL_PERSON_ORGANIZATION ( #982, #327, #195 ) ;
#848 = DIRECTION ( 'NONE',  ( 0.000000000000000000, 0.000000000000000000, 1.000000000000000000 ) ) ;
#849 = VERTEX_POINT ( 'NONE', #237 ) ;
#850 = PERSON_AND_ORGANIZATION_ROLE ( 'design_supplier' ) ;
#851 = DIRECTION ( 'NONE',  ( -1.000000000000000000, 0.000000000000000000, 0.000000000000000000 ) ) ;
#852 = ORIENTED_EDGE ( 'NONE', *, *, #564, .F. ) ;
#853 = CIRCLE ( 'NONE', #983, 2.499999999999998668 ) ;
#854 = CARTESIAN_POINT ( 'NONE',  ( 17.50000000000000000, -9.000000000000007105, -9.499999999999998224 ) ) ;
#855 = ORIENTED_EDGE ( 'NONE', *, *, #572, .F. ) ;
#856 = DATE_AND_TIME ( #544, #711 ) ;
#857 = CARTESIAN_POINT ( 'NONE',  ( -17.50000000000000000, 8.999999999999998224, -9.499999999999998224 ) ) ;
#858 = DIRECTION ( 'NONE',  ( 1.000000000000000000, -5.782411586589357392E-17, 0.000000000000000000 ) ) ;
#859 = CIRCLE ( 'NONE', #587, 2.499999999999998668 ) ;
#860 = ORIENTED_EDGE ( 'NONE', *, *, #639, .T. ) ;
#861 = CARTESIAN_POINT ( 'NONE',  ( 30.00000000000000355, -8.673617379884035472E-16, 0.000000000000000000 ) ) ;
#862 = FACE_BOUND ( 'NONE', #458, .T. ) ;
#863 = VERTEX_POINT ( 'NONE', #322 ) ;
#864 = EDGE_CURVE ( 'NONE', #836, #528, #952, .T. ) ;
#865 = DIRECTION ( 'NONE',  ( 0.000000000000000000, 0.000000000000000000, 1.000000000000000000 ) ) ;
#866 = CARTESIAN_POINT ( 'NONE',  ( 30.00000000000000711, 6.071532165918824830E-15, 0.000000000000000000 ) ) ;
#867 = AXIS2_PLACEMENT_3D ( 'NONE', #717, #562, #638 ) ;
#868 = EDGE_LOOP ( 'NONE', ( #661, #347, #666, #383 ) ) ;
#869 = DIRECTION ( 'NONE',  ( -0.000000000000000000, -0.000000000000000000, -1.000000000000000000 ) ) ;
#870 = CC_DESIGN_DATE_AND_TIME_ASSIGNMENT ( #290, #532, ( #795 ) ) ;
#871 = AXIS2_PLACEMENT_3D ( 'NONE', #89, #634, #543 ) ;
#872 = FACE_BOUND ( 'NONE', #227, .T. ) ;
#873 = ORIENTED_EDGE ( 'NONE', *, *, #493, .F. ) ;
#874 = FACE_OUTER_BOUND ( 'NONE', #974, .T. ) ;
#875 = AXIS2_PLACEMENT_3D ( 'NONE', #61, #438, #616 ) ;
#876 = EDGE_CURVE ( 'NONE', #528, #629, #769, .T. ) ;
#877 = CARTESIAN_POINT ( 'NONE',  ( -30.00000000000000000, 8.999999999999998224, -14.00000000000000000 ) ) ;
#878 = VECTOR ( 'NONE', #648, 1000.000000000000000 ) ;
#879 = EDGE_LOOP ( 'NONE', ( #123, #468, #99, #921 ) ) ;
#880 = CARTESIAN_POINT ( 'NONE',  ( 34.05000000000000426, 6.567514119573503285E-15, -9.500000000000000000 ) ) ;
#881 = CYLINDRICAL_SURFACE ( 'NONE', #965, 3.399999999999999467 ) ;
#882 = ORIENTED_EDGE ( 'NONE', *, *, #102, .T. ) ;
#883 = ADVANCED_FACE ( 'NONE', ( #874 ), #725, .F. ) ;
#884 = CARTESIAN_POINT ( 'NONE',  ( -30.00000000000000000, -9.000000000000001776, 0.000000000000000000 ) ) ;
#885 = DIRECTION ( 'NONE',  ( 1.000000000000000000, 0.000000000000000000, 0.000000000000000000 ) ) ;
#886 = VECTOR ( 'NONE', #342, 1000.000000000000000 ) ;
#887 = DIRECTION ( 'NONE',  ( -0.000000000000000000, -1.000000000000000000, -0.000000000000000000 ) ) ;
#888 = CARTESIAN_POINT ( 'NONE',  ( -30.00000000000000711, 6.071532165918824830E-15, -9.500000000000000000 ) ) ;
#889 = CIRCLE ( 'NONE', #803, 4.049999999999998046 ) ;
#890 = ORIENTED_EDGE ( 'NONE', *, *, #129, .T. ) ;
#891 = DIRECTION ( 'NONE',  ( 1.301042606982605321E-16, 0.000000000000000000, -1.000000000000000000 ) ) ;
#892 = DIRECTION ( 'NONE',  ( -1.000000000000000000, 0.000000000000000000, 0.000000000000000000 ) ) ;
#893 = ORIENTED_EDGE ( 'NONE', *, *, #787, .F. ) ;
#894 = EDGE_CURVE ( 'NONE', #171, #9, #238, .T. ) ;
#895 = CARTESIAN_POINT ( 'NONE',  ( -30.00000000000000000, -9.000000000000001776, -9.499999999999991118 ) ) ;
#896 = EDGE_CURVE ( 'NONE', #47, #1003, #159, .T. ) ;
#897 = CARTESIAN_POINT ( 'NONE',  ( -34.05000000000000426, 6.071532165918824830E-15, 0.000000000000000000 ) ) ;
#898 = VERTEX_POINT ( 'NONE', #880 ) ;
#899 = CARTESIAN_POINT ( 'NONE',  ( -34.05000000000000426, 6.071532165918824830E-15, -14.00000000000000000 ) ) ;
#900 = VECTOR ( 'NONE', #146, 1000.000000000000000 ) ;
#901 = EDGE_CURVE ( 'NONE', #849, #452, #319, .T. ) ;
#902 = DIRECTION ( 'NONE',  ( -1.000000000000000000, 5.782411586589357392E-17, 1.301042606982605321E-16 ) ) ;
#903 = DIRECTION ( 'NONE',  ( -1.000000000000000000, 0.000000000000000000, 0.000000000000000000 ) ) ;
#904 = ORIENTED_EDGE ( 'NONE', *, *, #686, .T. ) ;
#905 = ADVANCED_FACE ( 'NONE', ( #311 ), #168, .F. ) ;
#906 = DIRECTION ( 'NONE',  ( -0.000000000000000000, -0.000000000000000000, -1.000000000000000000 ) ) ;
#907 = ORIENTED_EDGE ( 'NONE', *, *, #414, .T. ) ;
#908 = CARTESIAN_POINT ( 'NONE',  ( -15.00000000000000178, 8.999999999999998224, -6.999999999999999112 ) ) ;
#909 = VERTEX_POINT ( 'NONE', #796 ) ;
#910 = EDGE_CURVE ( 'NONE', #171, #373, #86, .T. ) ;
#911 = FACE_OUTER_BOUND ( 'NONE', #750, .T. ) ;
#912 = ORIENTED_EDGE ( 'NONE', *, *, #896, .F. ) ;
#913 = ORIENTED_EDGE ( 'NONE', *, *, #236, .F. ) ;
#914 = VECTOR ( 'NONE', #643, 1000.000000000000000 ) ;
#915 = FACE_OUTER_BOUND ( 'NONE', #40, .T. ) ;
#916 = VERTEX_POINT ( 'NONE', #744 ) ;
#917 = COORDINATED_UNIVERSAL_TIME_OFFSET ( 8, 0, .AHEAD. ) ;
#918 = DIRECTION ( 'NONE',  ( 2.891205793294678696E-17, -1.000000000000000000, -0.000000000000000000 ) ) ;
#919 = ORIENTED_EDGE ( 'NONE', *, *, #602, .F. ) ;
#920 = LINE ( 'NONE', #689, #953 ) ;
#921 = ORIENTED_EDGE ( 'NONE', *, *, #937, .T. ) ;
#922 = VECTOR ( 'NONE', #524, 1000.000000000000000 ) ;
#923 = CALENDAR_DATE ( 2026, 8, 8 ) ;
#924 = DIRECTION ( 'NONE',  ( 5.782411586589357392E-17, 1.000000000000000000, -0.000000000000000000 ) ) ;
#925 = EDGE_LOOP ( 'NONE', ( #404, #1013 ) ) ;
#926 = VECTOR ( 'NONE', #351, 1000.000000000000000 ) ;
#927 = FACE_BOUND ( 'NONE', #996, .T. ) ;
#928 = EDGE_LOOP ( 'NONE', ( #826, #447 ) ) ;
#929 = DIRECTION ( 'NONE',  ( -0.000000000000000000, -1.000000000000000000, -0.000000000000000000 ) ) ;
#930 = AXIS2_PLACEMENT_3D ( 'NONE', #888, #318, #806 ) ;
#931 = DIRECTION ( 'NONE',  ( 0.000000000000000000, -1.000000000000000000, 0.000000000000000000 ) ) ;
#932 = ORIENTED_EDGE ( 'NONE', *, *, #942, .T. ) ;
#933 = CALENDAR_DATE ( 2026, 8, 8 ) ;
#934 = CARTESIAN_POINT ( 'NONE',  ( 39.00000000000000711, -8.673617379884035472E-16, -9.500000000000001776 ) ) ;
#935 = DIRECTION ( 'NONE',  ( 1.000000000000000000, 0.000000000000000000, 0.000000000000000000 ) ) ;
#936 = EDGE_CURVE ( 'NONE', #452, #598, #667, .T. ) ;
#937 = EDGE_CURVE ( 'NONE', #256, #277, #947, .T. ) ;
#938 = VECTOR ( 'NONE', #950, 1000.000000000000000 ) ;
#939 = ORIENTED_EDGE ( 'NONE', *, *, #68, .T. ) ;
#940 = DIRECTION ( 'NONE',  ( -0.000000000000000000, -0.000000000000000000, 1.000000000000000000 ) ) ;
#941 = LINE ( 'NONE', #303, #991 ) ;
#942 = EDGE_CURVE ( 'NONE', #365, #736, #827, .T. ) ;
#943 = CYLINDRICAL_SURFACE ( 'NONE', #963, 9.000000000000005329 ) ;
#944 = EDGE_CURVE ( 'NONE', #552, #35, #189, .T. ) ;
#945 = LINE ( 'NONE', #469, #914 ) ;
#946 = DIRECTION ( 'NONE',  ( 0.000000000000000000, 0.000000000000000000, 1.000000000000000000 ) ) ;
#947 = CIRCLE ( 'NONE', #631, 4.049999999999998046 ) ;
#948 = CYLINDRICAL_SURFACE ( 'NONE', #334, 4.049999999999998046 ) ;
#949 = LINE ( 'NONE', #397, #21 ) ;
#950 = DIRECTION ( 'NONE',  ( 0.000000000000000000, 0.000000000000000000, 1.000000000000000000 ) ) ;
#951 = ORIENTED_EDGE ( 'NONE', *, *, #201, .T. ) ;
#952 = LINE ( 'NONE', #813, #595 ) ;
#953 = VECTOR ( 'NONE', #356, 1000.000000000000000 ) ;
#954 = EDGE_CURVE ( 'NONE', #450, #520, #748, .T. ) ;
#955 = CARTESIAN_POINT ( 'NONE',  ( -17.50000000000000000, 8.999999999999998224, -9.499999999999998224 ) ) ;
#956 = CARTESIAN_POINT ( 'NONE',  ( 17.50000000000000000, -9.000000000000003553, -4.500000000000000000 ) ) ;
#957 = CARTESIAN_POINT ( 'NONE',  ( -30.00000000000000000, 0.000000000000000000, -14.00000000000000000 ) ) ;
#958 = ORIENTED_EDGE ( 'NONE', *, *, #944, .T. ) ;
#959 = DIRECTION ( 'NONE',  ( 0.000000000000000000, 0.000000000000000000, 1.000000000000000000 ) ) ;
#960 = FACE_OUTER_BOUND ( 'NONE', #483, .T. ) ;
#961 = ORIENTED_EDGE ( 'NONE', *, *, #761, .T. ) ;
#962 = FACE_BOUND ( 'NONE', #548, .T. ) ;
#963 = AXIS2_PLACEMENT_3D ( 'NONE', #5, #395, #710 ) ;
#964 = DIRECTION ( 'NONE',  ( -1.000000000000000000, 0.000000000000000000, 0.000000000000000000 ) ) ;
#965 = AXIS2_PLACEMENT_3D ( 'NONE', #169, #15, #640 ) ;
#966 = EDGE_CURVE ( 'NONE', #629, #623, #122, .T. ) ;
#967 = PLANE ( 'NONE',  #418 ) ;
#968 = ORIENTED_EDGE ( 'NONE', *, *, #954, .T. ) ;
#969 = EDGE_CURVE ( 'NONE', #863, #256, #346, .T. ) ;
#970 = LOCAL_TIME ( 21, 19, 7.000000000000000000, #605 ) ;
#971 = VECTOR ( 'NONE', #694, 1000.000000000000000 ) ;
#972 = CARTESIAN_POINT ( 'NONE',  ( -17.50000000000000000, 8.999999999999998224, -6.999999999999999112 ) ) ;
#973 = FACE_OUTER_BOUND ( 'NONE', #109, .T. ) ;
#974 = EDGE_LOOP ( 'NONE', ( #158, #907, #771, #489 ) ) ;
#975 = LOCAL_TIME ( 21, 19, 7.000000000000000000, #41 ) ;
#976 = LINE ( 'NONE', #579, #165 ) ;
#977 = ORIENTED_EDGE ( 'NONE', *, *, #691, .T. ) ;
#978 = UNCERTAINTY_MEASURE_WITH_UNIT (LENGTH_MEASURE( 1.000000000000000082E-05 ), #271, 'distance_accuracy_value', 'NONE');
#979 = CARTESIAN_POINT ( 'NONE',  ( 30.00000000000000711, 6.071532165918824830E-15, -9.500000000000000000 ) ) ;
#980 = DIRECTION ( 'NONE',  ( -0.000000000000000000, -0.000000000000000000, 1.000000000000000000 ) ) ;
#981 = ORIENTED_EDGE ( 'NONE', *, *, #535, .T. ) ;
#982 = PERSON_AND_ORGANIZATION ( #315, #429 ) ;
#983 = AXIS2_PLACEMENT_3D ( 'NONE', #485, #627, #14 ) ;
#984 = EDGE_CURVE ( 'NONE', #623, #836, #515, .T. ) ;
#985 = ORIENTED_EDGE ( 'NONE', *, *, #762, .F. ) ;
#986 = CARTESIAN_POINT ( 'NONE',  ( 30.00000000000000711, 6.071532165918824830E-15, -4.499999999999999112 ) ) ;
#987 = ORIENTED_EDGE ( 'NONE', *, *, #901, .T. ) ;
#988 = DIRECTION ( 'NONE',  ( -1.000000000000000000, -2.891205793294678696E-17, -0.000000000000000000 ) ) ;
#989 = ORIENTED_EDGE ( 'NONE', *, *, #792, .F. ) ;
#990 = PRODUCT_RELATED_PRODUCT_CATEGORY ( 'detail', '', ( #470 ) ) ;
#991 = VECTOR ( 'NONE', #547, 1000.000000000000000 ) ;
#992 = CARTESIAN_POINT ( 'NONE',  ( 30.00000000000000355, -8.673617379884035472E-16, -14.00000000000000000 ) ) ;
#993 = ORIENTED_EDGE ( 'NONE', *, *, #129, .F. ) ;
#994 = ORIENTED_EDGE ( 'NONE', *, *, #414, .F. ) ;
#995 = DIRECTION ( 'NONE',  ( 1.000000000000000000, 0.000000000000000000, -1.301042606982605321E-16 ) ) ;
#996 = EDGE_LOOP ( 'NONE', ( #144, #981 ) ) ;
#997 = PERSON_AND_ORGANIZATION_ROLE ( 'classification_officer' ) ;
#998 = CARTESIAN_POINT ( 'NONE',  ( -25.95000000000000639, 6.567514119573503285E-15, 0.000000000000000000 ) ) ;
#999 = ORIENTED_EDGE ( 'NONE', *, *, #713, .T. ) ;
#1000 = AXIS2_PLACEMENT_3D ( 'NONE', #707, #475, #3 ) ;
#1001 = PLANE ( 'NONE',  #214 ) ;
#1002 = AXIS2_PLACEMENT_3D ( 'NONE', #741, #176, #26 ) ;
#1003 = VERTEX_POINT ( 'NONE', #203 ) ;
#1004 = APPROVAL_DATE_TIME ( #455, #327 ) ;
#1005 = DIRECTION ( 'NONE',  ( 1.000000000000000000, 0.000000000000000000, 0.000000000000000000 ) ) ;
#1006 = ORIENTED_EDGE ( 'NONE', *, *, #503, .T. ) ;
#1007 = FACE_BOUND ( 'NONE', #566, .T. ) ;
#1008 = ORIENTED_EDGE ( 'NONE', *, *, #798, .T. ) ;
#1009 = CIRCLE ( 'NONE', #507, 9.000000000000001776 ) ;
#1010 = CARTESIAN_POINT ( 'NONE',  ( -17.50000000000000000, 8.999999999999998224, -4.499999999999999112 ) ) ;
#1011 = VECTOR ( 'NONE', #113, 1000.000000000000000 ) ;
#1012 = CARTESIAN_POINT ( 'NONE',  ( -30.00000000000000000, -9.000000000000001776, -9.500000000000000000 ) ) ;
#1013 = ORIENTED_EDGE ( 'NONE', *, *, #522, .T. ) ;
#1014 = APPROVAL_STATUS ( 'not_yet_approved' ) ;
#1015 = DIRECTION ( 'NONE',  ( 5.782411586589357392E-17, 1.000000000000000000, -0.000000000000000000 ) ) ;
#1016 = EDGE_CURVE ( 'NONE', #898, #505, #657, .T. ) ;
#1017 = EDGE_CURVE ( 'NONE', #677, #804, #976, .T. ) ;
#1018 = CARTESIAN_POINT ( 'NONE',  ( -30.00000000000000000, -9.000000000000001776, -14.00000000000000000 ) ) ;
#1019 = ORIENTED_EDGE ( 'NONE', *, *, #386, .T. ) ;
#1020 = CARTESIAN_POINT ( 'NONE',  ( -17.50000000000000000, 10.99999999999999822, -6.999999999999997335 ) ) ;
#1021 = VECTOR ( 'NONE', #192, 1000.000000000000000 ) ;
#1022 = PRODUCT_DEFINITION ( '�', '', #695, #580 ) ;
#1023 = DIRECTION ( 'NONE',  ( -1.301042606982605321E-16, -0.000000000000000000, 1.000000000000000000 ) ) ;
ENDSEC;
END-ISO-10303-21;
